<?xml version="1.0" encoding="utf-8"?>
<!-- Generator: Adobe Illustrator 21.0.0, SVG Export Plug-In . SVG Version: 6.00 Build 0)  -->
<svg version="1.1" id="Layer_1" xmlns="http://www.w3.org/2000/svg" xmlns:xlink="http://www.w3.org/1999/xlink" x="0px" y="0px"
	 viewBox="0 0 427.9 288.5" style="enable-background:new 0 0 427.9 288.5;" xml:space="preserve">
<style type="text/css">
	.st0{fill:#363837;}
</style>
<g>
	<g>
		<g>
			<g>
				<path class="st0" d="M128.3,99.7h27c3.2,0,5.9,1.1,8.2,3.4s3.4,5,3.4,8.2v19.3c0,3.2-1.1,5.9-3.4,8.2s-5,3.4-8.2,3.4h-11.6v19.3
					h-15.4V99.7z M151.4,111.3h-7.7v19.3h7.7V111.3z"/>
				<path class="st0" d="M177.2,99.7h15.4v50.1h7.7V99.7h15.4v50.1c0,3.2-1.1,5.9-3.4,8.2s-5,3.4-8.2,3.4h-15.4
					c-3.2,0-5.9-1.1-8.2-3.4s-3.4-5-3.4-8.2V99.7z"/>
				<path class="st0" d="M226.2,99.7h13.5l13.5,27l13.5-27h13.5v61.7h-15.4v-27l-11.6,23.1l-11.6-23.1v27h-15.4V99.7z"/>
				<path class="st0" d="M290.5,99.7h27c3.2,0,5.9,1.1,8.2,3.4s3.4,5,3.4,8.2v19.3c0,3.2-1.1,5.9-3.4,8.2s-5,3.4-8.2,3.4h-11.6v19.3
					h-15.4V99.7z M313.6,111.3h-7.7v19.3h7.7V111.3z"/>
				<path class="st0" d="M339.5,111.3c0-3.2,1.1-5.9,3.4-8.2c2.2-2.2,5-3.4,8.2-3.4h15.4c3.2,0,5.9,1.1,8.2,3.4s3.4,5,3.4,8.2v11.6
					h-15.4v-11.6h-7.7v38.5h7.7v-11.6H378v11.6c0,3.2-1.1,5.9-3.4,8.2s-5,3.4-8.2,3.4H351c-3.2,0-5.9-1.1-8.2-3.4
					c-2.2-2.2-3.4-5-3.4-8.2V111.3z"/>
				<path class="st0" d="M388.4,111.3c0-3.2,1.1-5.9,3.4-8.2s5-3.4,8.2-3.4h15.4c3.2,0,5.9,1.1,8.2,3.4s3.4,5,3.4,8.2v38.5
					c0,3.2-1.1,5.9-3.4,8.2s-5,3.4-8.2,3.4h-15.4c-3.2,0-5.9-1.1-8.2-3.4s-3.4-5-3.4-8.2V111.3z M411.5,111.3h-7.7v38.5h7.7V111.3z"
					/>
			</g>
		</g>
		<g>
			<g>
				<path class="st0" d="M127.9,168.2h9c1.1,0,2,0.4,2.7,1.1c0.7,0.7,1.1,1.7,1.1,2.7v6.4c0,1.1-0.4,2-1.1,2.7
					c-0.7,0.7-1.7,1.1-2.7,1.1h-3.8v6.4h-5.1V168.2z M135.6,172.1h-2.6v6.4h2.6V172.1z"/>
				<path class="st0" d="M144.2,168.2h5.1v20.5h-5.1V168.2z"/>
				<path class="st0" d="M152.8,168.2h9c1.1,0,2,0.4,2.7,1.1c0.7,0.7,1.1,1.7,1.1,2.7v6.4c0,1.1-0.4,2-1.1,2.7
					c-0.7,0.7-1.7,1.1-2.7,1.1h-3.8v6.4h-5.1V168.2z M160.5,172.1h-2.6v6.4h2.6V172.1z"/>
				<path class="st0" d="M169.1,168.2h11.5v3.8h-6.4v3.8h5.1v3.8h-5.1v5.1h6.4v3.8h-11.5V168.2z"/>
				<path class="st0" d="M182.8,168.2h5.1v16.7h5.1v3.8h-10.3V168.2z"/>
				<path class="st0" d="M196.5,168.2h5.1v20.5h-5.1V168.2z"/>
				<path class="st0" d="M205.1,168.2h4.5l4.5,9v-9h5.1v20.5h-4.5l-4.5-9v9h-5.1V168.2z"/>
				<path class="st0" d="M222.7,168.2h11.5v3.8h-6.4v3.8h5.1v3.8h-5.1v5.1h6.4v3.8h-11.5V168.2z"/>
				<path class="st0" d="M245,172.1c0-1.1,0.4-2,1.1-2.7c0.7-0.7,1.7-1.1,2.7-1.1h5.1c1.1,0,2,0.4,2.7,1.1c0.7,0.7,1.1,1.7,1.1,2.7
					v3.8h-5.1v-3.8h-2.6v12.8h2.6v-3.8h5.1v3.8c0,1.1-0.4,2-1.1,2.7c-0.7,0.7-1.7,1.1-2.7,1.1h-5.1c-1.1,0-2-0.4-2.7-1.1
					c-0.7-0.7-1.1-1.7-1.1-2.7V172.1z"/>
				<path class="st0" d="M261.3,172.1c0-1.1,0.4-2,1.1-2.7c0.7-0.7,1.7-1.1,2.7-1.1h5.1c1.1,0,2,0.4,2.7,1.1
					c0.7,0.7,1.1,1.7,1.1,2.7v12.8c0,1.1-0.4,2-1.1,2.7c-0.7,0.7-1.7,1.1-2.7,1.1h-5.1c-1.1,0-2-0.4-2.7-1.1
					c-0.7-0.7-1.1-1.7-1.1-2.7V172.1z M269,172.1h-2.6v12.8h2.6V172.1z"/>
				<path class="st0" d="M277.5,168.2h4.5l4.5,9v-9h5.1v20.5h-4.5l-4.5-9v9h-5.1V168.2z"/>
				<path class="st0" d="M295.1,182.3h5.1v2.6h2.6v-4.5h-5.1c-0.7,0-1.3-0.3-1.8-0.8c-0.5-0.5-0.8-1.1-0.8-1.8v-5.8
					c0-1.1,0.4-2,1.1-2.7c0.7-0.7,1.7-1.1,2.7-1.1h5.1c1.1,0,2,0.4,2.7,1.1c0.7,0.7,1.1,1.7,1.1,2.7v2.6h-5.1v-2.6h-2.6v4.5h5.1
					c0.7,0,1.3,0.3,1.8,0.8c0.5,0.5,0.8,1.1,0.8,1.8v5.8c0,1.1-0.4,2-1.1,2.7c-0.7,0.7-1.7,1.1-2.7,1.1H299c-1.1,0-2-0.4-2.7-1.1
					c-0.7-0.7-1.1-1.7-1.1-2.7V182.3z"/>
				<path class="st0" d="M314,172.1h-3.2v-3.8h11.5v3.8h-3.2v16.7H314V172.1z"/>
				<path class="st0" d="M325.1,168.2h9c1.1,0,2,0.4,2.7,1.1c0.7,0.7,1.1,1.7,1.1,2.7v6.4c0,0.7-0.3,1.3-0.8,1.8
					c-0.5,0.5-1.1,0.8-1.8,0.8l2.6,5.1v2.6h-5.1v-2.6l-2.6-5.1v7.7h-5.1V168.2z M332.8,172.1h-2.6v5.1h2.6V172.1z"/>
				<path class="st0" d="M341.4,168.2h5.1v16.7h2.6v-16.7h5.1v16.7c0,1.1-0.4,2-1.1,2.7c-0.7,0.7-1.7,1.1-2.7,1.1h-5.1
					c-1.1,0-2-0.4-2.7-1.1c-0.7-0.7-1.1-1.7-1.1-2.7V168.2z"/>
				<path class="st0" d="M357.7,172.1c0-1.1,0.4-2,1.1-2.7c0.7-0.7,1.7-1.1,2.7-1.1h5.1c1.1,0,2,0.4,2.7,1.1
					c0.7,0.7,1.1,1.7,1.1,2.7v3.8h-5.1v-3.8h-2.6v12.8h2.6v-3.8h5.1v3.8c0,1.1-0.4,2-1.1,2.7c-0.7,0.7-1.7,1.1-2.7,1.1h-5.1
					c-1.1,0-2-0.4-2.7-1.1c-0.7-0.7-1.1-1.7-1.1-2.7V172.1z"/>
				<path class="st0" d="M376.5,172.1h-3.2v-3.8h11.5v3.8h-3.2v16.7h-5.1V172.1z"/>
				<path class="st0" d="M387.7,168.2h5.1v20.5h-5.1V168.2z"/>
				<path class="st0" d="M396.3,172.1c0-1.1,0.4-2,1.1-2.7c0.7-0.7,1.7-1.1,2.7-1.1h5.1c1.1,0,2,0.4,2.7,1.1
					c0.7,0.7,1.1,1.7,1.1,2.7v12.8c0,1.1-0.4,2-1.1,2.7c-0.7,0.7-1.7,1.1-2.7,1.1h-5.1c-1.1,0-2-0.4-2.7-1.1
					c-0.7-0.7-1.1-1.7-1.1-2.7V172.1z M403.9,172.1h-2.6v12.8h2.6V172.1z"/>
				<path class="st0" d="M412.5,168.2h4.5l4.5,9v-9h5.1v20.5h-4.5l-4.5-9v9h-5.1V168.2z"/>
			</g>
		</g>
	</g>
	<g>
		<g>
			<polygon class="st0" points="0.9,94.4 0.9,165.3 71.9,94.4 			"/>
			<polygon class="st0" points="98.9,190.8 100.1,190.8 100.1,194.1 101,194.1 101,190.8 102.2,190.8 102.2,190.1 98.9,190.1 			"/>
			<path class="st0" d="M105.4,190.1l-0.7,3.2l-0.7-3.2h-1.2v4h0.8v-2.7c0-0.1,0-0.2,0-0.3c0-0.1,0-0.3,0-0.3l0.8,3.4h0.8l0.8-3.4
				c0,0.1,0,0.2,0,0.3c0,0.1,0,0.3,0,0.3v2.7h0.8v-4H105.4z"/>
		</g>
		<g>
			<path class="st0" d="M75.5,159.8l4.1-9.3V97.9l-67.4,96.2h44.5c-1.2-2.9-1.8-6.1-1.8-9.4C54.9,172.3,63.8,162,75.5,159.8z"/>
			<path class="st0" d="M80.9,153.2l-2.8,6.2c0.7-0.1,1.4-0.1,2.1-0.1c1.2,0,2.3,0.1,3.5,0.2L80.9,153.2z"/>
			<path class="st0" d="M82.2,94.4L82.2,94.4l-0.1,56.1h0l4.3,9.6c3.7,0.9,7,2.6,9.9,4.9V94.4H82.2z"/>
		</g>
		<path class="st0" d="M96.2,194v-22.9c-3.8-4.3-9.3-7.1-15.6-7.1c-11.4,0-20.7,9.3-20.7,20.7c0,3.3,0.8,6.5,2.2,9.3H96.2z"/>
	</g>
</g>
</svg>
