<svg id="Layer_1" data-name="Layer 1" xmlns="http://www.w3.org/2000/svg" viewBox="0 0 50 50"><defs><style>.cls-1{fill:#383a49;}.cls-2{fill:#fff;}</style></defs><title>Artboard 1</title><circle class="cls-1" cx="25" cy="25" r="25"/><path class="cls-2" d="M14.92,17.62H35.08a1.1,1.1,0,0,1,1.1,1.1h0a1.1,1.1,0,0,1-1.1,1.1H14.92a1.1,1.1,0,0,1-1.1-1.1h0A1.1,1.1,0,0,1,14.92,17.62Z"/><path class="cls-2" d="M14.92,23.9H35.08a1.1,1.1,0,0,1,1.1,1.1h0a1.1,1.1,0,0,1-1.1,1.1H14.92a1.1,1.1,0,0,1-1.1-1.1h0A1.1,1.1,0,0,1,14.92,23.9Z"/><rect class="cls-2" x="13.82" y="30.17" width="22.36" height="2.21" rx="1.1" ry="1.1"/></svg>