<?xml version="1.0" encoding="utf-8"?>
<!-- Generator: Adobe Illustrator 21.0.0, SVG Export Plug-In . SVG Version: 6.00 Build 0)  -->
<svg version="1.1" id="Layer_1" xmlns="http://www.w3.org/2000/svg" xmlns:xlink="http://www.w3.org/1999/xlink" x="0px" y="0px"
	 viewBox="0 0 427.9 288.5" style="enable-background:new 0 0 427.9 288.5;" xml:space="preserve">
<style type="text/css">
	.st0{fill:none;}
	.st1{fill:#FFFFFF;}
</style>
<rect x="-938" y="-311" class="st0" width="864" height="864"/>
<g>
	<g>
		<path class="st1" d="M59.9,145.8c0-0.7,0.2-1.2,0.5-1.6c0.3-0.4,0.9-0.6,1.6-0.6c10.2,0,20.4-0.1,30.6-0.1c2.2,0,4.3,0.3,6.2,0.8
			c1.9,0.6,3.7,1.4,5.4,2.4c1.6,1,3.1,2.2,4.4,3.6c1.3,1.4,2.4,2.9,3.3,4.5c0.9,1.6,1.6,3.3,2.1,5c0.5,1.8,0.7,3.6,0.7,5.4
			c0,2.7-0.5,5.3-1.5,7.9c-1,2.6-2.5,4.9-4.4,7c-1.9,2.1-4.2,3.8-6.9,5.2c-2.7,1.4-5.6,2.2-8.9,2.4c-5.8,0.3-8.7,0.5-14.5,0.9
			c0,9.8,0,14.7,0,24.5c0,1.3-0.7,2.1-2.2,2.2c-5.7,0.6-8.5,0.9-14.2,1.5c-0.6,0.1-1.1,0-1.5-0.3c-0.4-0.3-0.6-0.8-0.6-1.5
			C60,192,59.9,168.9,59.9,145.8z M95.9,165.6c0-0.9-0.2-1.8-0.5-2.7c-0.3-0.9-0.8-1.7-1.5-2.4s-1.4-1.3-2.3-1.7
			c-0.9-0.4-1.9-0.6-3.1-0.6c-4.1,0.1-6.1,0.1-10.1,0.2c0,6.2,0,9.3,0,15.6c4.1-0.2,6.1-0.3,10.1-0.4c1.1,0,2.2-0.3,3.1-0.8
			c0.9-0.5,1.7-1.1,2.3-1.8c0.6-0.7,1.1-1.5,1.4-2.5C95.8,167.5,95.9,166.5,95.9,165.6z"/>
	</g>
	<g>
		<path class="st1" d="M135.8,145.1c0-0.2,0.1-0.4,0.3-0.6c0.2-0.2,0.4-0.4,0.6-0.6c0.3-0.2,0.5-0.3,0.8-0.4
			c0.3-0.1,0.6-0.2,0.8-0.2c4.9,0,7.4,0,12.3,0c0.5,0,1,0.1,1.4,0.5c0.4,0.3,0.7,0.6,0.9,0.8c0.5,1,0.7,1.5,1.2,2.5
			c8.3,20,16.8,39.9,25.3,59.8c0.3,0.6,0.2,1-0.1,1.4c-0.4,0.4-1,0.6-1.8,0.6c-5.3,0.2-8,0.2-13.3,0.4c-0.7,0-1.3-0.1-1.7-0.3
			c-0.4-0.2-0.7-0.6-0.9-1.2c-0.6-1.4-1.8-5-2.4-6.4c-0.6-1.4-1.2-2.9-1.8-4.3c-8.5,0.3-17,0.7-25.4,1.1c-0.6,1.5-1.2,3-1.8,4.6
			c-0.6,1.5-1.9,5.3-2.5,6.8c-0.4,1.1-1.2,1.7-2.4,1.8c-5.4,0.4-8.1,0.5-13.5,1c-0.6,0-1.1-0.1-1.5-0.3s-0.5-0.7-0.2-1.3
			C118.4,188.7,127,166.9,135.8,145.1z M144.6,163.7c-0.6,1.5-1.2,3.1-1.8,4.8c-0.6,1.7-1.2,3.5-1.8,5.2c-0.6,1.8-1.2,3.5-1.8,5.2
			s-1.2,3.3-1.8,4.8c5.9-0.2,8.8-0.3,14.7-0.5C149,175.5,147.5,171.6,144.6,163.7z"/>
	</g>
	<g>
		<path class="st1" d="M184.1,145.2c0-0.6,0.2-1.1,0.5-1.4c0.3-0.4,0.9-0.5,1.6-0.5c10.3,0,20.6,0,30.9-0.1c3.3,0,6.4,0.5,9.2,1.6
			c2.9,1.1,5.4,2.6,7.5,4.4c2.1,1.9,3.8,4.1,5.1,6.6c1.2,2.5,1.9,5.2,1.9,8c0,1.9-0.3,3.8-0.9,5.5c-0.6,1.7-1.4,3.4-2.5,4.9
			c-1,1.5-2.3,2.9-3.7,4.1c-1.4,1.2-3,2.3-4.8,3.1c4.1,7.6,8.3,15.2,12.4,22.8c0.2,0.4,0.5,0.9,0.9,1.4c0.4,0.5,0.5,1,0.5,1.4
			c0,0.5-0.2,0.8-0.5,1c-0.3,0.2-0.8,0.3-1.4,0.3c-6.6-0.1-9.9-0.1-16.4-0.2c-0.5,0-1-0.1-1.5-0.4c-0.4-0.3-0.7-0.7-0.8-1.1
			c-4.7-8.6-7-12.9-11.7-21.4c-3.1,0-4.7,0-7.8,0c0,8.5,0,12.7,0,21.2c0,1.2-0.7,1.8-2.2,1.8c-5.7,0.1-8.5,0.1-14.2,0.3
			c-0.6,0-1.2-0.1-1.5-0.4c-0.4-0.3-0.6-0.7-0.6-1.4C184.2,186.3,184.2,165.7,184.1,145.2z M221.7,163.9c0-0.8-0.2-1.7-0.5-2.5
			c-0.4-0.8-0.9-1.6-1.5-2.3c-0.6-0.7-1.4-1.3-2.3-1.8c-0.9-0.5-1.9-0.8-3-0.9c-0.9-0.1-1.7-0.1-2.5-0.1c-0.8,0-1.6-0.1-2.6-0.1
			c-2.6,0-4,0-6.6,0c0,6.2,0,9.3,0,15.6c3.5,0,5.3,0,8.8,0c0.6,0,1.1,0,1.5,0c0.4,0,0.9-0.1,1.5-0.1c1.1-0.1,2.1-0.4,3-0.9
			c0.9-0.5,1.6-1,2.2-1.7c0.6-0.7,1.1-1.5,1.4-2.3C221.5,165.7,221.7,164.9,221.7,163.9z"/>
	</g>
	<g>
		<path class="st1" d="M245.1,145c0-0.6,0.2-1,0.6-1.4c0.4-0.3,1-0.5,1.6-0.5c17.2,0,34.4-0.1,51.5-0.1c0.6,0,1.1,0.2,1.5,0.5
			c0.4,0.3,0.7,0.8,0.8,1.4c0,4.4,0,6.6,0,10.9c0,0.5-0.2,1-0.6,1.5c-0.4,0.5-1,0.7-1.7,0.7c-6.6-0.1-9.9-0.1-16.5-0.2
			c0.1,16.6,0.1,33.1,0.2,49.7c0,0.5-0.2,1-0.6,1.4c-0.4,0.4-1,0.6-1.6,0.6c-5.6-0.2-8.4-0.4-14.1-0.5c-0.5,0-1.1-0.2-1.5-0.6
			c-0.5-0.4-0.7-0.9-0.7-1.5c-0.1-16.4-0.1-32.7-0.2-49.1c-6.6,0-9.9-0.1-16.5-0.1c-0.6,0-1.2-0.2-1.6-0.6c-0.4-0.4-0.6-0.9-0.7-1.6
			C245.2,151.3,245.1,149.2,245.1,145z"/>
	</g>
	<g>
		<path class="st1" d="M339,168.1c3.9-7.9,7.7-15.8,11.5-23.7c0.2-0.4,0.3-0.6,0.5-0.8c0.1-0.2,0.3-0.3,0.4-0.4
			c0.1-0.1,0.3-0.1,0.4-0.1c0.1,0,0.3-0.1,0.5-0.1c7.4,0,11.1,0,18.4,0c0.2,0,0.4,0.1,0.6,0.2c0.1,0.1,0.2,0.3,0.2,0.5
			c0,0.4-0.2,0.8-0.7,1.2c-7.3,13.1-14.9,26-22.6,38.9c0,9.4,0.1,18.8,0.1,28.2c0,1.5-0.7,2.1-2.2,2c-5.7-0.5-8.6-0.8-14.3-1.2
			c-0.6-0.1-1.1-0.3-1.5-0.7c-0.4-0.4-0.5-0.9-0.5-1.6c0-9.2-0.1-18.5-0.1-27.7c-7.4-12.7-15.1-25.4-22.8-37.9
			c-0.4-0.4-0.6-0.8-0.6-1.1c0-0.2,0.1-0.3,0.2-0.5c0.1-0.1,0.3-0.2,0.5-0.2c7.4,0,11.1,0,18.4,0c0.2,0.1,0.4,0.1,0.5,0.1
			c0.1,0,0.3,0.1,0.4,0.1c0.1,0.1,0.3,0.2,0.4,0.4c0.1,0.2,0.3,0.4,0.5,0.8C331.2,152.2,335.1,160.1,339,168.1z"/>
	</g>
</g>
<g>
	<g>
		<path class="st1" d="M109.6,91.4c1.2-3.1,2.3-5.9,3.2-8.2c0.9-2.3,1.6-4,2-4.9c0,0,0-0.1,0-0.1l2.4-5.6c0,0-2.4-4.1-19.5-0.7
			L94,81.9c-1.3,3.5-2.6,7.3-3.9,11.3c-1.4,4-2.7,8.1-4.1,12.3c-1.4,4.2-2.6,8.2-3.8,12.1c-1.1,3.9-2.1,7.4-2.9,10.7
			c-0.8,3.2-1.3,5.9-1.5,8c0.9,0.3,1.8,0.5,2.6,0.8c0.7,0.2,1.5,0.3,2.3,0.5c0.8,0.1,1.5,0.2,2.1,0.2c1.1-0.1,2.1-0.4,3-0.9
			c0.9-0.6,1.8-1.3,2.6-2.2c0.8-0.9,1.6-1.9,2.2-3c0.6-1.1,1.3-2.2,1.8-3.4c0.8-1.8,1.9-4.1,3.1-7c1.2-2.9,2.5-6,3.9-9.4
			c1.4-3.4,2.7-6.9,4.1-10.4C107,97.8,108.4,94.5,109.6,91.4z"/>
	</g>
	<g>
		<path class="st1" d="M134.8,112.1c-0.6-2.6-1.2-5.2-1.9-7.8c-0.7-2.6-1.2-5-1.5-7l7.7-8.4c0.2-0.3,0.2-0.7-0.1-1.3
			c-0.3-0.6-0.8-1.2-1.4-2c-0.6-0.7-1.4-1.5-2.2-2.3c-0.8-0.8-1.6-1.5-2.4-2.1c-0.8-0.6-1.5-1.1-2.2-1.5c-0.7-0.4-1.1-0.6-1.3-0.6
			c-1.2,0-2.6,0.7-4.3,2c-1.6,1.3-3.2,3-4.7,5c-1.5,2-2.8,4.2-3.9,6.5c-1.1,2.4-1.6,4.6-1.6,6.7l0,1.5c-1.5,2-3,3.8-4.3,5.4
			c-1.4,1.6-2.4,2.8-3,3.6c-0.6,0.7-0.7,1.6-0.5,2.8c0.2,1.2,0.6,2.3,1.1,3.4c0.5,1.1,1.1,1.9,1.8,2.6c0.7,0.7,1.2,0.8,1.6,0.3
			c0.9-0.9,1.7-1.8,2.6-2.8c0.9-1,1.8-2,2.8-3.1c0.4,1.8,0.8,3.5,1.2,5.1c0.4,1.6,0.8,3.1,1.1,4.4c0.3,1.3,0.5,2.4,0.5,3.3
			c0.1,0.9,0,1.5-0.3,1.7c-0.3,0.5-1.1,0.6-2.2,0.5c-1.1-0.1-2.3-0.3-3.6-0.7c-1.3-0.4-2.6-0.8-4-1.4c-1.3-0.5-2.4-1.1-3.3-1.6
			c-0.9-0.5-1.5-0.5-1.9,0c-0.4,0.5-0.5,1.2-0.4,2.1c0.1,1,0.6,2.1,1.3,3.4c0.7,1.3,1.7,2.5,3,3.6c1.3,1.1,2.9,2.1,4.9,2.8
			c2,0.8,4.3,1.2,6.9,1.2c1.5,0,3.3-0.4,5.2-1.1c1.9-0.7,3.8-1.7,5.5-3c1.7-1.3,3.2-2.7,4.3-4.3c1.2-1.6,1.7-3.3,1.7-5.1
			c0-1.1-0.2-2.7-0.7-4.9C136,117,135.4,114.7,134.8,112.1z"/>
	</g>
	<g>
		<path class="st1" d="M349.2,114.3c-0.3-1.1-0.7-2.1-1.2-3.1c-0.5-1-1-1.8-1.6-2.4c-0.5-0.6-0.9-0.8-1.2-0.6
			c-0.6,0.7-1.5,1.7-2.6,2.7c-1.1,1.1-2.3,2.2-3.6,3.4c-1.3,1.2-2.8,2.4-4.3,3.5c-1.5,1.1-3.1,2.1-4.6,2.9c-1.6,0.8-3.1,1.3-4.6,1.6
			c-1.5,0.3-2.8,0.2-4-0.3c0.3,0,0.8-0.2,1.3-0.6c0.5-0.4,1-0.9,1.6-1.6c0.6-0.7,1.1-1.4,1.6-2.2c0.5-0.8,0.9-1.6,1.2-2.3
			c0.7-1.8,1.7-4.1,2.8-6.9c1.2-2.8,2.4-5.7,3.7-8.9c1.3-3.2,2.7-6.4,4.1-9.7c1.4-3.3,2.7-6.4,3.9-9.3c1.2-2.9,2.2-5.4,3.2-7.6
			c0.9-2.2,1.6-3.8,2-4.7c0.3-0.6,0.1-1.3-0.5-2.2c-0.6-0.9-1.5-1.8-2.6-2.7c-1.1-0.9-2.3-1.8-3.6-2.7c-1.3-0.9-2.6-1.6-3.9-2.2
			c-1.3-0.6-2.3-1-3.2-1.1c-0.9-0.2-1.4-0.1-1.6,0.3c-0.5,1.3-1.2,3.1-2.1,5.4c-0.9,2.4-1.9,5-3,8.1c-1.1,3-2.3,6.3-3.6,9.9
			c-1.3,3.6-2.5,7.2-3.7,10.8c-1.1-1-2.4-2-3.7-3c-1.3-1-2.7-1.9-4.1-2.6c-1.4-0.8-2.8-1.4-4.2-1.8c-1.4-0.5-2.6-0.7-3.8-0.7
			c-2.1,0-4.2,0.8-6.2,2.4c-2,1.6-3.9,3.6-5.7,6.1c-1.7,2.5-3.3,5.3-4.6,8.4c-1.4,3.1-2.4,6.2-3.2,9.2c-0.2,0.8-0.4,1.6-0.5,2.4
			c-0.7,0.7-1.4,1.4-2.2,2.2c-1.2,1.2-2.5,2.4-3.9,3.5c-1.4,1.1-2.8,2.1-4.2,2.9c-1.4,0.8-2.8,1.3-4.2,1.6c-1.4,0.3-2.7,0.2-3.9-0.3
			c0.3,0,0.8-0.2,1.3-0.6c0.5-0.4,1-1,1.6-1.6c0.5-0.7,1.1-1.4,1.6-2.2c0.5-0.8,0.9-1.6,1.3-2.3c0.8-1.6,1.7-3.5,2.6-5.7
			c0.9-2.1,1.9-4.3,2.8-6.4c0.9-2.1,1.8-4.1,2.5-6c0.8-1.9,1.4-3.5,1.9-4.7c0.2-0.5-0.1-1.1-0.7-1.9c-0.6-0.7-1.5-1.5-2.6-2.3
			c-1.1-0.8-2.4-1.5-3.8-2.2c-1.4-0.7-2.7-1.3-4-1.7c-1.3-0.5-2.4-0.7-3.3-0.8c-0.9-0.1-1.5,0.1-1.8,0.6c-1.3,1.8-2.7,3.8-4.1,6.1
			c-1.4,2.3-2.9,4.8-4.4,7.3c-1.5,2.6-3,5.1-4.5,7.7c-1.5,2.6-3,4.9-4.4,7c-1.4,2.1-2.8,4-4.2,5.5c-1.3,1.5-2.6,2.6-3.7,3.1
			c0.6-0.8,1.2-1.6,1.6-2.3c0.5-0.7,1.1-1.9,1.9-3.4c0.7-1.5,1.6-3.3,2.5-5.5c1-2.2,1.9-4.4,2.8-6.7c0.9-2.3,1.8-4.4,2.7-6.4
			c0.8-2,1.5-3.4,2-4.4c0.3-0.6,0.2-1.2-0.3-2c-0.6-0.7-1.4-1.5-2.4-2.2c-1-0.7-2.2-1.4-3.5-2.1c-1.3-0.7-2.6-1.2-3.8-1.6
			c-1.2-0.4-2.2-0.6-3.1-0.7c-0.9-0.1-1.4,0.1-1.6,0.6c-0.6,1.4-1.3,3.2-2.1,5.5c-0.8,2.3-1.7,4.9-2.7,7.7c-0.9,2.8-1.9,5.7-2.8,8.7
			c-0.6,2-1.2,3.8-1.7,5.7c-0.7,0.7-1.5,1.5-2.3,2.3c-1.2,1.2-2.5,2.4-3.9,3.5c-1.4,1.1-2.8,2.1-4.2,2.9c-1.4,0.8-2.8,1.3-4.2,1.6
			c-1.4,0.3-2.7,0.2-3.9-0.3c0.3,0,0.8-0.2,1.3-0.6c0.5-0.4,1-1,1.6-1.6c0.5-0.7,1.1-1.4,1.6-2.2c0.5-0.8,0.9-1.6,1.3-2.3
			c0.8-1.6,1.7-3.5,2.6-5.7c1-2.1,1.9-4.3,2.8-6.4c0.9-2.1,1.7-4.1,2.5-6c0.8-1.9,1.4-3.5,1.9-4.7c0.2-0.5-0.1-1.1-0.7-1.9
			c-0.6-0.7-1.5-1.5-2.6-2.3c-1.1-0.8-2.4-1.5-3.8-2.2c-1.4-0.7-2.7-1.3-4-1.7c-1.3-0.5-2.4-0.7-3.4-0.8c-1-0.1-1.6,0.1-1.8,0.6
			c-0.8,1.7-1.8,4.2-3.1,7.8c-1.1-1.1-2.4-2.1-3.8-3.1c-1.4-1-2.8-1.9-4.2-2.7c-1.4-0.8-2.8-1.4-4.3-1.9c-1.4-0.5-2.7-0.7-3.9-0.7
			c-2.1,0-4.2,0.8-6.2,2.4c-2,1.6-3.9,3.7-5.7,6.2c-1.7,2.5-3.3,5.3-4.6,8.4c-1.4,3.1-2.4,6.2-3.2,9.2c-0.2,0.7-0.3,1.5-0.5,2.2
			c-0.8,0.8-1.7,1.6-2.6,2.4c-1.4,1.2-2.8,2.4-4.3,3.5c-1.5,1.1-3.1,2.1-4.6,2.9c-1.6,0.8-3.1,1.3-4.6,1.6c-1.5,0.3-2.8,0.2-4-0.3
			c0.3,0,0.8-0.2,1.3-0.6c0.5-0.4,1.1-0.9,1.6-1.6c0.5-0.7,1.1-1.4,1.6-2.2c0.5-0.8,0.9-1.6,1.3-2.3c0.7-1.8,1.7-4.1,2.8-6.9
			c1.2-2.8,2.4-5.7,3.7-8.9c1.3-3.2,2.6-6.4,4-9.7c1.4-3.3,2.7-6.4,3.9-9.3c1.2-2.9,2.2-5.4,3.2-7.6c0.9-2.2,1.6-3.8,2-4.7
			c0.3-0.6,0.1-1.3-0.5-2.2c-0.6-0.9-1.5-1.8-2.6-2.7c-1.1-0.9-2.3-1.8-3.6-2.7c-1.3-0.9-2.6-1.6-3.8-2.2c-1.2-0.6-2.3-1-3.2-1.1
			c-0.9-0.2-1.4-0.1-1.6,0.3c-0.6,1.6-1.5,4-2.8,7.1c-1.2,3.2-2.6,6.8-4,10.8c-1.5,4.1-3,8.4-4.6,13c-1.6,4.6-3,9-4.4,13.4
			c-1.4,4.3-2.5,8.4-3.5,12.2c-1,3.8-1.6,6.8-1.9,9.2c-0.1,0.6,0.2,1.4,0.8,2.2c0.6,0.8,1.4,1.7,2.4,2.6c1,0.9,2.1,1.8,3.3,2.6
			c1.2,0.9,2.4,1.7,3.6,2.3c1.2,0.7,2.3,1.2,3.3,1.7c1,0.4,1.7,0.6,2.3,0.6c1.1,0,2.4-0.4,3.9-1.1c1.5-0.7,3.1-1.6,4.6-2.8
			c1.6-1.1,3.2-2.4,4.8-3.8c1-0.8,1.9-1.7,2.8-2.5c0.7,1.2,1.8,2.3,3.3,3.4c1.7,1.3,3.6,2.4,5.5,3.4c1.9,1,3.7,1.8,5.5,2.4
			c1.7,0.6,2.9,0.9,3.6,0.9c0.8,0,1.6-0.4,2.5-1.2c0.9-0.8,1.7-1.8,2.6-3.1c0.9-1.3,1.8-2.7,2.6-4.4c0.9-1.6,1.7-3.4,2.5-5.1
			c-0.1,0.5-0.1,0.9-0.1,1.3c0,0.4,0,0.8,0,1.1c0,0.9,0.7,2,2.1,3.3c1.4,1.3,3,2.5,4.9,3.7c1.8,1.2,3.7,2.2,5.5,3
			c1.8,0.8,3.1,1.2,3.9,1.2c1.1,0,2.3-0.4,3.7-1.1c1.4-0.7,2.9-1.6,4.3-2.8c1.2-0.9,2.4-1.9,3.5-3c0.1,0.1,0.2,0.2,0.3,0.3
			c1,0.9,2.1,1.9,3.5,2.8c1.3,1,2.7,1.8,4.1,2.5c1.4,0.7,2.5,1.1,3.4,1.1c0.1,0,0.2-0.1,0.3-0.3l0.1,0c0.8-1.5,1.9-3.2,3.3-5.3
			c1.3-2,2.8-4.2,4.4-6.5c1.6-2.3,3.3-4.7,5.1-7.1c1.8-2.4,3.6-4.8,5.3-7c-0.8,3.1-1.4,5.9-1.9,8.5c-0.5,2.6-0.8,4.7-0.8,6.4
			c0,0.9,0.7,2,2.1,3.3c1.4,1.3,3,2.6,4.9,3.7c1.8,1.2,3.7,2.2,5.5,3c1.8,0.8,3.1,1.2,3.9,1.2c1.1,0,2.3-0.4,3.7-1.1
			c1.4-0.7,2.9-1.6,4.3-2.8c1.5-1.1,2.9-2.4,4.4-3.8c0.8-0.7,1.5-1.5,2.2-2.2c0.7,1,1.7,2,3,3c1.7,1.3,3.6,2.4,5.5,3.4
			c1.9,1,3.7,1.8,5.5,2.5c1.7,0.6,2.9,0.9,3.6,0.9c0.7,0,1.4-0.3,2.2-0.9c0.8-0.6,1.5-1.5,2.3-2.5c0.8-1,1.5-2.2,2.3-3.6
			c0.8-1.4,1.5-2.8,2.2-4.4c0.2,0.7,0.6,1.4,1.3,2.2c0.7,0.8,1.6,1.6,2.5,2.5c1,0.9,2,1.7,3.2,2.5c1.2,0.8,2.3,1.5,3.4,2.1
			c1.1,0.6,2.1,1.1,3,1.5c0.9,0.4,1.7,0.5,2.2,0.5c1.1,0,2.4-0.4,3.9-1.1c1.5-0.7,3.1-1.6,4.6-2.8c1.6-1.1,3.2-2.4,4.8-3.8
			c1.6-1.4,3-2.8,4.4-4.2c1.3-1.4,2.5-2.7,3.4-3.9c1-1.2,1.6-2.2,2-2.9C349.5,116.2,349.5,115.3,349.2,114.3z M201.1,104
			c-0.9,1.8-1.8,3.7-2.8,5.7c-1,2-2,3.9-3.1,5.8c-1.1,1.9-2.2,3.6-3.1,5c-1,1.4-1.9,2.4-2.8,3.2c-0.9,0.7-1.6,0.8-2.1,0.4
			c-0.5-0.3-0.7-1.2-0.7-2.7c0-1.5,0.2-3.2,0.6-5.2c0.4-2,1-4.1,1.8-6.3c0.8-2.2,1.7-4.3,2.8-6.1c1.1-1.9,2.3-3.4,3.7-4.7
			c1.3-1.2,2.8-1.8,4.3-1.8c0.8,0,1.5,0.2,2.1,0.7c0.6,0.5,1.1,1,1.6,1.6C202.7,100.7,202,102.2,201.1,104z M316,101.3
			c-0.7,1.4-1.4,3-2.3,4.8c-0.8,1.8-1.8,3.5-2.7,5.3c-1,1.8-1.9,3.5-2.9,5.2c-1,1.7-1.9,3.1-2.8,4.3c-0.9,1.2-1.7,2.1-2.5,2.6
			c-0.8,0.6-1.4,0.7-1.9,0.3c-0.5-0.3-0.7-1.2-0.7-2.7c0-1.5,0.2-3.2,0.6-5.2c0.4-2,1-4.1,1.8-6.3c0.8-2.2,1.7-4.3,2.8-6.1
			c1.1-1.9,2.3-3.4,3.7-4.7c1.3-1.2,2.8-1.8,4.3-1.8c0.7,0,1.3,0.2,1.9,0.6c0.6,0.4,1.1,0.9,1.5,1.4L316,101.3z"/>
	</g>
</g>
<g>
	<g>
		<path class="st1" d="M141.3,63.3c14.2-8.4,22-20.3,22-20.3s-17.6,7.9-31.2,0.4c-11.4-6.3-21.8-3.8-21.8-3.8l-11,27.7
			C117.9,60.4,127.2,71.6,141.3,63.3z"/>
	</g>
</g>
</svg>
