<?xml version="1.0" encoding="utf-8"?>
<!-- Generator: Adobe Illustrator 21.0.0, SVG Export Plug-In . SVG Version: 6.00 Build 0)  -->
<svg version="1.1" id="Layer_1" xmlns="http://www.w3.org/2000/svg" xmlns:xlink="http://www.w3.org/1999/xlink" x="0px" y="0px"
	 viewBox="0 0 50 50" style="enable-background:new 0 0 50 50;" xml:space="preserve">
<style type="text/css">
	.st0{fill:#2D2F3E;}
	.st1{fill:#FFFFFF;}
</style>
<title>LogoCircle</title>
<circle class="st0" cx="25" cy="25" r="25"/>
<g>
	<path class="st1" d="M12.8,33.5h2.6c0.7,0,1.3-0.4,1.6-1l2.8-6.3L18,22L12.8,33.5z"/>
	<path class="st1" d="M17.9,16.5l7,15.7c0.4,0.8,1.2,1.4,2.1,1.4h2.2l-7.7-17H17.9z"/>
	<path class="st1" d="M36.2,21.6c0-2.8-2.3-5-5-5h-7.1l7.1,15.7c0.4,0.8,1.2,1.4,2.1,1.4h2.2l-3.2-7C34.6,26,36.2,23.9,36.2,21.6z"
		/>
</g>
</svg>
