<?xml version="1.0" encoding="utf-8"?>
<!-- Generator: Adobe Illustrator 21.0.0, SVG Export Plug-In . SVG Version: 6.00 Build 0)  -->
<svg version="1.1" id="Layer_1" xmlns="http://www.w3.org/2000/svg" xmlns:xlink="http://www.w3.org/1999/xlink" x="0px" y="0px"
	 viewBox="0 0 427.9 288.5" style="enable-background:new 0 0 427.9 288.5;" xml:space="preserve">
<style type="text/css">
	.st0{fill:none;}
	.st1{fill:#FFFFFF;}
	.st2{fill:#A41E23;}
	.st3{fill:#0B4C80;}
</style>
<rect x="-938" y="-311" class="st0" width="864" height="864"/>
<g>
	<g>
		<path class="st1" d="M78.2,110.8h51.9c6.2,0,10,1.4,11.3,4.3c1,1.8,1.5,4.2,1.5,7.3v10.3c0,5.8-2,9.4-5.9,10.7
			c-1.5,0.4-3.2,0.6-4.9,0.6H128l10.9,8c0.2,0.1,0.4,0.1,0.6,0.1h6.2v14.4h-16.2c-3.2,0-6-1.3-8.3-3.9l-17.2-18.6h-0.6v8.2h6.7v14.4
			H78.2v-14.4h6.7v-27.2h-6.7V110.8z M103.5,124.9v9h14.6c2.6,0,3.9-0.8,3.9-2.5v-3.6c0-1.9-1.1-2.9-3.3-2.9H103.5z"/>
		<path class="st1" d="M165.2,110.8h25.9c4.2,0,6.8,1,7.9,3l19.4,38.3h7v14.3h-30.2v-14.3h4.7l-2.1-4.6h-19.4l-2.1,4.6h4.8v14.3
			h-29.7v-14.3h6.5l15.7-27.1h-8.6V110.8z M182.9,138.3h10.8l-5.2-11.4L182.9,138.3z"/>
		<path class="st1" d="M217.8,110.9h31.3v14.2h-3.2l5.9,10l5.7-10h-3v-14.2h31.4v14.2h-6.8l-15.9,27.1h4.6v14.3h-32l0-14.3h4.5
			l-16.5-27.1h-6V110.9z"/>
		<path class="st1" d="M293,110.9h56.4v17.6h-13.2V125h-18.4v9.1h17.6v10.2h-17.6v7.9h18.4v-4.8h13.2v19.1H293v-14.3h6.5V125H293
			V110.9z"/>
	</g>
	<polygon class="st1" points="279.1,34.1 213.7,7.2 149.2,34.1 149.2,28.9 213.7,2 279.1,28.9 	"/>
	<g>
		<path class="st2" d="M152,177.2H78.3v4.5h54.8c2.3,0,4.6-0.2,6.8-0.7c3.9-0.8,8-1.6,12.1-2.3C153,178.6,152.9,177.2,152,177.2z"/>
		<path class="st2" d="M278.5,178.7c4.1,0.7,8.2,1.4,12.1,2.3c2.3,0.5,4.5,0.7,6.8,0.7h52v-4.5h-70.8
			C277.6,177.2,277.5,178.6,278.5,178.7z"/>
	</g>
	<path class="st3" d="M332.5,226.3l17-13.1c-6.6-3.1-14-6-22-8.6l2.2-6.9c-28.2-11.5-69-18.8-114.2-18.8c-47.7,0-90.3,8-118.6,20.6
		l2.1,5.5c-7.4,2.5-14.3,5.2-20.5,8.1l17,13.1l-6.1,23.3l0,0c9.1-3.6,19.3-6.9,30.4-9.7l-2.1-6.3c26.6-8.1,60.7-13,97.9-13
		c36,0,69,4.6,95.3,12.2l-2.4,7.1c11.1,2.8,21.3,6.1,30.4,9.7l0,0L332.5,226.3z"/>
	<g>
		<g>
			<path class="st1" d="M131.6,217c-0.9-0.5-1.4-0.8-2.3-1.4c-1.1-4.4-1.7-6.6-2.8-11c-0.8,0.2-1.2,0.3-1.9,0.5
				c-0.3-1.1-0.4-1.6-0.7-2.7c1.9-0.5,2.9-0.7,4.9-1.2c1.2,4.8,1.7,7.1,2.9,11.9c0.5,0.3,0.7,0.4,1.2,0.7c0.4-0.1,0.6-0.1,0.9-0.2
				c0.9-1.4,1.3-2,2.2-3.4c-0.9-4-1.4-6.1-2.3-10.1c1.2-0.3,1.8-0.4,2.9-0.7c0.9,4,1.3,6.1,2.2,10.1c1.4,0.9,2.1,1.3,3.4,2.2
				c0.4-0.1,0.6-0.1,0.9-0.2c0.3-0.4,0.5-0.7,0.8-1.1c-1-4.8-1.5-7.2-2.5-12c2-0.4,2.9-0.6,4.9-1c0.2,1.1,0.3,1.7,0.5,2.8
				c-0.8,0.1-1.2,0.2-1.9,0.4c0.9,4.4,1.3,6.7,2.2,11.1c-0.6,0.9-0.9,1.3-1.5,2.2c-1.5,0.3-2.2,0.5-3.7,0.8c-1.6-1-2.4-1.5-4-2.5
				c-1,1.6-1.5,2.4-2.5,4C133.9,216.4,133.1,216.6,131.6,217z"/>
			<path class="st1" d="M152,212.6c-0.2-1.1-0.3-1.7-0.5-2.8c0.8-0.1,1.1-0.2,1.9-0.3c-0.7-4.1-1.1-6.1-1.8-10.2
				c-0.8,0.1-1.2,0.2-1.9,0.4c-0.2-1.1-0.3-1.7-0.5-2.8c2.7-0.5,4.1-0.7,6.9-1.2c0.2,1.1,0.3,1.7,0.5,2.8c-0.8,0.1-1.2,0.2-2,0.3
				c0.3,1.5,0.4,2.2,0.6,3.7c2.7-0.5,4.1-0.7,6.8-1.1c-0.2-1.5-0.3-2.2-0.6-3.7c-0.8,0.1-1.2,0.2-2,0.3c-0.2-1.1-0.3-1.7-0.4-2.8
				c2.8-0.4,4.1-0.6,6.9-1c0.2,1.1,0.2,1.7,0.4,2.8c-0.8,0.1-1.2,0.2-2,0.3c0.6,4.1,0.9,6.2,1.4,10.3c0.8-0.1,1.1-0.2,1.9-0.3
				c0.2,1.1,0.2,1.7,0.4,2.8c-2.6,0.4-4,0.5-6.6,1c-0.2-1.1-0.3-1.7-0.4-2.8c0.8-0.1,1.1-0.2,1.9-0.3c-0.2-1.5-0.3-2.2-0.6-3.7
				c-2.7,0.4-4,0.6-6.7,1.1c0.3,1.5,0.4,2.2,0.6,3.7c0.8-0.1,1.1-0.2,1.9-0.3c0.2,1.1,0.3,1.7,0.5,2.8
				C155.9,211.9,154.6,212.2,152,212.6z"/>
			<path class="st1" d="M170.6,209.7c-0.1-1.1-0.2-1.7-0.4-2.8c0.8-0.1,1.1-0.1,1.9-0.2c-0.5-4.1-0.8-6.2-1.3-10.3
				c-0.8,0.1-1.2,0.1-2,0.2c-0.1-1.1-0.2-1.7-0.4-2.8c2.8-0.4,4.1-0.5,6.9-0.8c0.1,1.1,0.2,1.7,0.3,2.8c-0.8,0.1-1.2,0.1-2,0.2
				c0.5,4.1,0.7,6.2,1.2,10.3c0.8-0.1,1.1-0.1,1.9-0.2c0.1,1.1,0.2,1.7,0.3,2.8C174.6,209.2,173.2,209.4,170.6,209.7z"/>
			<path class="st1" d="M182.7,208.4c-0.1-1.1-0.2-1.7-0.3-2.8c0.8-0.1,1.1-0.1,1.9-0.2c-0.4-4.1-0.5-6.2-0.9-10.3
				c-0.8,0.1-1.2,0.1-2,0.2c0.1,0.8,0.1,1.1,0.2,1.9c-1.2,0.1-1.8,0.2-2.9,0.3c-0.2-1.9-0.3-2.8-0.5-4.7c4.3-0.4,8.6-0.8,12.9-1.1
				c0.1,1.9,0.2,2.8,0.3,4.7c-1.2,0.1-1.8,0.1-2.9,0.2c-0.1-0.8-0.1-1.1-0.1-1.9c-0.8,0.1-1.2,0.1-2,0.1c0.3,4.1,0.5,6.2,0.8,10.3
				c0.8-0.1,1.1-0.1,1.9-0.1c0.1,1.1,0.1,1.7,0.2,2.8C186.7,208.1,185.4,208.2,182.7,208.4z"/>
			<path class="st1" d="M194.8,207.5c-0.1-1.1-0.1-1.7-0.2-2.8c0.8,0,1.1-0.1,1.9-0.1c-0.2-4.1-0.3-6.2-0.5-10.3
				c-0.8,0-1.2,0.1-2,0.1c-0.1-1.1-0.1-1.7-0.2-2.8c4.6-0.3,9.3-0.5,13.9-0.5c0,1.9,0.1,2.8,0.1,4.7c-1.2,0-1.8,0-2.9,0.1
				c0-0.8,0-1.1-0.1-1.9c-2.4,0.1-3.5,0.1-5.9,0.2c0.1,1.5,0.1,2.3,0.2,3.8c1.9-0.1,2.9-0.1,4.9-0.2c0,1.1,0.1,1.7,0.1,2.8
				c-1.9,0.1-2.9,0.1-4.8,0.2c0.1,1.5,0.1,2.3,0.2,3.8c2.3-0.1,3.4-0.1,5.7-0.2c0-0.8,0-1.1-0.1-1.9c1.2,0,1.7,0,2.9-0.1
				c0,1.9,0.1,2.8,0.1,4.7C203.7,207.1,199.2,207.2,194.8,207.5z"/>
			<path class="st1" d="M219.1,206.9c-0.8-0.8-1.1-1.1-1.9-1.9c0-1.9,0-2.8,0-4.7c0.6-0.6,0.9-0.8,1.5-1.4c-0.6-0.6-0.9-0.9-1.4-1.4
				c0-1.9,0-2.8,0-4.7c0.8-0.7,1.2-1.1,2-1.9c2.8,0,4.2,0.1,6.9,0.1c0,1.1-0.1,1.7-0.1,2.8c-2-0.1-3-0.1-4.9-0.1
				c-0.4,0.4-0.6,0.6-1,0.9c0,0.8,0,1.1,0,1.9c0.4,0.4,0.6,0.6,1,1c4.3,0.1,6.4,0.1,10.7,0.3c-0.1,1.1-0.1,1.7-0.1,2.8
				c-1.2-0.1-1.7-0.1-2.9-0.1c-0.1,2.6-0.2,4-0.3,6.6C224.8,207,222.9,207,219.1,206.9z M225.9,204.3c0-1.5,0.1-2.3,0.1-3.8
				c-1.9-0.1-2.9-0.1-4.8-0.1c-0.4,0.4-0.6,0.6-1,0.9c0,0.8,0,1.1,0,1.9c0.4,0.4,0.6,0.6,0.9,1C223,204.2,223.9,204.2,225.9,204.3z"
				/>
			<path class="st1" d="M239.6,207.8c0.1-1.1,0.1-1.7,0.2-2.8c0.8,0.1,1.1,0.1,1.9,0.1c0.3-4.1,0.5-6.2,0.8-10.3
				c-0.8-0.1-1.2-0.1-2-0.1c0.1-1.1,0.1-1.7,0.2-2.8c4.8,0.3,7.1,0.5,11.9,1c0.7,0.8,1.1,1.2,1.8,2.1c-0.2,1.9-0.3,2.8-0.5,4.7
				c-0.6,0.5-1,0.7-1.6,1.2c0.5,0.6,0.8,0.9,1.3,1.6c-0.2,1.9-0.3,2.8-0.5,4.7c-0.8,0.7-1.3,1-2.1,1.7
				C246.4,208.3,244.2,208.1,239.6,207.8z M250,199.2c0.4-0.3,0.6-0.5,1.1-0.8c0.1-0.7,0.1-1.1,0.2-1.9c-0.4-0.4-0.5-0.6-0.9-1
				c-2-0.2-2.9-0.3-4.9-0.4c-0.1,1.5-0.2,2.3-0.3,3.8C247.1,198.9,248.1,199,250,199.2z M249.4,205.8c0.4-0.3,0.6-0.5,1-0.8
				c0.1-0.7,0.1-1.1,0.2-1.9c-0.3-0.4-0.5-0.6-0.9-1c-1.9-0.2-2.9-0.3-4.8-0.4c-0.1,1.5-0.2,2.3-0.3,3.8
				C246.5,205.5,247.4,205.6,249.4,205.8z"/>
			<path class="st1" d="M255.5,209.3c0.1-1.1,0.2-1.7,0.3-2.8c0.8,0.1,1.1,0.1,1.9,0.2c0.5-4.1,0.8-6.2,1.3-10.3
				c-0.8-0.1-1.2-0.1-2-0.2c0.1-1.1,0.2-1.7,0.3-2.8c2.8,0.3,4.1,0.5,6.9,0.9c-0.2,1.1-0.2,1.7-0.4,2.8c-0.8-0.1-1.2-0.2-2-0.3
				c-0.5,4.1-0.8,6.2-1.3,10.3c1.9,0.2,2.9,0.4,4.8,0.7c0.2-1.1,0.2-1.7,0.4-2.8c1.1,0.2,1.7,0.3,2.9,0.4c-0.3,2.2-0.5,3.4-0.9,5.6
				C263.7,210.3,259.6,209.8,255.5,209.3z"/>
			<path class="st1" d="M274.2,212c-0.6-0.9-0.9-1.3-1.6-2.2c0.7-4.5,1.1-6.7,1.9-11.1c-0.8-0.1-1.2-0.2-2-0.3
				c0.2-1.1,0.3-1.7,0.4-2.8c2.8,0.4,4.1,0.7,6.9,1.2c-0.2,1.1-0.3,1.7-0.5,2.8c-0.8-0.1-1.2-0.2-1.9-0.3c-0.6,3.7-1,5.6-1.6,9.3
				c0.3,0.4,0.5,0.7,0.8,1.1c1.9,0.3,2.8,0.5,4.7,0.9c0.4-0.3,0.7-0.4,1.1-0.7c0.7-3.7,1.1-5.5,1.8-9.2c-0.8-0.2-1.2-0.2-1.9-0.4
				c0.2-1.1,0.3-1.7,0.5-2.8c2.7,0.5,4.1,0.8,6.8,1.4c-0.2,1.1-0.3,1.7-0.6,2.8c-0.8-0.2-1.2-0.2-1.9-0.4c-0.9,4.4-1.3,6.6-2.2,11.1
				c-0.9,0.6-1.4,0.9-2.2,1.5C279.2,212.9,277.5,212.5,274.2,212z"/>
			<path class="st1" d="M289,214.8c0.2-1.1,0.4-1.7,0.6-2.8c0.8,0.2,1.1,0.2,1.9,0.4c0.9-4,1.3-6.1,2.2-10.1
				c-0.8-0.2-1.2-0.3-1.9-0.4c0.2-1.1,0.4-1.7,0.6-2.8c4.6,1,9.1,2.1,13.6,3.2c-0.5,1.8-0.7,2.7-1.2,4.6c-1.1-0.3-1.7-0.4-2.9-0.7
				c0.2-0.7,0.3-1.1,0.5-1.8c-2.3-0.6-3.5-0.9-5.8-1.4c-0.3,1.5-0.5,2.2-0.8,3.7c1.9,0.4,2.9,0.7,4.8,1.1c-0.3,1.1-0.4,1.6-0.7,2.7
				c-1.9-0.5-2.8-0.7-4.7-1.1c-0.3,1.5-0.5,2.2-0.8,3.7c2.3,0.5,3.4,0.8,5.6,1.3c0.2-0.7,0.3-1.1,0.5-1.8c1.1,0.3,1.7,0.4,2.8,0.7
				c-0.5,1.8-0.7,2.7-1.2,4.6C297.7,216.8,293.3,215.8,289,214.8z"/>
		</g>
	</g>
	<g>
		<g>
			<path class="st1" d="M165.9,233.3c1-1.1,2.3-2.2,3.5-2.3c1.1-0.1,1.7,0.6,1.8,1.5c0.1,0.6-0.1,1.3-0.4,2.2
				c-1,3.4-1.6,5.1-2.6,8.5c-0.2,0.9-0.2,1.5,0.8,1.9c-0.2,0.8-0.4,1.2-0.6,2c-2.6-0.6-3.1-2.2-2.6-4.1c0.8-2.8,1.2-4.2,2.1-7.1
				c0.3-1,0.6-1.8,0.5-2.2c0-0.2-0.2-0.3-0.4-0.3c-0.6,0.1-2.1,1.4-2.9,2.5c-0.9,3.2-1.4,4.9-2.3,8.1c-1,0.1-1.5,0.2-2.5,0.3
				c1.1-4.2,1.7-6.3,2.9-10.4c-2.4,1.1-4.7,1.9-4.5,3.2c0.1,0.8,0.8,0.9,1.2,0.8c0.1,0.8,0.1,1.2,0.2,2c-2,0.2-3.4-0.8-3.6-2.5
				c-0.4-3.2,3.8-4.3,7.4-6.1C164.7,232.1,165.1,232.5,165.9,233.3z"/>
			<path class="st1" d="M181.3,238.4c-0.8,1.5-2.1,2.7-3.8,2.7c-0.7,1-1.8,1.7-3.2,1.8c-2,0.2-3.2-0.9-3.3-2.7
				c-0.2-2.1,1.1-5.8,4.5-6c2-0.2,3.1,0.9,3.3,2.7c0.1,0.9-0.1,1.9-0.5,2.9c0.8-0.2,1.5-0.8,2.1-2
				C180.7,237.8,181.1,238.1,181.3,238.4z M175.2,240.4c-0.2-0.2-0.4-0.5-0.4-0.9c-0.1-0.7,0.5-1.3,1.3-1.4c0.2-0.6,0.3-1.2,0.2-1.6
				c0-0.6-0.4-0.8-0.7-0.8c-1.3,0.1-2.2,3.5-2.1,4.7c0,0.5,0.3,0.8,0.7,0.8C174.5,241.2,174.9,240.9,175.2,240.4z"/>
			<path class="st1" d="M189.5,237.8c-1,1.9-2.6,3.1-4.7,2.3c0,0-0.5,0.6-2.7,1.9c-1,0.1-1.5,0.1-2.5,0.2c0.5-3.3,0.7-5,1.2-8.3
				c1-0.1,1.5-0.1,2.5-0.2c-0.4,2.5-0.6,3.8-1,6.3c1.5-1.3,3.1-3.3,3.6-6.5c0.8-0.1,1.2-0.2,2.1-0.3c-0.1,1.2-0.6,3.4-2.3,5.8
				c0.9,0.3,1.9,0,2.8-1.8C188.9,237.3,189.4,237.5,189.5,237.8z"/>
			<path class="st1" d="M197.8,237.5c-1,1.9-2.9,4.1-6,4.2c-2.2,0.1-3.4-0.9-3.4-2.6c-0.1-2.1,1.3-5.9,4.8-6.1
				c1.8-0.1,3.4,1,2.5,3.4c-0.6,1.5-1.9,2.4-4.9,2.2c0,0-0.4,1.7,1.7,1.6c1.6-0.1,3.3-1.2,4.4-3.2
				C197.2,236.9,197.6,237.2,197.8,237.5z M191.2,237.2c1.5,0.2,2-0.5,2.2-1.3c0.2-0.5,0.3-0.9-0.3-0.9
				C191.9,235.1,191.2,237.2,191.2,237.2z"/>
			<path class="st1" d="M211.8,237.2c-1.3,2.2-2.8,4-4.7,4c-1.7,0-2.4-1.2-1.3-4.1c0.1-0.2,0.1-0.4,0.2-0.6c0.3-0.7,0.5-1.4,0.5-1.6
				c0-0.2-0.2-0.3-0.4-0.3c-0.4,0-1.1,0.4-1.8,1.1c-0.8,2.1-1.2,3.2-2,5.3c-1,0-1.5,0-2.6,0.1c0.5-1.3,1.2-3.2,1.7-4.5
				c0.3-0.7,0.5-1.4,0.5-1.6c0-0.2-0.2-0.3-0.4-0.3c-0.4,0-1.1,0.4-1.8,1.2c-0.8,2.1-1.2,3.2-2,5.3c-1,0-1.5,0.1-2.5,0.1
				c1.2-3.3,1.8-5,3.1-8.3c1,0,1.6,0,2.6-0.1c-0.1,0.3-0.2,0.5-0.3,0.8c0.1-0.1,1.3-1.1,2.6-1.1c1,0,1.6,0.5,1.6,1.3
				c0.4-0.4,1.6-1.4,3-1.4c1,0,1.6,0.5,1.6,1.4c0,0.4-0.2,1-0.5,1.8c-0.3,0.8-0.5,1.1-0.8,1.9c-0.7,1.8-0.4,2-0.1,2
				c0.6,0,1.7-1.1,2.9-3.1C211.3,236.6,211.7,236.9,211.8,237.2z"/>
			<path class="st1" d="M220.8,237.3c-0.8,1.4-2,2.5-4.3,2.5c-0.8,0.8-1.9,1.4-3.3,1.4c-2.5,0-3.5-1.8-2-5.4
				c0.1-0.2,2.5-6.1,2.5-6.1c1,0,1.6,0,2.6,0c-0.7,1.6-1,2.3-1.7,3.9c0,0,0.8-1,2.1-1c1.2,0,1.9,0.8,1.9,1.9c0,0.7-0.4,2.6-1.4,4.2
				c1.3-0.2,2-1.1,2.5-2C220.2,236.7,220.6,237,220.8,237.3z M214.3,239.2c-0.5-0.3-1-0.8-1.3-1.4c-0.2,0.8-0.3,1.8,0.4,1.8
				C213.7,239.6,214,239.4,214.3,239.2z M213.8,236.5c0,0.8,0.4,1.4,1.1,1.8c0.6-1.1,1.1-2.5,1.1-2.9c0-0.3-0.2-0.7-0.7-0.7
				C214.8,234.6,213.8,235.3,213.8,236.5z"/>
			<path class="st1" d="M229,237.5c-1.2,1.9-3.2,3.9-6.3,3.8c-2.2,0-3.3-1.1-3.3-2.9c0-2.1,1.7-5.8,5.2-5.7c1.8,0,3.4,1.3,2.3,3.5
				c-0.7,1.4-2,2.3-5,1.9c0,0-0.5,1.6,1.5,1.7c1.6,0,3.4-1,4.6-2.9C228.5,236.9,228.9,237.2,229,237.5z M222.4,236.7
				c1.5,0.3,2-0.4,2.3-1.1c0.2-0.5,0.3-0.9-0.2-0.9C223.4,234.7,222.4,236.7,222.4,236.7z"/>
			<path class="st1" d="M228.1,236.8c0.4-0.6,0.9-1.5,1.4-2.5c-0.3-0.3-0.5-0.6-0.5-1c0-0.8,0.9-1.6,1.6-1.8c0.4,0.2,0.6,0.4,1,0.6
				c-0.2,0.5-0.3,0.7-0.6,1.2c0.6,0.6,2.6,1.6,2.6,2.8c0,0.2-0.1,0.4-0.2,0.8c-0.2,0.4-0.3,0.7-0.5,1.1c-0.8,1.7-0.4,2-0.2,2
				c0.4,0,1.3-0.9,2.6-2.9c0.3,0,0.8,0.4,0.9,0.7c-1.4,2-2.7,3.8-4.5,3.8c-1.2-0.1-2.6-1-1.3-3.8c0.2-0.5,0.3-0.8,0.6-1.3
				c0.1-0.3,0.2-0.5,0.2-0.5c0-0.3-0.3-0.6-0.8-1c-0.5,1-0.9,1.7-1.4,2.5C228.7,237.5,228.3,237.2,228.1,236.8z"/>
			<path class="st1" d="M242.2,242c-1-0.1-1.5-0.1-2.5-0.2c1.2-2.6,1.9-3.9,3.2-6.5c-0.8,0.7-1.7,1.5-2.6,2.3
				c-0.4-0.5-0.6-0.7-0.9-1.2c3.6-2.9,5.8-5.7,5.8-5.7c1,0.1,1.5,0.1,2.5,0.2C245.4,235.3,244.4,237.5,242.2,242z"/>
			<path class="st1" d="M249.3,242.5c-1-0.1-1.5-0.1-2.5-0.2c1.3-2.6,1.9-3.9,3.3-6.4c-0.8,0.7-1.7,1.5-2.6,2.2
				c-0.4-0.5-0.5-0.7-0.9-1.2c3.6-2.9,5.8-5.6,5.8-5.6c1,0.1,1.5,0.1,2.5,0.2C252.6,235.9,251.5,238.1,249.3,242.5z"/>
			<path class="st1" d="M259.6,239.7c-1.4,1.9-3.2,3.7-5.2,3.5c-1.6-0.1-2.5-1.4-1.1-4.1c0.9-1.7,1.3-2.5,2.2-4.2
				c-0.5-0.1-0.8-0.1-1.3-0.1c0.3-0.5,0.4-0.7,0.7-1.2c0.5,0,0.8,0.1,1.3,0.1c0.4-0.7,0.6-1.1,1-1.8c1,0.1,1.6,0.2,2.6,0.3
				c-0.4,0.7-0.6,1.1-1,1.8c0.5,0.1,0.8,0.1,1.3,0.1c-0.3,0.5-0.4,0.7-0.7,1.2c-0.5-0.1-0.8-0.1-1.3-0.1c-1,1.8-1.5,2.8-2.5,4.6
				c-0.9,1.7-0.6,2-0.2,2c0.8,0.1,2-0.9,3.3-2.7C259.1,239,259.5,239.4,259.6,239.7z"/>
			<path class="st1" d="M269,240.8c-1.6,2.1-3.3,3.6-5.2,3.4c-1.7-0.2-2.2-1.6-0.7-4.2c0.1-0.2,0.2-0.3,0.3-0.6
				c0.4-0.8,0.7-1.3,0.7-1.5c0-0.2-0.2-0.4-0.4-0.4c-0.4,0-1.2,0.2-1.9,0.9c-1.1,2-1.6,3-2.7,5c-1-0.1-1.5-0.2-2.5-0.3
				c2.3-4.3,3.5-6.5,5.9-10.8c1,0.1,1.6,0.2,2.6,0.3c-0.8,1.5-1.3,2.3-2.1,3.8c0,0,1.3-0.9,2.8-0.7c1,0.1,1.5,0.7,1.4,1.6
				c-0.1,0.4-0.3,0.9-0.7,1.7c-0.4,0.7-0.6,1.1-1,1.8c-1,1.7-0.7,2-0.4,2c0.6,0.1,1.9-0.9,3.3-2.7
				C268.5,240.1,268.9,240.4,269,240.8z"/>
		</g>
	</g>
	<path class="st3" d="M98.1,49.3L100,55c0.1,0.2,0.2,0.3,0.4,0.3h5.9c0.5,0,0.6,0.6,0.3,0.8l-4.8,3.5c-0.2,0.1-0.2,0.3-0.2,0.5
		l1.8,5.7c0.1,0.4-0.4,0.8-0.7,0.5L98,62.8c-0.2-0.1-0.4-0.1-0.5,0l-4.8,3.5c-0.4,0.3-0.9-0.1-0.7-0.5l1.8-5.7
		c0.1-0.2,0-0.4-0.2-0.5l-4.8-3.5c-0.4-0.3-0.2-0.8,0.3-0.8H95c0.2,0,0.4-0.1,0.4-0.3l1.8-5.7C97.4,48.9,98,48.9,98.1,49.3z"/>
	<path class="st3" d="M133.2,49.3L135,55c0.1,0.2,0.2,0.3,0.4,0.3h5.9c0.5,0,0.6,0.6,0.3,0.8l-4.8,3.5c-0.2,0.1-0.2,0.3-0.2,0.5
		l1.8,5.7c0.1,0.4-0.4,0.8-0.7,0.5l-4.8-3.5c-0.2-0.1-0.4-0.1-0.5,0l-4.8,3.5c-0.4,0.3-0.9-0.1-0.7-0.5l1.8-5.7
		c0.1-0.2,0-0.4-0.2-0.5l-4.8-3.5c-0.4-0.3-0.2-0.8,0.3-0.8h5.9c0.2,0,0.4-0.1,0.4-0.3l1.8-5.7C132.4,48.9,133.1,48.9,133.2,49.3z"
		/>
	<path class="st3" d="M246.2,29"/>
	<g>
		<polygon class="st2" points="267.8,77.9 267.8,34.5 246.2,25.6 246.2,82.4 247,82.4 267.8,82.4 349.4,82.4 349.4,77.9 		"/>
		<polygon class="st2" points="159.6,77.9 78.3,77.9 78.3,82.4 159.6,82.4 180,82.4 180.1,82.4 180.1,77.9 180.1,26.1 159.6,34.5 		
			"/>
	</g>
	<polygon class="st3" points="213.7,12.3 182.9,24.9 182.9,82.4 184.5,82.4 241.7,82.4 243.3,82.4 243.4,82.4 243.4,24.5 	"/>
	<path class="st1" d="M214.4,37l3.2,9.8c0.1,0.3,0.4,0.6,0.8,0.6h10.3c0.8,0,1.1,1,0.5,1.5l-8.3,6.1c-0.3,0.2-0.4,0.6-0.3,0.9
		l3.2,9.8c0.2,0.7-0.6,1.4-1.2,0.9l-8.3-6.1c-0.3-0.2-0.7-0.2-1,0l-8.3,6.1c-0.6,0.5-1.5-0.2-1.2-0.9l3.2-9.8c0.1-0.3,0-0.7-0.3-0.9
		l-8.3-6.1c-0.6-0.5-0.3-1.5,0.5-1.5h10.3c0.4,0,0.7-0.2,0.8-0.6l3.2-9.8C213.1,36.2,214.2,36.2,214.4,37z"/>
	<g>
		<path class="st1" d="M78.8,101v-1.5h1v-5.6h-1v-1.5h6.1l1,1v2.5l-0.8,0.8l0.8,0.8v2.5l-1,1H78.8z M83.9,95.9l0.5-0.5v-1l-0.5-0.5
			h-2.5v2H83.9z M83.9,99.5l0.5-0.5v-1l-0.5-0.5h-2.5v2H83.9z"/>
		<path class="st1" d="M91,97.4v2h1v1.5h-3.5v-1.5h1v-5.6h-1v-1.5h6.1l1,1v3L94,97.9h-0.5l2.5,2.5l-1,1L91,97.4z M93.5,96.4l0.5-0.5
			v-1.5l-0.5-0.5H91v2.5H93.5z"/>
		<path class="st1" d="M99.1,101l-1-1v-6.6l1-1h4.5l1,1v6.6l-1,1H99.1z M102.6,99.5l0.5-0.5v-4.5l-0.5-0.5h-2.5l-0.5,0.5v4.5
			l0.5,0.5H102.6z"/>
		<path class="st1" d="M108.7,101v-1.5h1v-5.6h-1v1h-1.5v-2.5h6.6v2.5h-1.5v-1h-1v5.6h1v1.5H108.7z"/>
		<path class="st1" d="M116.3,101v-1.5h1v-5.6h-1v-1.5h3.5v1.5h-1v2h3.5v-2h-1v-1.5h3.5v1.5h-1v5.6h1v1.5h-3.5v-1.5h1v-2h-3.5v2h1
			v1.5H116.3z"/>
		<path class="st1" d="M127.4,101v-1.5h1v-5.6h-1v-1.5h7.1v2.5H133v-1h-3v2h2.5v1.5H130v2h3v-1h1.5v2.5H127.4z"/>
		<path class="st1" d="M139.6,97.4v2h1v1.5h-3.5v-1.5h1v-5.6h-1v-1.5h6.1l1,1v3l-1.5,1.5h-0.5l2.5,2.5l-1,1L139.6,97.4z M142.1,96.4
			l0.5-0.5v-1.5l-0.5-0.5h-2.5v2.5H142.1z"/>
		<path class="st1" d="M148.2,101l-1.5-1.5l1-1l1,1h2.5l0.5-0.5v-1l-0.5-0.5h-3.5l-1-1v-2.5l1.5-1.5h3.5l1.5,1.5l-1,1l-1-1h-2.5
			l-0.5,0.5v1l0.5,0.5h3.5l1,1v2.5l-1.5,1.5H148.2z"/>
		<path class="st1" d="M162.4,101l-1-1v-6.1h-1v-1.5h3.5v1.5h-1v5.1l0.5,0.5h2.5l0.5-0.5v-5.1h-1v-1.5h3.5v1.5h-1v6.1l-1,1H162.4z"
			/>
		<path class="st1" d="M171.5,101v-1.5h1v-5.6h-1v-1.5h2.5l3.5,3.5v-3.5h2.5v1.5h-1v5.6h1v1.5h-3.5v-1.5h1v-1.5l-3.5-3.5v5.1h1v1.5
			H171.5z"/>
		<path class="st1" d="M182.7,101v-1.5h1v-5.6h-1v-1.5h6.1l1,1v6.6l-1,1H182.7z M187.7,99.5l0.5-0.5v-4.5l-0.5-0.5h-2.5v5.6H187.7z"
			/>
		<path class="st1" d="M192.3,101v-1.5h1v-5.6h-1v-1.5h7.1v2.5h-1.5v-1h-3v2h2.5v1.5h-2.5v2h3v-1h1.5v2.5H192.3z"/>
		<path class="st1" d="M204.4,97.4v2h1v1.5h-3.5v-1.5h1v-5.6h-1v-1.5h6.1l1,1v3l-1.5,1.5H207l2.5,2.5l-1,1L204.4,97.4z M207,96.4
			l0.5-0.5v-1.5l-0.5-0.5h-2.5v2.5H207z"/>
		<path class="st1" d="M217.1,101l-1-1v-6.6l1-1h5.1v2.5h-1.5v-1h-2.5l-0.5,0.5v4.5l0.5,0.5h2.5v-1h1.5v2.5H217.1z"/>
		<path class="st1" d="M224.7,101v-1.5h1v-5.6h-1v-1.5h3.5v1.5h-1v2h3.5v-2h-1v-1.5h3.5v1.5h-1v5.6h1v1.5h-3.5v-1.5h1v-2h-3.5v2h1
			v1.5H224.7z"/>
		<path class="st1" d="M238.4,97.4v2h1v1.5h-3.5v-1.5h1v-5.6h-1v-1.5h6.1l1,1v3l-1.5,1.5h-0.5l2.5,2.5l-1,1L238.4,97.4z M240.9,96.4
			l0.5-0.5v-1.5l-0.5-0.5h-2.5v2.5H240.9z"/>
		<path class="st1" d="M245.5,101v-1.5h1v-5.6h-1v-1.5h3.5v1.5h-1v5.6h1v1.5H245.5z"/>
		<path class="st1" d="M253.1,101l-1.5-1.5l1-1l1,1h2.5l0.5-0.5v-1l-0.5-0.5h-3.5l-1-1v-2.5l1.5-1.5h3.5l1.5,1.5l-1,1l-1-1h-2.5
			l-0.5,0.5v1l0.5,0.5h3.5l1,1v2.5l-1.5,1.5H253.1z"/>
		<path class="st1" d="M262.2,101v-1.5h1v-5.6h-1v1h-1.5v-2.5h6.6v2.5h-1.5v-1h-1v5.6h1v1.5H262.2z"/>
		<path class="st1" d="M274.4,101v-1.5h1v-5.6h-1v-1.5h6.1l1,1v3l-1.5,1.5h-3v1.5h1v1.5H274.4z M279.4,96.4l0.5-0.5v-1.5l-0.5-0.5
			h-2.5v2.5H279.4z"/>
		<path class="st1" d="M286.5,97.4v2h1v1.5H284v-1.5h1v-5.6h-1v-1.5h6.1l1,1v3l-1.5,1.5h-0.5l2.5,2.5l-1,1L286.5,97.4z M289.1,96.4
			l0.5-0.5v-1.5l-0.5-0.5h-2.5v2.5H289.1z"/>
		<path class="st1" d="M293.6,101v-1.5h1v-5.6h-1v-1.5h7.1v2.5h-1.5v-1h-3v2h2.5v1.5h-2.5v2h3v-1h1.5v2.5H293.6z"/>
		<path class="st1" d="M304.8,101l-1.5-1.5l1-1l1,1h2.5l0.5-0.5v-1l-0.5-0.5h-3.5l-1-1v-2.5l1.5-1.5h3.5l1.5,1.5l-1,1l-1-1h-2.5
			l-0.5,0.5v1l0.5,0.5h3.5l1,1v2.5l-1.5,1.5H304.8z"/>
		<path class="st1" d="M312.4,101v-1.5h1v-5.6h-1v-1.5h7.1v2.5h-1.5v-1h-3v2h2.5v1.5h-2.5v2h3v-1h1.5v2.5H312.4z"/>
		<path class="st1" d="M322,101v-1.5h1v-5.6h-1v-1.5h2.5l3.5,3.5v-3.5h2.5v1.5h-1v5.6h1v1.5h-3.5v-1.5h1v-1.5l-3.5-3.5v5.1h1v1.5
			H322z"/>
		<path class="st1" d="M334.7,101v-1.5h1v-5.6h-1v1h-1.5v-2.5h6.6v2.5h-1.5v-1h-1v5.6h1v1.5H334.7z"/>
		<path class="st1" d="M343.8,101l-1.5-1.5l1-1l1,1h2.5l0.5-0.5v-1l-0.5-0.5h-3.5l-1-1v-2.5l1.5-1.5h3.5l1.5,1.5l-1,1l-1-1h-2.5
			l-0.5,0.5v1l0.5,0.5h3.5l1,1v2.5l-1.5,1.5H343.8z"/>
	</g>
	<path class="st3" d="M295.6,49.3l1.8,5.7c0.1,0.2,0.2,0.3,0.4,0.3h5.9c0.5,0,0.6,0.6,0.3,0.8l-4.8,3.5c-0.2,0.1-0.2,0.3-0.2,0.5
		l1.8,5.7c0.1,0.4-0.4,0.8-0.7,0.5l-4.8-3.5c-0.2-0.1-0.4-0.1-0.5,0l-4.8,3.5c-0.4,0.3-0.9-0.1-0.7-0.5l1.8-5.7
		c0.1-0.2,0-0.4-0.2-0.5l-4.8-3.5c-0.4-0.3-0.2-0.8,0.3-0.8h5.9c0.2,0,0.4-0.1,0.4-0.3l1.8-5.7C294.9,48.9,295.5,48.9,295.6,49.3z"
		/>
	<path class="st3" d="M330.7,49.3l1.8,5.7c0.1,0.2,0.2,0.3,0.4,0.3h5.9c0.5,0,0.6,0.6,0.3,0.8l-4.8,3.5c-0.2,0.1-0.2,0.3-0.2,0.5
		l1.8,5.7c0.1,0.4-0.4,0.8-0.7,0.5l-4.8-3.5c-0.2-0.1-0.4-0.1-0.5,0l-4.8,3.5c-0.4,0.3-0.9-0.1-0.7-0.5l1.8-5.7
		c0.1-0.2,0-0.4-0.2-0.5l-4.8-3.5c-0.4-0.3-0.2-0.8,0.3-0.8h5.9c0.2,0,0.4-0.1,0.4-0.3l1.8-5.7C329.9,48.9,330.5,48.9,330.7,49.3z"
		/>
	<polygon class="st1" points="243.4,24.5 246.2,25.6 246.2,82.4 243.3,82.4 	"/>
	<polygon class="st1" points="180.1,26.1 182.9,24.9 182.9,82.4 180.1,82.4 	"/>
</g>
</svg>
