<?xml version="1.0" encoding="utf-8"?>
<!-- Generator: Adobe Illustrator 21.0.0, SVG Export Plug-In . SVG Version: 6.00 Build 0)  -->
<svg version="1.1" id="Layer_1" xmlns="http://www.w3.org/2000/svg" xmlns:xlink="http://www.w3.org/1999/xlink" x="0px" y="0px"
	 viewBox="0 0 200.1 200" style="enable-background:new 0 0 200.1 200;" xml:space="preserve">
<style type="text/css">
	.st0{fill:#FFFFFF;}
	.st1{fill:#8F9098;}
</style>
<g>
	<path class="st1" d="M80.7,192.1h-1.4l0,0c-2.3,0-4.1,1.9-4.1,4.1s1.9,4.1,4.1,4.1h0h41.4h0c2.3,0,4.1-1.9,4.1-4.1
		s-1.9-4.1-4.1-4.1l0,0h-1.2l13.7-41.4L100,117.6l-33.1,33.1L80.7,192.1z M100,129.3l23.7,23.7l-12.9,39.1h-6.6v-29l0,0
		c0-2.3-1.9-4.1-4.1-4.1s-4.1,1.9-4.1,4.1l0,0v29h-6.4l-13.1-39.2L100,129.3z"/>
	<path class="st1" d="M190.3,26.5h9.1V1.7h-24.8v24.8h7.4c-1,6.8-2.9,13.4-5.6,19.8c-4.2,9.9-10.1,18.7-17.7,26.3
		c-7.6,7.6-16.5,13.6-26.3,17.7c-6.4,2.7-13,4.6-19.8,5.6v-3.2H87.6v3.2c-6.8-1-13.4-2.9-19.8-5.6C58,86.2,49.1,80.2,41.5,72.6
		C33.9,65,27.9,56.2,23.8,46.3c-2.7-6.4-4.6-13-5.6-19.8h7.4V1.7H0.7v24.8h9.1c4.8,35.3,29.8,64.1,63,74.5h-48
		c-1.7-4.8-6.3-8.3-11.7-8.3c-6.9,0-12.4,5.6-12.4,12.4s5.6,12.4,12.4,12.4c5.4,0,10-3.5,11.7-8.3h62.8v8.3H100h12.4v-8.3h62.8
		c1.7,4.8,6.3,8.3,11.7,8.3c6.9,0,12.4-5.6,12.4-12.4s-5.6-12.4-12.4-12.4c-5.4,0-10,3.5-11.7,8.3h-48
		C160.4,90.6,185.4,61.8,190.3,26.5z M191.1,18.2h-8.3V9.9h8.3V18.2z M9,9.9h8.3v8.3H9V9.9z M13.1,109.3c-2.3,0-4.1-1.9-4.1-4.1
		s1.9-4.1,4.1-4.1s4.1,1.9,4.1,4.1S15.4,109.3,13.1,109.3z M104.2,109.3h-8.3V101h8.3V109.3z M187,101c2.3,0,4.1,1.9,4.1,4.1
		s-1.9,4.1-4.1,4.1c-2.3,0-4.1-1.9-4.1-4.1S184.7,101,187,101z"/>
</g>
</svg>
