<?xml version="1.0" encoding="utf-8"?>
<!-- Generator: Adobe Illustrator 21.0.0, SVG Export Plug-In . SVG Version: 6.00 Build 0)  -->
<svg version="1.1" id="Layer_1" xmlns="http://www.w3.org/2000/svg" xmlns:xlink="http://www.w3.org/1999/xlink" x="0px" y="0px"
	 viewBox="0 0 200.1 200" style="enable-background:new 0 0 200.1 200;" xml:space="preserve">
<style type="text/css">
	.st0{fill:#FFFFFF;}
	.st1{fill:#8F9098;}
</style>
<g>
	<rect x="0" y="102.2" class="st0" width="8.3" height="8.3"/>
	<rect x="160.9" y="83.6" class="st0" width="8.3" height="8.3"/>
	<rect x="18.6" y="65.1" class="st0" width="17.6" height="8.3"/>
	<rect x="18.6" y="52.7" class="st0" width="33" height="8.3"/>
	<rect x="18.6" y="40.3" class="st0" width="33" height="8.3"/>
	<rect x="0" y="114.6" class="st0" width="8.3" height="8.3"/>
	<rect x="0" y="127" class="st0" width="8.3" height="8.3"/>
	<rect x="160.9" y="31.1" class="st0" width="20.7" height="8.3"/>
	<rect x="185.6" y="71.3" class="st0" width="8.3" height="8.3"/>
	<rect x="185.6" y="58.9" class="st0" width="8.3" height="8.3"/>
	<rect x="185.6" y="83.6" class="st0" width="8.3" height="8.3"/>
	<rect x="160.9" y="18.7" class="st0" width="33" height="8.3"/>
	<rect x="160.9" y="58.9" class="st0" width="8.3" height="8.3"/>
	<rect x="173.2" y="83.6" class="st0" width="8.3" height="8.3"/>
	<rect x="173.2" y="58.9" class="st0" width="8.3" height="8.3"/>
	<rect x="24.7" y="151.7" class="st0" width="36.1" height="8.3"/>
	<path class="st0" d="M160.9,120.8V160h39.2v-39.2H160.9z M169.2,151.7v-22.7h22.7v22.7H169.2z"/>
	<rect x="136.1" y="71.3" class="st0" width="8.3" height="8.3"/>
	<rect x="136.1" y="83.6" class="st0" width="8.3" height="8.3"/>
	<rect x="136.1" y="58.9" class="st0" width="8.3" height="8.3"/>
	<path class="st0" d="M132,100.2c0-17.6-14.3-32-32-32s-32,14.3-32,32c0,17.6,14.3,32,32,32S132,117.8,132,100.2z M100,105.3
		c-7.5,0-14.2,4.2-17.5,10.8c-4-4.4-6.2-10-6.2-16c0-13.1,10.6-23.7,23.7-23.7s23.7,10.6,23.7,23.7c0,6-2.2,11.6-6.2,16
		C114.2,109.5,107.5,105.3,100,105.3z M100,113.6c4.9,0,9.2,3.1,10.7,7.7c-6.6,3.4-14.8,3.4-21.4,0C90.9,116.7,95.2,113.6,100,113.6
		z"/>
	<path class="st0" d="M100,83.6c-5.7,0-10.3,4.6-10.3,10.3c0,5.7,4.6,10.3,10.3,10.3s10.3-4.6,10.3-10.3
		C110.4,88.3,105.7,83.6,100,83.6z M102.1,94c0,1.1-0.9,2-2,2s-2-0.9-2-2c0-1.1,0.9-2,2-2S102.1,92.8,102.1,94z"/>
	<rect x="176.3" y="136.2" class="st0" width="8.3" height="8.3"/>
	<rect x="83.5" y="24.9" class="st0" width="8.3" height="8.3"/>
	<path class="st0" d="M143.4,9.4H56.7c-7.4,0-13.4,6-13.4,13.4v1h8.3v-1c0-2.8,2.3-5.1,5.1-5.1h86.6c2.8,0,5.1,2.3,5.1,5.1v17.5H64
		V28H6.2v57.8H64V48.6h84.5v103.1H79.4v-12.4H6.2v33h73.3V160h69.1v17.5c0,2.8-2.3,5.1-5.1,5.1H56.7c-2.8,0-5.1-2.3-5.1-5.1v-1h-8.3
		v1c0,7.4,6,13.4,13.4,13.4h86.6c7.4,0,13.4-6,13.4-13.4V22.8C156.8,15.4,150.8,9.4,143.4,9.4z M14.5,77.5V36.2h41.2v41.2H14.5z
		 M14.5,164.1v-16.5h56.7v16.5H14.5z"/>
	<rect x="95.9" y="24.9" class="st0" width="20.7" height="8.3"/>
	<rect x="12.4" y="127" class="st0" width="8.3" height="8.3"/>
	<rect x="12.4" y="102.2" class="st0" width="8.3" height="8.3"/>
	<rect x="89.7" y="167.2" class="st0" width="20.7" height="8.3"/>
	<rect x="24.7" y="127" class="st0" width="8.3" height="8.3"/>
	<rect x="24.7" y="114.6" class="st0" width="8.3" height="8.3"/>
	<rect x="43.3" y="89.8" class="st0" width="8.3" height="45.4"/>
	<rect x="24.7" y="102.2" class="st0" width="8.3" height="8.3"/>
</g>
</svg>
