<?xml version="1.0" encoding="utf-8"?>
<!-- Generator: Adobe Illustrator 21.0.0, SVG Export Plug-In . SVG Version: 6.00 Build 0)  -->
<svg version="1.1" id="Layer_1" xmlns="http://www.w3.org/2000/svg" xmlns:xlink="http://www.w3.org/1999/xlink" x="0px" y="0px"
	 viewBox="0 0 200.1 200" style="enable-background:new 0 0 200.1 200;" xml:space="preserve">
<style type="text/css">
	.st0{fill:#FFFFFF;}
	.st1{fill:#8F9098;}
</style>
<g>
	<path class="st0" d="M-385.9,109.9H-424c-6.5,0-10.7,4.9-10.7,12.4v64.2c0,7.9,4.7,13.5,11.4,13.5h37.4c6.6,0,10.9-5.3,10.9-13.5
		v-64.2C-374.9,114.9-379.3,109.9-385.9,109.9z M-425.8,177h41.9v9.5c0,2.1-0.4,4.6-2,4.6h-37.4c-2.3,0-2.5-3.5-2.5-4.6V177z
		 M-425.8,122.3c0-3.5,1.1-3.5,1.8-3.5h38.1c0.6,0,2,0,2,3.5v45.8h-41.9V122.3z"/>
	<path class="st0" d="M-242.9,108.3h-91.7c-2.2,0-4,0.7-5.3,2c-1.9,2-1.9,4.6-1.8,6.5l0,0.2c0,0.3,0,0.5,0,0.8v52.5
		c0,5.2,3.8,8.9,9.3,8.9h89.4c2.5,0,8.5-0.9,8.5-8.9v-52.5C-234.6,109.2-240.4,108.3-242.9,108.3z M-332.8,117.2h8v52.9h-7.7
		c-0.2,0-0.3,0-0.4,0v-52.4C-332.8,117.5-332.8,117.4-332.8,117.2z M-315.9,170.1v-52.9h51.8v52.9H-315.9z M-243.5,117.7v52.4h-11.7
		v-52.9h11.7C-243.5,117.3-243.5,117.5-243.5,117.7z"/>
	<path class="st0" d="M-370.5,99.2h-14.5c0.2-0.5,0.3-0.6,0.3-0.7c2.2-2,3.6-2,7.7-2.2l0.9,0c2.3-0.1,4.2-1.9,4.3-4.2l0.6-12.3
		c0.1-1.2-0.4-2.4-1.2-3.3c-0.8-0.9-2-1.4-3.2-1.4h-49.2c-0.4-0.6-0.8-1.6-0.8-2.2V8.9h112.1v43.9c0,2.5,2,4.5,4.5,4.5
		c2.5,0,4.5-2,4.5-4.5V7.4c0-1.7-0.6-7.4-8.2-7.4h-112.9c-8.4,0-8.8,6.2-8.8,7.4v65.6c0,4.4,3.5,11.1,8.8,11.1h45.5l-0.2,3.5
		c-3.6,0.3-6.7,1.2-10.1,4.3c-4.4,3.9-3.7,10.9-3.6,12.3c0.3,2.2,2.2,3.9,4.4,3.9h19.3c2.5,0,4.5-2,4.5-4.5
		C-366.1,101.2-368.1,99.2-370.5,99.2z"/>
	<path class="st0" d="M-348.6,143.5h-4.4V93.8h70.5v6c0,2.5,2,4.5,4.5,4.5s4.5-2,4.5-4.5V73.7c0-7.8-5.2-9-8.2-9h-71.8
		c-3.1,0-8.2,1.2-8.2,9v98.7c0,2.5,2,4.5,4.5,4.5c2.5,0,4.5-2,4.5-4.5v-20h4.4c2.5,0,4.5-2,4.5-4.5
		C-344.1,145.5-346.1,143.5-348.6,143.5z M-353,84.9V73.7c0,0,0,0,0,0h70.5c0,0,0,0,0,0v11.1H-353z"/>
	<path class="st0" d="M-310.4,74.8h-14.4c-2.5,0-4.5,2-4.5,4.5s2,4.5,4.5,4.5h14.4c2.5,0,4.5-2,4.5-4.5S-307.9,74.8-310.4,74.8z"/>
</g>
<g>
	<path class="st1" d="M-119.1,89.7c0.5,2.5,2.9,4.1,5.3,3.6c2.5-0.5,4.1-2.9,3.6-5.3c0-0.2-0.1-0.3-0.1-0.5l-9.1-36.4
		c-0.5-2.1-2.5-3.6-4.7-3.5c-2.5,0.2-4.4,2.3-4.3,4.8c0,0.3,0.1,0.6,0.1,0.9L-119.1,89.7z"/>
	<path class="st1" d="M-139.2,88.6c1.2,2.2,4,3,6.2,1.7c2.2-1.2,3-4,1.7-6.2l-7.8-13.6l7.8-13.7c1.3-2.2,0.5-5-1.6-6.2
		c-0.8-0.5-1.8-0.7-2.8-0.6c-1.5,0.1-2.8,1-3.6,2.3l-9.1,15.9c-0.8,1.4-0.8,3.1,0,4.5L-139.2,88.6z"/>
	<path class="st1" d="M-107.4,56.7l7.8,13.7l-7.8,13.6c-1.2,2.2-0.5,5,1.7,6.2c2.2,1.2,5,0.5,6.2-1.7l9.1-15.9
		c0.8-1.4,0.8-3.1,0-4.5l-9.1-15.9c-0.9-1.7-2.7-2.6-4.6-2.3c-2.5,0.3-4.3,2.6-3.9,5.1C-107.9,55.6-107.7,56.2-107.4,56.7z"/>
	<path class="st1" d="M-160.2,140.9h81.9c2.5,0,4.6-2,4.6-4.5c0-2.5-2-4.6-4.5-4.6c0,0-0.1,0-0.1,0h-81.9c-0.1,0-0.3,0-0.4,0
		c-2.5,0.1-4.5,2.2-4.3,4.8S-162.7,141-160.2,140.9z"/>
	<path class="st1" d="M-20,163.5l-29-46.8c1.5-2.2,2.4-4.8,2.4-7.6V31.8c0-7.7-6.6-13.6-14.3-13.6h-117c-7.7,0-14.3,6-14.3,13.6
		v77.3c0,2.8,0.9,5.4,2.4,7.6l-29,46.8c-0.5,0.7-0.7,1.6-0.7,2.4v11.4c0,2.5,2,4.5,4.5,4.5h95.5h95.5c2.5,0,4.5-2,4.5-4.5v-11.4
		C-19.3,165.1-19.5,164.2-20,163.5z M-183,31.8c0-2.4,2.1-4.5,5.2-4.5h117c3.1,0,5.2,2.1,5.2,4.5v77.3c0,2.4-2.1,4.5-5.2,4.5h-117
		c-3.1,0-5.2-2.1-5.2-4.5V31.8z M-28.3,172.8h-90.9h-90.9v-5.6l27.9-45.1c1.4,0.5,3,0.7,4.5,0.7h117c1.6,0,3.1-0.2,4.5-0.7
		l27.9,45.1V172.8z"/>
	<path class="st1" d="M-66.9,150c0,0-0.1,0-0.1,0h-104.6c-0.1,0-0.3,0-0.4,0c-2.5,0.1-4.5,2.2-4.3,4.8c0.1,2.5,2.2,4.5,4.8,4.3H-67
		c2.5,0,4.6-2,4.6-4.5C-62.3,152.1-64.4,150.1-66.9,150z"/>
</g>
<path class="st1" d="M190.9,27.5h9.2V0.9h-26.6v26.6h7.1c-1,6.3-2.8,12.4-5.3,18.3c-4.1,9.7-9.9,18.3-17.4,25.8
	c-7.5,7.5-16.1,13.3-25.8,17.4c-5.9,2.5-12,4.3-18.3,5.3v-3H87.2v3C81,93.2,74.8,91.5,69,89c-9.7-4.1-18.3-9.9-25.8-17.4
	c-7.4-7.4-13.3-16.1-17.4-25.8c-2.5-5.9-4.3-12-5.3-18.3h7.1V0.9H1v26.6h9.2c4.8,32.6,27,60.2,57.5,71.9H26.6
	c-2-4.9-6.9-8.2-12.3-8.2C7,91.3,1,97.2,1,104.6c0,7.3,6,13.3,13.3,13.3c5.4,0,10.2-3.3,12.3-8.2h60.6v8.2h10.9l-31.6,31.6L80,189.8
	c-2.8,0-5.1,2.3-5.1,5.1c0,2.8,2.3,5.1,5.1,5.1h41.1c2.8,0,5.1-2.3,5.1-5.1c0-2.8-2.2-5-5-5.1l13.3-40.3l-31.6-31.6h10.9v-8.2h60.6
	c2,4.9,6.9,8.2,12.3,8.2c7.3,0,13.3-6,13.3-13.3c0-7.3-6-13.3-13.3-13.3c-5.4,0-10.2,3.3-12.3,8.2h-41.1
	C163.9,87.7,186.1,60.1,190.9,27.5z M100.5,157c-2.8,0-5.1,2.3-5.1,5.1v27.8h-4.7l-12.5-37.6l22.3-22.3l22.3,22.3l-12.4,37.6h-4.8
	v-27.8C105.6,159.2,103.4,157,100.5,157z M189.9,11.1v6.2h-6.2v-6.2H189.9z M103.7,101.4v6.2h-6.2v-6.2H103.7z M17.4,11.1v6.2h-6.2
	v-6.2H17.4z M17.4,104.6c0,1.7-1.4,3.1-3.1,3.1c-1.7,0-3.1-1.4-3.1-3.1c0-1.7,1.4-3.1,3.1-3.1C16,101.4,17.4,102.8,17.4,104.6z
	 M183.7,104.6c0-1.7,1.4-3.1,3.1-3.1c1.7,0,3.1,1.4,3.1,3.1c0,1.7-1.4,3.1-3.1,3.1C185.1,107.7,183.7,106.3,183.7,104.6z"/>
<g>
	<rect x="387.5" y="84.3" class="st0" width="6.8" height="6.8"/>
	<rect x="225.3" y="128" class="st0" width="6.8" height="6.8"/>
	<rect x="244" y="65.6" class="st0" width="16.1" height="6.8"/>
	<rect x="250.3" y="152.9" class="st0" width="34.8" height="6.8"/>
	<rect x="225.3" y="115.5" class="st0" width="6.8" height="6.8"/>
	<rect x="225.3" y="103" class="st0" width="6.8" height="6.8"/>
	<rect x="244" y="53.1" class="st0" width="31.7" height="6.8"/>
	<rect x="387.5" y="59.4" class="st0" width="6.8" height="6.8"/>
	<rect x="412.4" y="84.3" class="st0" width="6.8" height="6.8"/>
	<rect x="412.4" y="71.8" class="st0" width="6.8" height="6.8"/>
	<rect x="387.5" y="18.8" class="st0" width="31.7" height="6.8"/>
	<rect x="412.4" y="59.4" class="st0" width="6.8" height="6.8"/>
	<rect x="387.5" y="31.3" class="st0" width="19.2" height="6.8"/>
	<rect x="244" y="40.7" class="st0" width="31.7" height="6.8"/>
	<rect x="400" y="84.3" class="st0" width="6.8" height="6.8"/>
	<rect x="400" y="59.4" class="st0" width="6.8" height="6.8"/>
	<path class="st0" d="M335,93.9c0-5.3-4.3-9.6-9.6-9.6c-5.3,0-9.6,4.3-9.6,9.6c0,5.3,4.3,9.6,9.6,9.6C330.7,103.5,335,99.2,335,93.9
		z M322.5,93.9c0-1.6,1.3-2.9,2.9-2.9c1.6,0,2.9,1.3,2.9,2.9c0,1.6-1.3,2.9-2.9,2.9C323.8,96.8,322.5,95.5,322.5,93.9z"/>
	<rect x="309.5" y="25.1" class="st0" width="6.8" height="6.8"/>
	<rect x="362.5" y="84.3" class="st0" width="6.8" height="6.8"/>
	<path class="st0" d="M369,9.5h-87.3c-7,0-12.7,5.7-12.7,12.7v0.3h6.8v-0.3c0-3.3,2.7-6,6-6H369c3.3,0,6,2.7,6,6v18.4h-86.8V28.2
		h-56.6v56.6h56.6V47.4H375v105.5h-71.2v-12.5h-72.2v31.7h72.2v-12.5H375v18.4c0,3.3-2.7,6-6,6h-87.3c-3.3,0-6-2.7-6-6v-0.3H269v0.3
		c0,7,5.7,12.7,12.7,12.7H369c7,0,12.7-5.7,12.7-12.7V22.2C381.8,15.2,376.1,9.5,369,9.5z M238.3,165.4v-18.2h58.7v18.2H238.3z
		 M238.3,78.1V34.9h43.1v43.1H238.3z"/>
	<rect x="362.5" y="71.8" class="st0" width="6.8" height="6.8"/>
	<path class="st0" d="M356.8,100.2c0-17.3-14.1-31.4-31.4-31.4c-17.3,0-31.4,14.1-31.4,31.4c0,17.3,14.1,31.4,31.4,31.4
		C342.7,131.6,356.8,117.5,356.8,100.2z M308,117.7c-4.7-4.7-7.3-10.9-7.3-17.5c0-13.6,11.1-24.7,24.7-24.7
		c13.6,0,24.7,11.1,24.7,24.7c0,6.6-2.6,12.8-7.3,17.5c-3-7-9.7-11.5-17.4-11.5C317.8,106.1,311,110.6,308,117.7z M325.4,112.9
		c5.5,0,10.3,3.7,11.7,9c-3.6,1.9-7.6,3-11.7,3c-4.1,0-8.1-1-11.7-3C315.1,116.6,319.9,112.9,325.4,112.9z"/>
	<path class="st0" d="M387.5,121.7v37.9h37.9v-37.9H387.5z M394.2,152.9v-24.4h24.4v24.4H394.2z"/>
	<rect x="322" y="25.1" class="st0" width="19.2" height="6.8"/>
	<rect x="403.1" y="137.3" class="st0" width="6.8" height="6.8"/>
	<rect x="362.5" y="59.4" class="st0" width="6.8" height="6.8"/>
	<rect x="269" y="90.5" class="st0" width="6.8" height="44.2"/>
	<rect x="237.8" y="103" class="st0" width="6.8" height="6.8"/>
	<rect x="315.8" y="168.5" class="st0" width="19.2" height="6.8"/>
	<rect x="237.8" y="128" class="st0" width="6.8" height="6.8"/>
	<rect x="250.3" y="128" class="st0" width="6.8" height="6.8"/>
	<rect x="250.3" y="115.5" class="st0" width="6.8" height="6.8"/>
	<rect x="250.3" y="103" class="st0" width="6.8" height="6.8"/>
</g>
</svg>
