<?xml version="1.0" encoding="utf-8"?>
<!-- Generator: Adobe Illustrator 21.0.0, SVG Export Plug-In . SVG Version: 6.00 Build 0)  -->
<svg version="1.1" id="Layer_1" xmlns="http://www.w3.org/2000/svg" xmlns:xlink="http://www.w3.org/1999/xlink" x="0px" y="0px"
	 viewBox="0 0 200.1 200" style="enable-background:new 0 0 200.1 200;" xml:space="preserve">
<style type="text/css">
	.st0{fill:#FFFFFF;}
	.st1{fill:#8F9098;}
</style>
<g>
	<path class="st0" d="M48.8,109.9H10.7c-6.5,0-10.7,4.9-10.7,12.4v64.2c0,7.9,4.7,13.5,11.4,13.5h37.4c6.6,0,10.9-5.3,10.9-13.5
		v-64.2C59.7,114.9,55.3,109.9,48.8,109.9z M8.9,177h41.9v9.5c0,2.1-0.4,4.6-2,4.6H11.4c-2.3,0-2.5-3.5-2.5-4.6V177z M8.9,122.3
		c0-3.5,1.1-3.5,1.8-3.5h38.1c0.6,0,2,0,2,3.5v45.8H8.9V122.3z"/>
	<path class="st0" d="M191.7,108.3H100c-2.2,0-4,0.7-5.3,2c-1.9,2-1.9,4.6-1.8,6.5l0,0.2c0,0.3,0,0.5,0,0.8v52.5
		c0,5.2,3.8,8.9,9.3,8.9h89.4c2.5,0,8.5-0.9,8.5-8.9v-52.5C200.1,109.2,194.2,108.3,191.7,108.3z M101.8,117.2h8v52.9h-7.7
		c-0.2,0-0.3,0-0.4,0v-52.4C101.8,117.5,101.8,117.4,101.8,117.2z M118.8,170.1v-52.9h51.8v52.9H118.8z M191.2,117.7v52.4h-11.7
		v-52.9h11.7C191.2,117.3,191.2,117.5,191.2,117.7z"/>
	<path class="st0" d="M64.1,99.2H49.6c0.2-0.5,0.3-0.6,0.3-0.7c2.2-2,3.6-2,7.7-2.2l0.9,0c2.3-0.1,4.2-1.9,4.3-4.2l0.6-12.3
		c0.1-1.2-0.4-2.4-1.2-3.3c-0.8-0.9-2-1.4-3.2-1.4H9.7c-0.4-0.6-0.8-1.6-0.8-2.2V8.9H121v43.9c0,2.5,2,4.5,4.5,4.5
		c2.5,0,4.5-2,4.5-4.5V7.4c0-1.7-0.6-7.4-8.2-7.4H8.8C0.4,0,0,6.2,0,7.4v65.6c0,4.4,3.5,11.1,8.8,11.1h45.5l-0.2,3.5
		c-3.6,0.3-6.7,1.2-10.1,4.3c-4.4,3.9-3.7,10.9-3.6,12.3c0.3,2.2,2.2,3.9,4.4,3.9h19.3c2.5,0,4.5-2,4.5-4.5
		C68.6,101.2,66.6,99.2,64.1,99.2z"/>
	<path class="st0" d="M86.1,143.5h-4.4V93.8h70.5v6c0,2.5,2,4.5,4.5,4.5s4.5-2,4.5-4.5V73.7c0-7.8-5.2-9-8.2-9H81
		c-3.1,0-8.2,1.2-8.2,9v98.7c0,2.5,2,4.5,4.5,4.5c2.5,0,4.5-2,4.5-4.5v-20h4.4c2.5,0,4.5-2,4.5-4.5
		C90.5,145.5,88.5,143.5,86.1,143.5z M81.7,84.9V73.7c0,0,0,0,0,0h70.5c0,0,0,0,0,0v11.1H81.7z"/>
	<path class="st0" d="M124.3,74.8h-14.4c-2.5,0-4.5,2-4.5,4.5s2,4.5,4.5,4.5h14.4c2.5,0,4.5-2,4.5-4.5S126.7,74.8,124.3,74.8z"/>
</g>
</svg>
