<?xml version="1.0" encoding="utf-8"?>
<!-- Generator: Adobe Illustrator 21.0.0, SVG Export Plug-In . SVG Version: 6.00 Build 0)  -->
<svg version="1.1" id="Layer_1" xmlns="http://www.w3.org/2000/svg" xmlns:xlink="http://www.w3.org/1999/xlink" x="0px" y="0px"
	 viewBox="0 0 200.1 200" style="enable-background:new 0 0 200.1 200;" xml:space="preserve">
<style type="text/css">
	.st0{fill:#FFFFFF;}
	.st1{fill:#8F9098;}
</style>
<g>
	<rect x="162.1" y="84.3" class="st0" width="6.8" height="6.8"/>
	<rect x="0" y="128" class="st0" width="6.8" height="6.8"/>
	<rect x="18.7" y="65.6" class="st0" width="16.1" height="6.8"/>
	<rect x="24.9" y="152.9" class="st0" width="34.8" height="6.8"/>
	<rect x="0" y="115.5" class="st0" width="6.8" height="6.8"/>
	<rect x="0" y="103" class="st0" width="6.8" height="6.8"/>
	<rect x="18.7" y="53.1" class="st0" width="31.7" height="6.8"/>
	<rect x="162.1" y="59.4" class="st0" width="6.8" height="6.8"/>
	<rect x="187.1" y="84.3" class="st0" width="6.8" height="6.8"/>
	<rect x="187.1" y="71.8" class="st0" width="6.8" height="6.8"/>
	<rect x="162.1" y="18.8" class="st0" width="31.7" height="6.8"/>
	<rect x="187.1" y="59.4" class="st0" width="6.8" height="6.8"/>
	<rect x="162.1" y="31.3" class="st0" width="19.2" height="6.8"/>
	<rect x="18.7" y="40.7" class="st0" width="31.7" height="6.8"/>
	<rect x="174.6" y="84.3" class="st0" width="6.8" height="6.8"/>
	<rect x="174.6" y="59.4" class="st0" width="6.8" height="6.8"/>
	<path class="st0" d="M109.7,93.9c0-5.3-4.3-9.6-9.6-9.6c-5.3,0-9.6,4.3-9.6,9.6c0,5.3,4.3,9.6,9.6,9.6
		C105.3,103.5,109.7,99.2,109.7,93.9z M97.2,93.9c0-1.6,1.3-2.9,2.9-2.9c1.6,0,2.9,1.3,2.9,2.9c0,1.6-1.3,2.9-2.9,2.9
		C98.5,96.8,97.2,95.5,97.2,93.9z"/>
	<rect x="84.2" y="25.1" class="st0" width="6.8" height="6.8"/>
	<rect x="137.2" y="84.3" class="st0" width="6.8" height="6.8"/>
	<path class="st0" d="M143.7,9.5H56.4c-7,0-12.7,5.7-12.7,12.7v0.3h6.8v-0.3c0-3.3,2.7-6,6-6h87.3c3.3,0,6,2.7,6,6v18.4H62.9V28.2
		H6.2v56.6h56.6V47.4h86.8v105.5H78.5v-12.5H6.2v31.7h72.2v-12.5h71.2v18.4c0,3.3-2.7,6-6,6H56.4c-3.3,0-6-2.7-6-6v-0.3h-6.8v0.3
		c0,7,5.7,12.7,12.7,12.7h87.3c7,0,12.7-5.7,12.7-12.7V22.2C156.4,15.2,150.7,9.5,143.7,9.5z M13,165.4v-18.2h58.7v18.2H13z
		 M13,78.1V34.9h43.1v43.1H13z"/>
	<rect x="137.2" y="71.8" class="st0" width="6.8" height="6.8"/>
	<path class="st0" d="M131.5,100.2c0-17.3-14.1-31.4-31.4-31.4c-17.3,0-31.4,14.1-31.4,31.4c0,17.3,14.1,31.4,31.4,31.4
		C117.4,131.6,131.5,117.5,131.5,100.2z M82.7,117.7c-4.7-4.7-7.3-10.9-7.3-17.5c0-13.6,11.1-24.7,24.7-24.7
		c13.6,0,24.7,11.1,24.7,24.7c0,6.6-2.6,12.8-7.3,17.5c-3-7-9.7-11.5-17.4-11.5C92.4,106.1,85.7,110.6,82.7,117.7z M100,112.9
		c5.5,0,10.3,3.7,11.7,9c-3.6,1.9-7.6,3-11.7,3c-4.1,0-8.1-1-11.7-3C89.7,116.6,94.5,112.9,100,112.9z"/>
	<path class="st0" d="M162.1,121.7v37.9h37.9v-37.9H162.1z M168.9,152.9v-24.4h24.4v24.4H168.9z"/>
	<rect x="96.7" y="25.1" class="st0" width="19.2" height="6.8"/>
	<rect x="177.7" y="137.3" class="st0" width="6.8" height="6.8"/>
	<rect x="137.2" y="59.4" class="st0" width="6.8" height="6.8"/>
	<rect x="43.7" y="90.5" class="st0" width="6.8" height="44.2"/>
	<rect x="12.5" y="103" class="st0" width="6.8" height="6.8"/>
	<rect x="90.4" y="168.5" class="st0" width="19.2" height="6.8"/>
	<rect x="12.5" y="128" class="st0" width="6.8" height="6.8"/>
	<rect x="24.9" y="128" class="st0" width="6.8" height="6.8"/>
	<rect x="24.9" y="115.5" class="st0" width="6.8" height="6.8"/>
	<rect x="24.9" y="103" class="st0" width="6.8" height="6.8"/>
</g>
</svg>
