<?xml version="1.0" encoding="utf-8"?>
<!-- Generator: Adobe Illustrator 21.0.0, SVG Export Plug-In . SVG Version: 6.00 Build 0)  -->
<svg version="1.1" id="Layer_1" xmlns="http://www.w3.org/2000/svg" xmlns:xlink="http://www.w3.org/1999/xlink" x="0px" y="0px"
	 viewBox="0 0 200.1 200" style="enable-background:new 0 0 200.1 200;" xml:space="preserve">
<style type="text/css">
	.st0{fill:#FFFFFF;}
	.st1{fill:#8F9098;}
</style>
<g>
	<path class="st1" d="M100.2,89.7c0.5,2.5,2.9,4.1,5.3,3.6c2.5-0.5,4.1-2.9,3.6-5.3c0-0.2-0.1-0.3-0.1-0.5l-9.1-36.4
		c-0.5-2.1-2.5-3.6-4.7-3.5c-2.5,0.2-4.4,2.3-4.3,4.8c0,0.3,0.1,0.6,0.1,0.9L100.2,89.7z"/>
	<path class="st1" d="M80.1,88.6c1.2,2.2,4,3,6.2,1.7c2.2-1.2,3-4,1.7-6.2l-7.8-13.6l7.8-13.7c1.3-2.2,0.5-5-1.6-6.2
		c-0.8-0.5-1.8-0.7-2.8-0.6c-1.5,0.1-2.8,1-3.6,2.3l-9.1,15.9c-0.8,1.4-0.8,3.1,0,4.5L80.1,88.6z"/>
	<path class="st1" d="M112,56.7l7.8,13.7L112,84.1c-1.2,2.2-0.5,5,1.7,6.2c2.2,1.2,5,0.5,6.2-1.7l9.1-15.9c0.8-1.4,0.8-3.1,0-4.5
		l-9.1-15.9c-0.9-1.7-2.7-2.6-4.6-2.3c-2.5,0.3-4.3,2.6-3.9,5.1C111.5,55.6,111.7,56.2,112,56.7z"/>
	<path class="st1" d="M59.1,140.9H141c2.5,0,4.6-2,4.6-4.5c0-2.5-2-4.6-4.5-4.6c0,0-0.1,0-0.1,0H59.1c-0.1,0-0.3,0-0.4,0
		c-2.5,0.1-4.5,2.2-4.3,4.8S56.6,141,59.1,140.9z"/>
	<path class="st1" d="M199.4,163.5l-29-46.8c1.5-2.2,2.4-4.8,2.4-7.6V31.8c0-7.7-6.6-13.6-14.3-13.6h-117c-7.7,0-14.3,6-14.3,13.6
		v77.3c0,2.8,0.9,5.4,2.4,7.6l-29,46.8c-0.5,0.7-0.7,1.6-0.7,2.4v11.4c0,2.5,2,4.5,4.5,4.5H100h95.5c2.5,0,4.5-2,4.5-4.5v-11.4
		C200.1,165.1,199.8,164.2,199.4,163.5z M36.4,31.8c0-2.4,2.1-4.5,5.2-4.5h117c3.1,0,5.2,2.1,5.2,4.5v77.3c0,2.4-2.1,4.5-5.2,4.5
		h-117c-3.1,0-5.2-2.1-5.2-4.5V31.8z M191,172.8H100H9.1v-5.6L37,122c1.4,0.5,3,0.7,4.5,0.7h117c1.6,0,3.1-0.2,4.5-0.7l27.9,45.1
		V172.8z"/>
	<path class="st1" d="M152.5,150c0,0-0.1,0-0.1,0H47.7c-0.1,0-0.3,0-0.4,0c-2.5,0.1-4.5,2.2-4.3,4.8c0.1,2.5,2.2,4.5,4.8,4.3h104.6
		c2.5,0,4.6-2,4.6-4.5C157,152.1,155,150.1,152.5,150z"/>
</g>
</svg>
