<?xml version="1.0" encoding="utf-8"?>
<!-- Generator: Adobe Illustrator 21.0.0, SVG Export Plug-In . SVG Version: 6.00 Build 0)  -->
<svg version="1.1" id="Layer_1" xmlns="http://www.w3.org/2000/svg" xmlns:xlink="http://www.w3.org/1999/xlink" x="0px" y="0px"
	 viewBox="0 0 741 632" style="enable-background:new 0 0 741 632;" xml:space="preserve">
<style type="text/css">
	.st0{fill:#FFFFFF;}
	.st1{fill:none;stroke:#2D2F3E;stroke-width:3;stroke-miterlimit:10;}
	.st2{fill:#2D2F3E;}
</style>
<g>
	<path class="st0" d="M326,399.4H53c-8.2,0-14.8-6.6-14.8-14.8v-94.5c0-8.2,6.6-14.8,14.8-14.8h272.9c8.2,0,14.8,6.6,14.8,14.8
		l0,85.7h0.1v8.8C340.8,392.8,334.2,399.4,326,399.4z M53,278.3c-6.5,0-11.8,5.3-11.8,11.8v94.5c0,6.5,5.3,11.8,11.8,11.8h273
		c6.5,0,11.8-5.3,11.8-11.8v-5.8h-0.1l0-88.7c0-6.5-5.3-11.8-11.8-11.8H53z"/>
</g>
<g>
	<path class="st0" d="M326,553.4H53c-8.2,0-14.8-6.6-14.8-14.8v-94.5c0-8.2,6.6-14.8,14.8-14.8h272.9c8.2,0,14.8,6.6,14.8,14.8
		l0,82.8h0.1v11.7C340.8,546.8,334.2,553.4,326,553.4z M53,432.3c-6.5,0-11.8,5.3-11.8,11.8v94.5c0,6.5,5.3,11.8,11.8,11.8h273
		c6.5,0,11.8-5.3,11.8-11.8v-8.7h-0.1l0-85.8c0-6.5-5.3-11.8-11.8-11.8H53z"/>
</g>
<g>
	<path class="st0" d="M680.9,474.8H408c-8.2,0-14.8-6.6-14.8-14.8v-94.5c0-8.2,6.6-14.8,14.8-14.8h272.9c4,0,7.8,1.6,10.6,4.4
		c2.8,2.8,4.3,6.5,4.2,10.4V460C695.7,468.2,689,474.8,680.9,474.8z M408,353.7c-6.5,0-11.8,5.3-11.8,11.8V460
		c0,6.5,5.3,11.8,11.8,11.8h272.9c6.5,0,11.8-5.3,11.8-11.8v-94.5c0-3.1-1.1-6-3.3-8.3c-2.2-2.3-5.2-3.5-8.5-3.5H408z"/>
</g>
<text transform="matrix(1 0 0 1 874 140)" style="font-family:'MyriadPro-Regular'; font-size:12px;">$white: #ffffff;</text>
<text transform="matrix(1 0 0 1 874 154.4)" style="font-family:'MyriadPro-Regular'; font-size:12px;">$light-gray: #f8f8fb;</text>
<text transform="matrix(1 0 0 1 874 168.8)" style="font-family:'MyriadPro-Regular'; font-size:12px;">$blue-gray: #383a49;</text>
<text transform="matrix(1 0 0 1 874 183.2)" style="font-family:'MyriadPro-Regular'; font-size:12px;">$gray: #8f9098;</text>
<text transform="matrix(1 0 0 1 874 197.6)" style="font-family:'MyriadPro-Regular'; font-size:12px;">$blue: #6184d8;</text>
<text transform="matrix(1 0 0 1 874 212)" style="font-family:'MyriadPro-Regular'; font-size:12px;">$dark-blue: #2D2F3E;</text>
<g>
	<g>
		<path class="st0" d="M703,180.3v60.8h-21l-1.8-40.6H378.4V587l32.3,2.6V607h-88.4v-17.4l32.3-2.6V200.5H57.8l-1.6,40.6H35v-60.8
			H703z"/>
	</g>
</g>
<g>
	<path class="st0" d="M350.6,164.5H69.3c-5.8,0-10.6-4.8-10.6-10.6v-38.7c0-5.8,4.8-10.6,10.6-10.6h281.3c5.8,0,10.6,4.8,10.6,10.6
		v38.7c0.1,2.8-1,5.4-3,7.4C356.2,163.4,353.5,164.5,350.6,164.5z M69.3,107.6c-4.2,0-7.6,3.4-7.6,7.6v38.7c0,4.2,3.4,7.6,7.6,7.6
		h281.3c2.1,0,4-0.8,5.5-2.3c1.4-1.4,2.1-3.3,2.1-5.3l0-38.7c0-4.2-3.4-7.6-7.6-7.6H69.3z"/>
</g>
<g>
	<path class="st0" d="M668.7,164.5H387.4c-5.8,0-10.6-4.8-10.6-10.6v-38.7c0-5.8,4.8-10.6,10.6-10.6h281.3c5.8,0,10.6,4.8,10.6,10.6
		v38.7C679.3,159.7,674.5,164.5,668.7,164.5z M387.4,107.6c-4.2,0-7.6,3.4-7.6,7.6v38.7c0,4.2,3.4,7.6,7.6,7.6h281.3
		c4.2,0,7.6-3.4,7.6-7.6v-38.7c0-4.2-3.4-7.6-7.6-7.6H387.4z"/>
</g>
<g>
	<path class="st0" d="M350.6,88.4H69.3c-5.8,0-10.6-4.8-10.6-10.6V39.1c0-5.8,4.8-10.6,10.6-10.6h281.3c5.8,0,10.6,4.8,10.6,10.6
		v38.7c0.1,2.8-1,5.4-3,7.4C356.2,87.3,353.5,88.4,350.6,88.4z M69.3,31.5c-4.2,0-7.6,3.4-7.6,7.6v38.7c0,4.2,3.4,7.6,7.6,7.6h281.3
		c2.1,0,4-0.8,5.5-2.3c1.4-1.4,2.1-3.3,2.1-5.3l0-38.7c0-4.2-3.4-7.6-7.6-7.6H69.3z"/>
</g>
<g>
	<path class="st0" d="M668.7,88.4H387.4c-5.8,0-10.6-4.8-10.6-10.6V39.1c0-5.8,4.8-10.6,10.6-10.6h281.3c5.8,0,10.6,4.8,10.6,10.6
		v38.7C679.3,83.6,674.5,88.4,668.7,88.4z M387.4,31.5c-4.2,0-7.6,3.4-7.6,7.6v38.7c0,4.2,3.4,7.6,7.6,7.6h281.3
		c4.2,0,7.6-3.4,7.6-7.6V39.1c0-4.2-3.4-7.6-7.6-7.6H387.4z"/>
</g>
<g>
	<g>
		<path class="st0" d="M136.9,60.9v6.5h-2.8v-17h6.7c1.9,0,3.4,0.5,4.4,1.5s1.6,2.3,1.6,3.8c0,1.6-0.5,2.9-1.6,3.8s-2.5,1.4-4.4,1.4
			H136.9z M136.9,58.7h3.8c1.1,0,1.8-0.3,2.4-0.8s0.8-1.3,0.8-2.1s-0.3-1.6-0.8-2.2s-1.3-0.9-2.4-0.9h-3.8V58.7z"/>
	</g>
	<g>
		<path class="st0" d="M152,56.4c0.4-0.6,0.9-1.1,1.5-1.4s1.3-0.5,2-0.5c1.3,0,2.4,0.4,3.1,1.3s1.1,2.2,1.1,3.9v7.7H157v-7.7
			c0-1-0.2-1.7-0.6-2.2s-1-0.7-1.8-0.7c-0.6,0-1.1,0.1-1.5,0.3s-0.8,0.5-1.1,1v9.3h-2.8V49.1h2.8L152,56.4L152,56.4z"/>
	</g>
	<g>
		<path class="st0" d="M162.3,61c0-1.9,0.5-3.4,1.5-4.6c1-1.2,2.5-1.8,4.3-1.8s3.2,0.6,4.3,1.8c1,1.2,1.6,2.8,1.6,4.6v0.2
			c0,1.9-0.5,3.5-1.6,4.7c-1,1.2-2.4,1.8-4.3,1.8c-1.8,0-3.2-0.6-4.3-1.8c-1-1.2-1.5-2.8-1.5-4.7V61z M165.1,61.2
			c0,1.2,0.2,2.2,0.7,3c0.5,0.8,1.2,1.2,2.3,1.2c1,0,1.7-0.4,2.2-1.2c0.5-0.8,0.8-1.8,0.8-3V61c0-1.2-0.3-2.2-0.8-3
			s-1.2-1.2-2.3-1.2c-1,0-1.7,0.4-2.2,1.2s-0.7,1.8-0.7,3V61.2z"/>
	</g>
	<g>
		<path class="st0" d="M179.9,51.7v3.1h2.3v2.1h-2.3v7c0,0.5,0.1,0.9,0.3,1.1s0.5,0.3,0.9,0.3c0.2,0,0.3,0,0.5,0s0.3-0.1,0.4-0.1
			l0.3,2.1c-0.2,0.1-0.5,0.2-0.9,0.3s-0.7,0.1-1,0.1c-1,0-1.9-0.3-2.5-0.9s-0.9-1.6-0.9-2.9v-7h-1.9v-2.1h1.9v-3.1
			C177,51.7,179.9,51.7,179.9,51.7z"/>
	</g>
	<g>
		<path class="st0" d="M184.2,61c0-1.9,0.5-3.4,1.5-4.6c1-1.2,2.5-1.8,4.3-1.8s3.2,0.6,4.3,1.8c1,1.2,1.6,2.8,1.6,4.6v0.2
			c0,1.9-0.5,3.5-1.6,4.7c-1,1.2-2.4,1.8-4.3,1.8c-1.8,0-3.2-0.6-4.3-1.8c-1-1.2-1.5-2.8-1.5-4.7V61z M187.1,61.2
			c0,1.2,0.2,2.2,0.7,3c0.5,0.8,1.2,1.2,2.3,1.2c1,0,1.7-0.4,2.2-1.2c0.5-0.8,0.8-1.8,0.8-3V61c0-1.2-0.3-2.2-0.8-3
			s-1.2-1.2-2.3-1.2c-1,0-1.7,0.4-2.2,1.2s-0.7,1.8-0.7,3V61.2z"/>
	</g>
	<g>
		<path class="st0" d="M197.8,61.3c0-2,0.4-3.6,1.3-4.9s2.1-1.9,3.7-1.9c0.8,0,1.4,0.2,2,0.5s1.1,0.8,1.5,1.4l0.3-1.7h2.4v12.7
			c0,1.6-0.5,2.9-1.5,3.8s-2.4,1.3-4.3,1.3c-0.6,0-1.3-0.1-2-0.3s-1.4-0.4-1.9-0.7l0.6-2.2c0.5,0.2,1,0.4,1.6,0.6s1.2,0.2,1.8,0.2
			c1,0,1.8-0.2,2.3-0.7s0.7-1.1,0.7-2v-1.3c-0.4,0.5-0.9,0.9-1.4,1.2s-1.2,0.4-1.9,0.4c-1.6,0-2.8-0.6-3.7-1.7s-1.3-2.6-1.3-4.5
			v-0.2H197.8z M200.7,61.5c0,1.2,0.2,2.1,0.7,2.8s1.2,1,2.2,1c0.6,0,1.1-0.1,1.5-0.4s0.8-0.6,1-1.1v-5.6c-0.3-0.5-0.6-0.8-1-1.1
			s-0.9-0.4-1.5-0.4c-1,0-1.7,0.4-2.2,1.2s-0.7,1.9-0.7,3.2V61.5z"/>
	</g>
	<g>
		<path class="st0" d="M218.2,57.3H217c-0.6,0-1,0.1-1.4,0.4s-0.7,0.6-0.9,1v8.8h-2.8V54.7h2.6l0.2,1.8c0.3-0.6,0.7-1.2,1.2-1.5
			s1.1-0.6,1.7-0.6c0.2,0,0.3,0,0.5,0s0.3,0.1,0.4,0.1L218.2,57.3z"/>
	</g>
	<g>
		<path class="st0" d="M227.9,67.4c-0.1-0.3-0.2-0.6-0.3-0.9s-0.1-0.6-0.1-0.9c-0.4,0.6-0.9,1.1-1.5,1.5s-1.3,0.6-2.1,0.6
			c-1.3,0-2.3-0.3-3-1s-1.1-1.6-1.1-2.8s0.5-2.2,1.5-2.9s2.3-1,4.1-1h2.2v-1.1c0-0.7-0.2-1.2-0.6-1.6s-0.9-0.6-1.7-0.6
			c-0.6,0-1.2,0.2-1.5,0.5s-0.6,0.7-0.6,1.2h-2.7v-0.1c-0.1-1,0.4-1.9,1.3-2.7s2.2-1.2,3.7-1.2s2.7,0.4,3.6,1.1s1.4,1.8,1.4,3.2v5.6
			c0,0.5,0,1,0.1,1.5s0.2,1,0.3,1.4h-3V67.4z M224.4,65.4c0.7,0,1.4-0.2,1.9-0.5s1-0.8,1.1-1.2v-1.9h-2.3c-0.8,0-1.5,0.2-1.9,0.6
			s-0.7,0.9-0.7,1.4c0,0.5,0.2,0.9,0.5,1.2S223.8,65.4,224.4,65.4z"/>
	</g>
	<g>
		<path class="st0" d="M244.4,61.5c0,1.8-0.4,3.3-1.3,4.5s-2.1,1.7-3.6,1.7c-0.7,0-1.4-0.1-1.9-0.4s-1-0.6-1.4-1.1v6.2h-2.8V54.7
			h2.4l0.3,1.6c0.4-0.6,0.9-1,1.5-1.4s1.2-0.5,2-0.5c1.6,0,2.8,0.6,3.7,1.9s1.3,2.9,1.3,4.9v0.3H244.4z M241.6,61.2
			c0-1.3-0.2-2.4-0.7-3.2s-1.2-1.2-2.2-1.2c-0.6,0-1.1,0.1-1.5,0.4s-0.7,0.6-1,1.1V64c0.3,0.4,0.6,0.8,1,1s0.9,0.4,1.5,0.4
			c1,0,1.7-0.4,2.2-1.1s0.7-1.7,0.7-2.8V61.2z"/>
	</g>
	<g>
		<path class="st0" d="M249.7,56.4c0.4-0.6,0.9-1.1,1.5-1.4s1.3-0.5,2-0.5c1.3,0,2.4,0.4,3.1,1.3c0.7,0.9,1.1,2.2,1.1,3.9v7.7h-2.8
			v-7.7c0-1-0.2-1.7-0.6-2.2s-1-0.7-1.8-0.7c-0.6,0-1.1,0.1-1.5,0.3s-0.8,0.5-1.1,1v9.3h-2.8V49.1h2.8v7.3H249.7z"/>
	</g>
	<g>
		<path class="st0" d="M264.7,62.3l0.3,1.3h0.1l2.8-8.9h3.1l-5.3,14.6c-0.3,0.9-0.8,1.6-1.4,2.3s-1.5,0.9-2.6,0.9
			c-0.2,0-0.5,0-0.8-0.1s-0.5-0.1-0.8-0.2l0.3-2.2c0.1,0,0.2,0,0.4,0s0.3,0,0.4,0c0.5,0,0.9-0.2,1.2-0.5s0.6-0.8,0.8-1.2l0.5-1.1
			l-4.6-12.5h3.1L264.7,62.3z"/>
	</g>
</g>
<g>
	<g>
		<path class="st0" d="M470.1,63l0.3,1.2h0.1l0.3-1.2l4.1-12.6h3l-6.1,17.1h-2.7L463,50.4h3L470.1,63z"/>
	</g>
	<g>
		<path class="st0" d="M482.6,51.6h-2.8v-2.5h2.8V51.6z M482.6,67.4h-2.8V54.7h2.8V67.4z"/>
	</g>
	<g>
		<path class="st0" d="M485.3,61.3c0-2,0.4-3.7,1.3-4.9s2.1-1.9,3.7-1.9c0.7,0,1.3,0.1,1.8,0.4s1,0.7,1.4,1.2v-7h2.8v18.3h-2.4
			l-0.3-1.6c-0.4,0.6-0.9,1-1.5,1.4s-1.2,0.5-2,0.5c-1.6,0-2.8-0.6-3.6-1.7s-1.3-2.6-1.3-4.5v-0.2H485.3z M488.1,61.5
			c0,1.2,0.2,2.1,0.7,2.8s1.2,1,2.1,1c0.6,0,1.1-0.1,1.5-0.4s0.8-0.6,1-1.1v-5.5c-0.3-0.5-0.6-0.8-1-1.1s-0.9-0.4-1.5-0.4
			c-1,0-1.7,0.4-2.1,1.2s-0.7,1.9-0.7,3.2V61.5z"/>
	</g>
	<g>
		<path class="st0" d="M504.8,67.7c-1.8,0-3.2-0.6-4.3-1.8s-1.6-2.7-1.6-4.5v-0.5c0-1.8,0.5-3.4,1.6-4.6s2.4-1.8,4-1.8
			c1.7,0,3,0.5,3.9,1.6s1.4,2.4,1.4,4.2V62h-7.9v0.1c0,1,0.3,1.8,0.9,2.5c0.5,0.6,1.3,1,2.3,1c0.8,0,1.4-0.1,2-0.3s1.1-0.5,1.6-0.8
			l0.9,1.9c-0.5,0.4-1.1,0.8-1.9,1.1C506.8,67.5,505.9,67.7,504.8,67.7z M504.5,56.8c-0.7,0-1.3,0.3-1.7,0.8s-0.7,1.3-0.8,2.1v0.1h5
			v-0.3c0-0.8-0.2-1.5-0.6-2S505.3,56.8,504.5,56.8z"/>
	</g>
	<g>
		<path class="st0" d="M511.6,61c0-1.9,0.5-3.4,1.5-4.6c1-1.2,2.5-1.8,4.3-1.8s3.2,0.6,4.3,1.8c1,1.2,1.6,2.8,1.6,4.6v0.2
			c0,1.9-0.5,3.5-1.6,4.7c-1,1.2-2.4,1.8-4.3,1.8c-1.8,0-3.2-0.6-4.3-1.8c-1-1.2-1.5-2.8-1.5-4.7L511.6,61L511.6,61z M514.4,61.2
			c0,1.2,0.2,2.2,0.7,3c0.5,0.8,1.2,1.2,2.3,1.2c1,0,1.7-0.4,2.2-1.2c0.5-0.8,0.8-1.8,0.8-3V61c0-1.2-0.3-2.2-0.8-3
			s-1.2-1.2-2.3-1.2c-1,0-1.7,0.4-2.2,1.2s-0.7,1.8-0.7,3V61.2z"/>
	</g>
	<g>
		<path class="st0" d="M525.2,61.3c0-2,0.4-3.6,1.3-4.9s2.1-1.9,3.7-1.9c0.8,0,1.4,0.2,2,0.5s1.1,0.8,1.5,1.4l0.3-1.7h2.4v12.7
			c0,1.6-0.5,2.9-1.5,3.8s-2.4,1.3-4.3,1.3c-0.6,0-1.3-0.1-2-0.3s-1.4-0.4-1.9-0.7l0.6-2.2c0.5,0.2,1,0.4,1.6,0.6s1.2,0.2,1.8,0.2
			c1,0,1.8-0.2,2.3-0.7s0.7-1.1,0.7-2v-1.3c-0.4,0.5-0.9,0.9-1.4,1.2s-1.2,0.4-1.9,0.4c-1.6,0-2.8-0.6-3.7-1.7s-1.3-2.6-1.3-4.5
			v-0.2H525.2z M528,61.5c0,1.2,0.2,2.1,0.7,2.8s1.2,1,2.2,1c0.6,0,1.1-0.1,1.5-0.4s0.8-0.6,1-1.1v-5.6c-0.3-0.5-0.6-0.8-1-1.1
			s-0.9-0.4-1.5-0.4c-1,0-1.7,0.4-2.2,1.2s-0.7,1.9-0.7,3.2V61.5z"/>
	</g>
	<g>
		<path class="st0" d="M545.6,57.3h-1.2c-0.6,0-1,0.1-1.4,0.4s-0.7,0.6-0.9,1v8.8h-2.8V54.7h2.6l0.2,1.8c0.3-0.6,0.7-1.2,1.2-1.5
			s1.1-0.6,1.7-0.6c0.2,0,0.3,0,0.5,0s0.3,0.1,0.4,0.1L545.6,57.3z"/>
	</g>
	<g>
		<path class="st0" d="M555.2,67.4c-0.1-0.3-0.2-0.6-0.3-0.9s-0.1-0.6-0.1-0.9c-0.4,0.6-0.9,1.1-1.5,1.5s-1.3,0.6-2.1,0.6
			c-1.3,0-2.3-0.3-3-1S547,65,547,63.8s0.5-2.2,1.5-2.9s2.3-1,4.1-1h2.2v-1.1c0-0.7-0.2-1.2-0.6-1.6s-0.9-0.6-1.7-0.6
			c-0.6,0-1.2,0.2-1.5,0.5s-0.6,0.7-0.6,1.2h-2.7v-0.1c-0.1-1,0.4-1.9,1.3-2.7s2.2-1.2,3.7-1.2s2.7,0.4,3.6,1.1s1.4,1.8,1.4,3.2v5.6
			c0,0.5,0,1,0.1,1.5s0.2,1,0.3,1.4h-2.9V67.4z M551.7,65.4c0.7,0,1.4-0.2,1.9-0.5s1-0.8,1.1-1.2v-1.9h-2.3c-0.8,0-1.5,0.2-1.9,0.6
			s-0.7,0.9-0.7,1.4c0,0.5,0.2,0.9,0.5,1.2S551.1,65.4,551.7,65.4z"/>
	</g>
	<g>
		<path class="st0" d="M571.8,61.5c0,1.8-0.4,3.3-1.3,4.5s-2.1,1.7-3.6,1.7c-0.7,0-1.4-0.1-1.9-0.4s-1-0.6-1.4-1.1v6.2h-2.8V54.7
			h2.4l0.3,1.6c0.4-0.6,0.9-1,1.5-1.4s1.2-0.5,2-0.5c1.6,0,2.8,0.6,3.7,1.9s1.3,2.9,1.3,4.9v0.3H571.8z M568.9,61.2
			c0-1.3-0.2-2.4-0.7-3.2s-1.2-1.2-2.2-1.2c-0.6,0-1.1,0.1-1.5,0.4s-0.7,0.6-1,1.1V64c0.3,0.4,0.6,0.8,1,1s0.9,0.4,1.5,0.4
			c1,0,1.7-0.4,2.2-1.1s0.7-1.7,0.7-2.8V61.2z"/>
	</g>
	<g>
		<path class="st0" d="M577,56.4c0.4-0.6,0.9-1.1,1.5-1.4s1.3-0.5,2-0.5c1.3,0,2.4,0.4,3.1,1.3s1.1,2.2,1.1,3.9v7.7H582v-7.7
			c0-1-0.2-1.7-0.6-2.2s-1-0.7-1.8-0.7c-0.6,0-1.1,0.1-1.5,0.3s-0.8,0.5-1.1,1v9.3h-2.8V49.1h2.8L577,56.4L577,56.4z"/>
	</g>
	<g>
		<path class="st0" d="M592,62.3l0.3,1.3h0.1l2.8-8.9h3.1L593,69.3c-0.3,0.9-0.8,1.6-1.4,2.3s-1.5,0.9-2.6,0.9c-0.2,0-0.5,0-0.8-0.1
			s-0.5-0.1-0.8-0.2l0.3-2.2c0.1,0,0.2,0,0.4,0s0.3,0,0.4,0c0.5,0,0.9-0.2,1.2-0.5s0.6-0.8,0.8-1.2l0.5-1.1l-4.6-12.5h3.1L592,62.3z
			"/>
	</g>
</g>
<g>
	<g>
		<path class="st0" d="M140.2,135.6v6.5h-2.8V125h6.7c1.9,0,3.4,0.5,4.4,1.5s1.6,2.3,1.6,3.8c0,1.6-0.5,2.9-1.6,3.8
			s-2.5,1.4-4.4,1.4h-3.9V135.6z M140.2,133.3h3.8c1.1,0,1.8-0.3,2.4-0.8s0.8-1.3,0.8-2.1s-0.3-1.6-0.8-2.2s-1.3-0.9-2.4-0.9h-3.8
			V133.3z"/>
	</g>
	<g>
		<path class="st0" d="M158.8,132h-1.2c-0.6,0-1,0.1-1.4,0.4s-0.7,0.6-0.9,1v8.8h-2.8v-12.7h2.6l0.2,1.8c0.3-0.6,0.7-1.2,1.2-1.5
			s1.1-0.6,1.7-0.6c0.2,0,0.3,0,0.5,0s0.3,0.1,0.4,0.1L158.8,132z"/>
	</g>
	<g>
		<path class="st0" d="M163.9,126.3H161v-2.5h2.8L163.9,126.3L163.9,126.3z M163.9,142.1H161v-12.7h2.8L163.9,142.1L163.9,142.1z"/>
	</g>
	<g>
		<path class="st0" d="M169.6,129.4l0.2,1.8c0.4-0.6,0.9-1.2,1.6-1.5s1.3-0.5,2.1-0.5c1.3,0,2.3,0.4,3.1,1.2s1.1,2,1.1,3.7v8h-2.8
			v-7.9c0-1-0.2-1.6-0.6-2s-1-0.6-1.8-0.6c-0.6,0-1.1,0.1-1.5,0.4s-0.8,0.6-1.1,1v9.2H167v-12.7L169.6,129.4L169.6,129.4z"/>
	</g>
	<g>
		<path class="st0" d="M184.2,126.3v3.1h2.3v2.1h-2.3v7c0,0.5,0.1,0.9,0.3,1.1s0.5,0.3,0.9,0.3c0.2,0,0.3,0,0.5,0s0.3-0.1,0.4-0.1
			l0.3,2.1c-0.2,0.1-0.5,0.2-0.9,0.3s-0.7,0.1-1,0.1c-1,0-1.9-0.3-2.5-0.9s-0.9-1.6-0.9-2.9v-7h-1.9v-2.1h1.9v-3.1L184.2,126.3
			L184.2,126.3z"/>
	</g>
	<g>
		<path class="st0" d="M195.3,142.1V125h5.5c2.2,0,3.9,0.7,5.3,2s2,3.1,2,5.2v2.6c0,2.1-0.7,3.9-2,5.2s-3.1,2-5.3,2h-5.5V142.1z
			 M198.2,127.3v12.5h2.6c1.4,0,2.5-0.5,3.3-1.4s1.2-2.1,1.2-3.6v-2.6c0-1.4-0.4-2.6-1.2-3.5c-0.8-0.9-1.9-1.4-3.3-1.4
			C200.8,127.3,198.2,127.3,198.2,127.3z"/>
	</g>
	<g>
		<path class="st0" d="M216.2,142.3c-1.8,0-3.2-0.6-4.3-1.8s-1.6-2.7-1.6-4.5v-0.5c0-1.8,0.5-3.4,1.6-4.6s2.4-1.8,4-1.8
			c1.7,0,3,0.5,3.9,1.6s1.4,2.4,1.4,4.2v1.7h-7.9v0.1c0,1,0.3,1.8,0.9,2.5c0.5,0.6,1.3,1,2.3,1c0.8,0,1.4-0.1,2-0.3s1.1-0.5,1.6-0.8
			l0.9,1.9c-0.5,0.4-1.1,0.8-1.9,1.1C218.1,142.2,217.2,142.3,216.2,142.3z M215.8,131.5c-0.7,0-1.3,0.3-1.7,0.8s-0.7,1.3-0.8,2.1
			v0.1h5v-0.3c0-0.8-0.2-1.5-0.6-2S216.7,131.5,215.8,131.5z"/>
	</g>
	<g>
		<path class="st0" d="M230.6,138.6c0-0.4-0.2-0.8-0.6-1.1s-1.1-0.5-2.1-0.8c-1.5-0.3-2.7-0.8-3.4-1.4s-1.2-1.4-1.2-2.4
			c0-1.1,0.4-2,1.3-2.7s2.1-1.1,3.6-1.1s2.8,0.4,3.7,1.1s1.3,1.7,1.3,2.8v0.1h-2.7c0-0.5-0.2-1-0.6-1.3s-0.9-0.6-1.6-0.6
			c-0.7,0-1.2,0.2-1.6,0.5s-0.5,0.7-0.5,1.1s0.2,0.8,0.5,1.1s1,0.5,2.1,0.7c1.6,0.3,2.8,0.8,3.5,1.4s1.2,1.4,1.2,2.4
			c0,1.1-0.5,2.1-1.4,2.8s-2.2,1.1-3.7,1.1c-1.6,0-2.9-0.4-3.9-1.3s-1.4-1.8-1.4-2.9V138h2.6c0,0.7,0.3,1.3,0.8,1.6s1.1,0.5,1.8,0.5
			s1.3-0.1,1.7-0.4S230.6,139.1,230.6,138.6z"/>
	</g>
	<g>
		<path class="st0" d="M238.9,126.3h-2.8v-2.5h2.8V126.3z M238.9,142.1h-2.8v-12.7h2.8V142.1z"/>
	</g>
	<g>
		<path class="st0" d="M241.6,135.9c0-2,0.4-3.6,1.3-4.9s2.1-1.9,3.7-1.9c0.8,0,1.4,0.2,2,0.5s1.1,0.8,1.5,1.4l0.3-1.7h2.4V142
			c0,1.6-0.5,2.9-1.5,3.8s-2.4,1.3-4.3,1.3c-0.6,0-1.3-0.1-2-0.3s-1.4-0.4-1.9-0.7l0.6-2.2c0.5,0.2,1,0.4,1.6,0.6s1.2,0.2,1.8,0.2
			c1,0,1.8-0.2,2.3-0.7s0.7-1.1,0.7-2v-1.3c-0.4,0.5-0.9,0.9-1.4,1.2s-1.2,0.4-1.9,0.4c-1.6,0-2.8-0.6-3.7-1.7s-1.3-2.6-1.3-4.5
			v-0.2H241.6z M244.5,136.2c0,1.2,0.2,2.1,0.7,2.8s1.2,1,2.2,1c0.6,0,1.1-0.1,1.5-0.4s0.8-0.6,1-1.1V133c-0.3-0.5-0.6-0.8-1-1.1
			s-0.9-0.4-1.5-0.4c-1,0-1.7,0.4-2.2,1.2s-0.7,1.9-0.7,3.2V136.2z"/>
	</g>
	<g>
		<path class="st0" d="M258.3,129.4l0.2,1.8c0.4-0.6,0.9-1.2,1.6-1.5s1.3-0.5,2.1-0.5c1.3,0,2.3,0.4,3.1,1.2s1.1,2,1.1,3.7v8h-2.8
			v-7.9c0-1-0.2-1.6-0.6-2s-1-0.6-1.8-0.6c-0.6,0-1.1,0.1-1.5,0.4s-0.8,0.6-1.1,1v9.2h-2.8v-12.7L258.3,129.4L258.3,129.4z"/>
	</g>
</g>
<g>
	<g>
		<path class="st0" d="M497.4,421.6v-17.1h5.7c1.9,0,3.4,0.4,4.4,1.2s1.6,1.9,1.6,3.5c0,0.8-0.2,1.5-0.7,2.1s-1.1,1.1-1.9,1.4
			c1,0.2,1.8,0.7,2.3,1.5s0.8,1.6,0.8,2.6c0,1.6-0.5,2.8-1.6,3.7s-2.5,1.2-4.3,1.2h-6.3V421.6z M500.2,411.7h3.1
			c0.9,0,1.6-0.2,2.1-0.6s0.8-1,0.8-1.8s-0.3-1.5-0.8-1.9s-1.3-0.6-2.4-0.6h-2.8L500.2,411.7L500.2,411.7z M500.2,413.8v5.5h3.6
			c1,0,1.7-0.2,2.3-0.7s0.8-1.1,0.8-1.9c0-0.9-0.2-1.6-0.7-2.1c-0.4-0.5-1.1-0.7-2.1-0.7L500.2,413.8L500.2,413.8z"/>
	</g>
	<g>
		<path class="st0" d="M518.7,411.4h-1.2c-0.6,0-1,0.1-1.4,0.4c-0.4,0.3-0.7,0.6-0.9,1v8.8h-2.8v-12.7h2.6l0.2,1.8
			c0.3-0.6,0.7-1.2,1.2-1.5s1.1-0.6,1.7-0.6c0.2,0,0.3,0,0.5,0s0.3,0.1,0.4,0.1L518.7,411.4z"/>
	</g>
	<g>
		<path class="st0" d="M528.3,421.6c-0.1-0.3-0.2-0.6-0.3-0.9s-0.1-0.6-0.1-0.9c-0.4,0.6-0.9,1.1-1.5,1.5s-1.3,0.6-2.1,0.6
			c-1.3,0-2.3-0.3-3-1s-1.1-1.6-1.1-2.8c0-1.2,0.5-2.2,1.5-2.9s2.3-1,4.1-1h2.2V413c0-0.7-0.2-1.2-0.6-1.6s-0.9-0.6-1.7-0.6
			c-0.6,0-1.2,0.2-1.5,0.5s-0.6,0.7-0.6,1.2h-2.7v-0.1c-0.1-1,0.4-1.9,1.3-2.7s2.2-1.2,3.7-1.2s2.7,0.4,3.6,1.1s1.4,1.8,1.4,3.2v5.6
			c0,0.5,0,1,0.1,1.5s0.2,1,0.3,1.4h-3V421.6z M524.8,419.5c0.7,0,1.4-0.2,1.9-0.5s1-0.8,1.1-1.2v-1.9h-2.3c-0.8,0-1.5,0.2-1.9,0.6
			s-0.7,0.9-0.7,1.4s0.2,0.9,0.5,1.2S524.2,419.5,524.8,419.5z"/>
	</g>
	<g>
		<path class="st0" d="M536.3,408.9l0.2,1.8c0.4-0.6,0.9-1.2,1.6-1.5s1.3-0.5,2.1-0.5c1.3,0,2.3,0.4,3.1,1.2s1.1,2,1.1,3.7v8h-2.8
			v-7.9c0-1-0.2-1.6-0.6-2s-1-0.6-1.8-0.6c-0.6,0-1.1,0.1-1.5,0.4s-0.8,0.6-1.1,1v9.2h-2.8V409h2.5V408.9z"/>
	</g>
	<g>
		<path class="st0" d="M546.8,415.4c0-2,0.4-3.7,1.3-4.9s2.1-1.9,3.7-1.9c0.7,0,1.3,0.1,1.8,0.4s1,0.7,1.4,1.2v-7h2.8v18.3h-2.4
			l-0.3-1.6c-0.4,0.6-0.9,1-1.5,1.4s-1.2,0.5-2,0.5c-1.6,0-2.8-0.6-3.6-1.7s-1.3-2.6-1.3-4.5L546.8,415.4L546.8,415.4z M549.7,415.6
			c0,1.2,0.2,2.1,0.7,2.8s1.2,1,2.1,1c0.6,0,1.1-0.1,1.5-0.4s0.8-0.6,1-1.1v-5.5c-0.3-0.5-0.6-0.8-1-1.1s-0.9-0.4-1.5-0.4
			c-1,0-1.7,0.4-2.1,1.2s-0.7,1.9-0.7,3.2V415.6z"/>
	</g>
	<g>
		<path class="st0" d="M564,405.8h-2.8v-2.5h2.8V405.8z M564,421.6h-2.8v-12.7h2.8V421.6z"/>
	</g>
	<g>
		<path class="st0" d="M569.7,408.9l0.2,1.8c0.4-0.6,0.9-1.2,1.6-1.5s1.3-0.5,2.1-0.5c1.3,0,2.3,0.4,3.1,1.2s1.1,2,1.1,3.7v8H575
			v-7.9c0-1-0.2-1.6-0.6-2s-1-0.6-1.8-0.6c-0.6,0-1.1,0.1-1.5,0.4s-0.8,0.6-1.1,1v9.2h-2.8V409h2.5V408.9z"/>
	</g>
	<g>
		<path class="st0" d="M580.2,415.4c0-2,0.4-3.6,1.3-4.9s2.1-1.9,3.7-1.9c0.8,0,1.4,0.2,2,0.5s1.1,0.8,1.5,1.4l0.3-1.7h2.4v12.7
			c0,1.6-0.5,2.9-1.5,3.8s-2.4,1.3-4.3,1.3c-0.6,0-1.3-0.1-2-0.3s-1.4-0.4-1.9-0.7l0.6-2.2c0.5,0.2,1,0.4,1.6,0.6s1.2,0.2,1.8,0.2
			c1,0,1.8-0.2,2.3-0.7s0.7-1.1,0.7-2v-1.3c-0.4,0.5-0.9,0.9-1.4,1.2s-1.2,0.4-1.9,0.4c-1.6,0-2.8-0.6-3.7-1.7s-1.3-2.6-1.3-4.5
			v-0.2H580.2z M583.1,415.6c0,1.2,0.2,2.1,0.7,2.8s1.2,1,2.2,1c0.6,0,1.1-0.1,1.5-0.4s0.8-0.6,1-1.1v-5.6c-0.3-0.5-0.6-0.8-1-1.1
			s-0.9-0.4-1.5-0.4c-1,0-1.7,0.4-2.2,1.2s-0.7,1.9-0.7,3.2V415.6z"/>
	</g>
</g>
<g>
	<g>
		<path class="st0" d="M150.9,483.2v11.4c0,1.9-0.6,3.3-1.9,4.4s-2.8,1.5-4.8,1.5s-3.5-0.5-4.7-1.5s-1.8-2.5-1.8-4.3v-11.4h2.8v11.4
			c0,1.2,0.3,2.1,1,2.7s1.6,0.9,2.7,0.9c1.2,0,2.1-0.3,2.8-0.9s1-1.5,1-2.7v-11.4h2.9V483.2z"/>
	</g>
	<g>
		<path class="st0" d="M157.3,500.2h-2.8v-17.1h2.8V500.2z"/>
	</g>
	<g>
		<path class="st0" d="M167.1,500.2v-17.1h5.5c2.2,0,3.9,0.7,5.3,2s2,3.1,2,5.2v2.6c0,2.1-0.7,3.9-2,5.2s-3.1,2-5.3,2L167.1,500.2
			L167.1,500.2z M170,485.4v12.5h2.6c1.4,0,2.5-0.5,3.3-1.4s1.2-2.1,1.2-3.6v-2.6c0-1.4-0.4-2.6-1.2-3.5s-1.9-1.4-3.3-1.4H170z"/>
	</g>
	<g>
		<path class="st0" d="M188,500.5c-1.8,0-3.2-0.6-4.3-1.8s-1.6-2.7-1.6-4.5v-0.5c0-1.8,0.5-3.4,1.6-4.6s2.4-1.8,4-1.8
			c1.7,0,3,0.5,3.9,1.6s1.4,2.4,1.4,4.2v1.7h-8v0.1c0,1,0.3,1.8,0.9,2.5s1.3,1,2.3,1c0.8,0,1.4-0.1,2-0.3s1.1-0.5,1.6-0.8l0.9,1.9
			c-0.5,0.4-1.1,0.8-1.9,1.1C189.9,500.3,189,500.5,188,500.5z M187.7,489.6c-0.7,0-1.3,0.3-1.7,0.8s-0.7,1.3-0.8,2.1v0.1h5v-0.3
			c0-0.8-0.2-1.5-0.6-2S188.5,489.6,187.7,489.6z"/>
	</g>
	<g>
		<path class="st0" d="M202.4,496.8c0-0.4-0.2-0.8-0.6-1.1s-1.1-0.5-2.1-0.8c-1.5-0.3-2.7-0.8-3.4-1.4s-1.2-1.4-1.2-2.4
			c0-1.1,0.4-2,1.3-2.7s2.1-1.1,3.6-1.1s2.8,0.4,3.7,1.1s1.3,1.7,1.3,2.8v0.1h-2.7c0-0.5-0.2-1-0.6-1.3s-0.9-0.6-1.6-0.6
			c-0.7,0-1.2,0.2-1.6,0.5s-0.5,0.7-0.5,1.1s0.2,0.8,0.5,1.1s1,0.5,2.1,0.7c1.6,0.3,2.8,0.8,3.5,1.4s1.2,1.4,1.2,2.4
			c0,1.1-0.5,2.1-1.4,2.8s-2.2,1.1-3.7,1.1c-1.6,0-2.9-0.4-3.9-1.3s-1.4-1.8-1.4-2.9v-0.1h2.6c0,0.7,0.3,1.3,0.8,1.6
			s1.1,0.5,1.8,0.5s1.3-0.1,1.7-0.4S202.4,497.3,202.4,496.8z"/>
	</g>
	<g>
		<path class="st0" d="M210.8,484.4H208v-2.5h2.8V484.4z M210.8,500.2H208v-12.7h2.8V500.2z"/>
	</g>
	<g>
		<path class="st0" d="M213.4,494.1c0-2,0.4-3.6,1.3-4.9s2.1-1.9,3.7-1.9c0.8,0,1.4,0.2,2,0.5s1.1,0.8,1.5,1.4l0.3-1.7h2.4v12.7
			c0,1.6-0.5,2.9-1.5,3.8s-2.4,1.3-4.3,1.3c-0.6,0-1.3-0.1-2-0.3s-1.4-0.4-1.9-0.7l0.6-2.2c0.5,0.2,1,0.4,1.6,0.6s1.2,0.2,1.8,0.2
			c1,0,1.8-0.2,2.3-0.7s0.7-1.1,0.7-2v-1.3c-0.4,0.5-0.9,0.9-1.4,1.2s-1.2,0.4-1.9,0.4c-1.6,0-2.8-0.6-3.7-1.7s-1.3-2.6-1.3-4.5
			v-0.2H213.4z M216.3,494.3c0,1.2,0.2,2.1,0.7,2.8s1.2,1,2.2,1c0.6,0,1.1-0.1,1.5-0.4s0.8-0.6,1-1.1V491c-0.3-0.5-0.6-0.8-1-1.1
			s-0.9-0.4-1.5-0.4c-1,0-1.7,0.4-2.2,1.2s-0.7,1.9-0.7,3.2V494.3z"/>
	</g>
	<g>
		<path class="st0" d="M230.1,487.5l0.2,1.8c0.4-0.6,0.9-1.2,1.6-1.5s1.3-0.5,2.1-0.5c1.3,0,2.3,0.4,3.1,1.2s1.1,2,1.1,3.7v8h-2.8
			v-7.9c0-1-0.2-1.6-0.6-2s-1-0.6-1.8-0.6c-0.6,0-1.1,0.1-1.5,0.4s-0.8,0.6-1.1,1v9.2h-2.8v-12.7h2.5V487.5z"/>
	</g>
</g>
<g>
	<g>
		<path class="st0" d="M96.3,341.7L96.3,341.7L96.3,341.7l3.4-12.5h2.3l3.4,12.5v0.1v-0.1l2.7-12.5h2.8l-4.1,17.1h-2.6l-3.4-12.2
			h-0.1l-3.4,12.2h-2.6l-4-17.1h2.8L96.3,341.7z"/>
	</g>
	<g>
		<path class="st0" d="M118.1,346.5c-1.8,0-3.2-0.6-4.3-1.8s-1.6-2.7-1.6-4.5v-0.5c0-1.8,0.5-3.4,1.6-4.6s2.4-1.8,4-1.8
			c1.7,0,3,0.5,3.9,1.6s1.4,2.4,1.4,4.2v1.7h-7.9v0.1c0,1,0.3,1.8,0.9,2.5s1.3,1,2.3,1c0.8,0,1.4-0.1,2-0.3s1.1-0.5,1.6-0.8l0.9,1.9
			c-0.5,0.4-1.1,0.8-1.9,1.1C120,346.3,119.1,346.5,118.1,346.5z M117.8,335.6c-0.7,0-1.3,0.3-1.7,0.8s-0.7,1.3-0.8,2.1v0.1h5v-0.3
			c0-0.8-0.2-1.5-0.6-2S118.6,335.6,117.8,335.6z"/>
	</g>
	<g>
		<path class="st0" d="M136.5,340.3c0,1.9-0.4,3.3-1.3,4.5s-2.1,1.7-3.7,1.7c-0.8,0-1.5-0.2-2.1-0.5s-1.1-0.8-1.5-1.4l-0.3,1.6h-2.4
			v-18.3h2.8v7c0.4-0.5,0.9-1,1.4-1.2s1.2-0.4,1.9-0.4c1.6,0,2.8,0.6,3.7,1.9s1.3,2.9,1.3,4.9v0.2H136.5z M133.6,340.1
			c0-1.3-0.2-2.4-0.7-3.2s-1.2-1.2-2.2-1.2c-0.6,0-1.2,0.1-1.6,0.4s-0.8,0.7-1,1.2v5.3c0.2,0.5,0.6,0.9,1,1.2s1,0.4,1.6,0.4
			c1,0,1.7-0.3,2.1-1s0.7-1.6,0.7-2.8L133.6,340.1L133.6,340.1z"/>
	</g>
	<g>
		<path class="st0" d="M145.3,346.2v-17.1h5.5c2.2,0,3.9,0.7,5.3,2s2,3.1,2,5.2v2.6c0,2.1-0.7,3.9-2,5.2s-3.1,2-5.3,2L145.3,346.2
			L145.3,346.2z M148.1,331.4v12.5h2.6c1.4,0,2.5-0.5,3.3-1.4s1.2-2.1,1.2-3.6v-2.6c0-1.4-0.4-2.6-1.2-3.5s-1.9-1.4-3.3-1.4H148.1z"
			/>
	</g>
	<g>
		<path class="st0" d="M166.1,346.5c-1.8,0-3.2-0.6-4.3-1.8s-1.6-2.7-1.6-4.5v-0.5c0-1.8,0.5-3.4,1.6-4.6s2.4-1.8,4-1.8
			c1.7,0,3,0.5,3.9,1.6s1.4,2.4,1.4,4.2v1.7h-7.9v0.1c0,1,0.3,1.8,0.9,2.5s1.3,1,2.3,1c0.8,0,1.4-0.1,2-0.3s1.1-0.5,1.6-0.8l0.9,1.9
			c-0.5,0.4-1.1,0.8-1.9,1.1C168.1,346.3,167.2,346.5,166.1,346.5z M165.8,335.6c-0.7,0-1.3,0.3-1.7,0.8s-0.7,1.3-0.8,2.1v0.1h5
			v-0.3c0-0.8-0.2-1.5-0.6-2S166.6,335.6,165.8,335.6z"/>
	</g>
	<g>
		<path class="st0" d="M177.6,341.9l0.2,1h0.1l0.2-1l2.5-8.4h2.9l-4.5,12.7h-2.5l-4.5-12.7h2.9L177.6,341.9z"/>
	</g>
	<g>
		<path class="st0" d="M190.7,346.5c-1.8,0-3.2-0.6-4.3-1.8s-1.6-2.7-1.6-4.5v-0.5c0-1.8,0.5-3.4,1.6-4.6s2.4-1.8,4-1.8
			c1.7,0,3,0.5,3.9,1.6s1.4,2.4,1.4,4.2v1.7h-7.9v0.1c0,1,0.3,1.8,0.9,2.5s1.3,1,2.3,1c0.8,0,1.4-0.1,2-0.3s1.1-0.5,1.6-0.8l0.9,1.9
			c-0.5,0.4-1.1,0.8-1.9,1.1C192.6,346.3,191.7,346.5,190.7,346.5z M190.3,335.6c-0.7,0-1.3,0.3-1.7,0.8s-0.7,1.3-0.8,2.1v0.1h5
			v-0.3c0-0.8-0.2-1.5-0.6-2S191.2,335.6,190.3,335.6z"/>
	</g>
	<g>
		<path class="st0" d="M201,346.2h-2.8v-18.3h2.8V346.2z"/>
	</g>
	<g>
		<path class="st0" d="M203.6,339.8c0-1.9,0.5-3.4,1.5-4.6s2.5-1.8,4.3-1.8s3.2,0.6,4.3,1.8c1,1.2,1.6,2.8,1.6,4.6v0.2
			c0,1.9-0.5,3.5-1.6,4.7c-1,1.2-2.4,1.8-4.3,1.8c-1.8,0-3.2-0.6-4.3-1.8c-1-1.2-1.5-2.8-1.5-4.7V339.8z M206.5,340
			c0,1.2,0.2,2.2,0.7,3s1.2,1.2,2.3,1.2c1,0,1.7-0.4,2.2-1.2c0.5-0.8,0.8-1.8,0.8-3v-0.2c0-1.2-0.3-2.2-0.8-3s-1.2-1.2-2.3-1.2
			c-1,0-1.7,0.4-2.2,1.2c-0.5,0.8-0.7,1.8-0.7,3V340z"/>
	</g>
	<g>
		<path class="st0" d="M228.9,340.3c0,1.8-0.4,3.3-1.3,4.5s-2.1,1.7-3.6,1.7c-0.7,0-1.4-0.1-1.9-0.4s-1-0.6-1.4-1.1v6.2h-2.8v-17.6
			h2.4l0.3,1.6c0.4-0.6,0.9-1,1.5-1.4s1.2-0.5,2-0.5c1.6,0,2.8,0.6,3.7,1.9s1.3,2.9,1.3,4.9v0.2H228.9z M226,340.1
			c0-1.3-0.2-2.4-0.7-3.2s-1.2-1.2-2.2-1.2c-0.6,0-1.1,0.1-1.5,0.4s-0.7,0.6-1,1.1v5.7c0.3,0.4,0.6,0.8,1,1s0.9,0.4,1.5,0.4
			c1,0,1.7-0.4,2.2-1.1s0.7-1.7,0.7-2.8V340.1z"/>
	</g>
	<g>
		<path class="st0" d="M234,333.5l0.2,1.7c0.4-0.6,0.9-1.1,1.6-1.4s1.3-0.5,2.2-0.5c0.8,0,1.5,0.2,2.1,0.6s1,0.9,1.3,1.7
			c0.4-0.7,0.9-1.3,1.5-1.7s1.4-0.6,2.3-0.6c1.3,0,2.3,0.4,3,1.3s1.1,2.2,1.1,4v7.6h-2.8v-7.7c0-1.1-0.2-1.8-0.6-2.3
			s-0.9-0.7-1.7-0.7c-0.6,0-1.1,0.2-1.5,0.5s-0.7,0.8-0.9,1.3c0,0.1,0,0.2,0,0.3s0,0.2,0,0.2v8.2H239v-7.7c0-1-0.2-1.8-0.6-2.2
			s-0.9-0.7-1.7-0.7c-0.6,0-1.1,0.1-1.5,0.3s-0.7,0.5-1,0.9v9.3h-2.8v-12.7h2.6V333.5z"/>
	</g>
	<g>
		<path class="st0" d="M257.7,346.5c-1.8,0-3.2-0.6-4.3-1.8s-1.6-2.7-1.6-4.5v-0.5c0-1.8,0.5-3.4,1.6-4.6s2.4-1.8,4-1.8
			c1.7,0,3,0.5,3.9,1.6s1.4,2.4,1.4,4.2v1.7h-7.9v0.1c0,1,0.3,1.8,0.9,2.5c0.6,0.7,1.3,1,2.3,1c0.8,0,1.4-0.1,2-0.3s1.1-0.5,1.6-0.8
			l0.9,1.9c-0.5,0.4-1.1,0.8-1.9,1.1C259.6,346.3,258.7,346.5,257.7,346.5z M257.3,335.6c-0.7,0-1.3,0.3-1.7,0.8s-0.7,1.3-0.8,2.1
			v0.1h5v-0.3c0-0.8-0.2-1.5-0.6-2S258.2,335.6,257.3,335.6z"/>
	</g>
	<g>
		<path class="st0" d="M267.5,333.5l0.2,1.8c0.4-0.6,0.9-1.2,1.6-1.5s1.3-0.5,2.1-0.5c1.3,0,2.3,0.4,3.1,1.2s1.1,2,1.1,3.7v8h-2.8
			v-7.9c0-1-0.2-1.6-0.6-2s-1-0.6-1.8-0.6c-0.6,0-1.1,0.1-1.5,0.4s-0.8,0.6-1.1,1v9.2H265v-12.7h2.5V333.5z"/>
	</g>
	<g>
		<path class="st0" d="M282.1,330.5v3.1h2.3v2.1h-2.3v7c0,0.5,0.1,0.9,0.3,1.1s0.5,0.3,0.9,0.3c0.2,0,0.3,0,0.5,0s0.3-0.1,0.4-0.1
			l0.3,2.1c-0.2,0.1-0.5,0.2-0.9,0.3s-0.7,0.1-1,0.1c-1,0-1.9-0.3-2.5-0.9s-0.9-1.6-0.9-2.9v-7h-1.9v-2.1h1.9v-3.1H282.1z"/>
	</g>
</g>
<g>
	<g>
		<path class="st0" d="M487.1,138.1h-6.7l-1.4,4h-2.9l6.3-17.1h2.7l6.2,17.1h-2.9L487.1,138.1z M481.2,135.7h5.1l-2.5-7.3h-0.1
			L481.2,135.7z"/>
	</g>
	<g>
		<path class="st0" d="M492.4,135.9c0-2,0.4-3.7,1.3-4.9s2.1-1.9,3.7-1.9c0.7,0,1.3,0.1,1.8,0.4s1,0.7,1.4,1.2v-7h2.8V142H501
			l-0.3-1.6c-0.4,0.6-0.9,1-1.5,1.4s-1.2,0.5-2,0.5c-1.6,0-2.8-0.6-3.6-1.7c-0.9-1.1-1.3-2.6-1.3-4.5v-0.2H492.4z M495.3,136.2
			c0,1.2,0.2,2.1,0.7,2.8s1.2,1,2.1,1c0.6,0,1.1-0.1,1.5-0.4s0.8-0.6,1-1.1V133c-0.3-0.5-0.6-0.8-1-1.1s-0.9-0.4-1.5-0.4
			c-1,0-1.7,0.4-2.1,1.2s-0.7,1.9-0.7,3.2V136.2z"/>
	</g>
	<g>
		<path class="st0" d="M512.9,142.1V125h5.5c2.2,0,3.9,0.7,5.3,2s2,3.1,2,5.2v2.6c0,2.1-0.7,3.9-2,5.2s-3.1,2-5.3,2h-5.5V142.1z
			 M515.7,127.3v12.5h2.6c1.4,0,2.5-0.5,3.3-1.4s1.2-2.1,1.2-3.6v-2.6c0-1.4-0.4-2.6-1.2-3.5c-0.8-0.9-1.9-1.4-3.3-1.4
			C518.3,127.3,515.7,127.3,515.7,127.3z"/>
	</g>
	<g>
		<path class="st0" d="M533.7,142.3c-1.8,0-3.2-0.6-4.3-1.8s-1.6-2.7-1.6-4.5v-0.5c0-1.8,0.5-3.4,1.6-4.6s2.4-1.8,4-1.8
			c1.7,0,3,0.5,3.9,1.6s1.4,2.4,1.4,4.2v1.7h-7.9v0.1c0,1,0.3,1.8,0.9,2.5c0.5,0.6,1.3,1,2.3,1c0.8,0,1.4-0.1,2-0.3s1.1-0.5,1.6-0.8
			l0.9,1.9c-0.5,0.4-1.1,0.8-1.9,1.1C535.7,142.2,534.8,142.3,533.7,142.3z M533.4,131.5c-0.7,0-1.3,0.3-1.7,0.8s-0.7,1.3-0.8,2.1
			v0.1h5v-0.3c0-0.8-0.2-1.5-0.6-2S534.2,131.5,533.4,131.5z"/>
	</g>
	<g>
		<path class="st0" d="M548.1,138.6c0-0.4-0.2-0.8-0.6-1.1s-1.1-0.5-2.1-0.8c-1.5-0.3-2.7-0.8-3.4-1.4s-1.2-1.4-1.2-2.4
			c0-1.1,0.4-2,1.3-2.7s2.1-1.1,3.6-1.1s2.8,0.4,3.7,1.1s1.3,1.7,1.3,2.8v0.1H548c0-0.5-0.2-1-0.6-1.3s-0.9-0.6-1.6-0.6
			c-0.7,0-1.2,0.2-1.6,0.5s-0.5,0.7-0.5,1.1s0.2,0.8,0.5,1.1s1,0.5,2.1,0.7c1.6,0.3,2.8,0.8,3.5,1.4s1.2,1.4,1.2,2.4
			c0,1.1-0.5,2.1-1.4,2.8s-2.2,1.1-3.7,1.1c-1.6,0-2.9-0.4-3.9-1.3s-1.4-1.8-1.4-2.9V138h2.6c0,0.7,0.3,1.3,0.8,1.6s1.1,0.5,1.8,0.5
			s1.3-0.1,1.7-0.4S548.1,139.1,548.1,138.6z"/>
	</g>
	<g>
		<path class="st0" d="M556.5,126.3h-2.8v-2.5h2.8V126.3z M556.5,142.1h-2.8v-12.7h2.8V142.1z"/>
	</g>
	<g>
		<path class="st0" d="M559.2,135.9c0-2,0.4-3.6,1.3-4.9s2.1-1.9,3.7-1.9c0.8,0,1.4,0.2,2,0.5s1.1,0.8,1.5,1.4l0.3-1.7h2.4V142
			c0,1.6-0.5,2.9-1.5,3.8s-2.4,1.3-4.3,1.3c-0.6,0-1.3-0.1-2-0.3s-1.4-0.4-1.9-0.7l0.6-2.2c0.5,0.2,1,0.4,1.6,0.6s1.2,0.2,1.8,0.2
			c1,0,1.8-0.2,2.3-0.7s0.7-1.1,0.7-2v-1.3c-0.4,0.5-0.9,0.9-1.4,1.2s-1.2,0.4-1.9,0.4c-1.6,0-2.8-0.6-3.7-1.7s-1.3-2.6-1.3-4.5
			v-0.2H559.2z M562,136.2c0,1.2,0.2,2.1,0.7,2.8s1.2,1,2.2,1c0.6,0,1.1-0.1,1.5-0.4s0.8-0.6,1-1.1V133c-0.3-0.5-0.6-0.8-1-1.1
			s-0.9-0.4-1.5-0.4c-1,0-1.7,0.4-2.2,1.2s-0.7,1.9-0.7,3.2V136.2z"/>
	</g>
	<g>
		<path class="st0" d="M575.9,129.4l0.2,1.8c0.4-0.6,0.9-1.2,1.6-1.5s1.3-0.5,2.1-0.5c1.3,0,2.3,0.4,3.1,1.2s1.1,2,1.1,3.7v8h-2.8
			v-7.9c0-1-0.2-1.6-0.6-2s-1-0.6-1.8-0.6c-0.6,0-1.1,0.1-1.5,0.4s-0.8,0.6-1.1,1v9.2h-2.8v-12.7L575.9,129.4L575.9,129.4z"/>
	</g>
</g>
<path class="st1" d="M1308.2,377.3v-74.7h0v-12.5c0-7.3-6-13.3-13.3-13.3H1022c-7.3,0-13.3,6-13.3,13.3v94.5c0,7.3,6,13.3,13.3,13.3
	h273c7.3,0,13.3-6,13.3-13.3v-7.3H1308.2z"/>
<path class="st1" d="M1308.2,528.4v-74.7h0v-9.6c0-7.3-6-13.3-13.3-13.3H1022c-7.3,0-13.3,6-13.3,13.3v94.5c0,7.3,6,13.3,13.3,13.3
	h273c7.3,0,13.3-6,13.3-13.3v-10.2H1308.2z"/>
<path class="st1" d="M1649.9,352.2H1377c-7.3,0-13.3,6-13.3,13.3v7.2v8.1c0,0.4,0,0.9,0,1.3v61.2c0,0.4,0,0.9,0,1.3v2.7V460
	c0,7.3,6,13.3,13.3,13.3h272.9c7.3,0,13.3-6,13.3-13.3v-94.5C1663.3,358.2,1657.3,352.2,1649.9,352.2z"/>
<g>
	<path class="st2" d="M1672,180.3v60.8h-21l-1.8-40.6h-301.8V587l32.3,2.6V607h-88.4v-17.4l32.3-2.6V200.5h-296.8l-1.6,40.6H1004
		v-60.8H1672z"/>
</g>
<path class="st1" d="M1319.6,163h-281.3c-5,0-9.1-4.1-9.1-9.1v-38.7c0-5,4.1-9.1,9.1-9.1h281.3c5,0,9.1,4.1,9.1,9.1v38.7
	C1328.8,158.9,1324.7,163,1319.6,163z"/>
<path class="st1" d="M1637.7,163h-281.3c-5,0-9.1-4.1-9.1-9.1v-38.7c0-5,4.1-9.1,9.1-9.1h281.3c5,0,9.1,4.1,9.1,9.1v38.7
	C1646.8,158.9,1642.7,163,1637.7,163z"/>
<path class="st1" d="M1319.6,86.9h-281.3c-5,0-9.1-4.1-9.1-9.1V39.1c0-5,4.1-9.1,9.1-9.1h281.3c5,0,9.1,4.1,9.1,9.1v38.7
	C1328.8,82.8,1324.7,86.9,1319.6,86.9z"/>
<path class="st1" d="M1637.7,86.9h-281.3c-5,0-9.1-4.1-9.1-9.1V39.1c0-5,4.1-9.1,9.1-9.1h281.3c5,0,9.1,4.1,9.1,9.1v38.7
	C1646.8,82.8,1642.7,86.9,1637.7,86.9z"/>
<g>
	<path class="st2" d="M1105.9,60.9v6.5h-2.8v-17h6.7c1.9,0,3.4,0.5,4.4,1.5s1.6,2.3,1.6,3.8c0,1.6-0.5,2.9-1.6,3.8
		c-1.1,0.9-2.5,1.4-4.4,1.4H1105.9z M1105.9,58.7h3.8c1.1,0,1.8-0.3,2.4-0.8s0.8-1.3,0.8-2.1s-0.3-1.6-0.8-2.2s-1.3-0.9-2.4-0.9
		h-3.8V58.7z"/>
	<path class="st2" d="M1121,56.4c0.4-0.6,0.9-1.1,1.5-1.4s1.3-0.5,2-0.5c1.3,0,2.4,0.4,3.1,1.3c0.7,0.9,1.1,2.2,1.1,3.9v7.7h-2.7
		v-7.7c0-1-0.2-1.7-0.6-2.2s-1-0.7-1.8-0.7c-0.6,0-1.1,0.1-1.5,0.3s-0.8,0.5-1.1,1v9.3h-2.8V49.1h2.8V56.4L1121,56.4z"/>
	<path class="st2" d="M1131.3,61c0-1.9,0.5-3.4,1.5-4.6c1-1.2,2.5-1.8,4.3-1.8c1.8,0,3.2,0.6,4.3,1.8c1,1.2,1.6,2.8,1.6,4.6v0.2
		c0,1.9-0.5,3.5-1.6,4.7c-1,1.2-2.4,1.8-4.3,1.8c-1.8,0-3.2-0.6-4.3-1.8c-1-1.2-1.5-2.8-1.5-4.7V61z M1134.1,61.2
		c0,1.2,0.2,2.2,0.7,3c0.5,0.8,1.2,1.2,2.3,1.2c1,0,1.7-0.4,2.2-1.2c0.5-0.8,0.8-1.8,0.8-3V61c0-1.2-0.3-2.2-0.8-3s-1.2-1.2-2.3-1.2
		c-1,0-1.7,0.4-2.2,1.2s-0.7,1.8-0.7,3V61.2z"/>
	<path class="st2" d="M1148.9,51.7v3.1h2.3v2.1h-2.3v7c0,0.5,0.1,0.9,0.3,1.1c0.2,0.2,0.5,0.3,0.9,0.3c0.2,0,0.3,0,0.5,0
		c0.2,0,0.3-0.1,0.4-0.1l0.3,2.1c-0.2,0.1-0.5,0.2-0.9,0.3s-0.7,0.1-1,0.1c-1,0-1.9-0.3-2.5-0.9s-0.9-1.6-0.9-2.9v-7h-1.9v-2.1h1.9
		v-3.1C1146,51.7,1148.9,51.7,1148.9,51.7z"/>
	<path class="st2" d="M1153.2,61c0-1.9,0.5-3.4,1.5-4.6c1-1.2,2.5-1.8,4.3-1.8s3.2,0.6,4.3,1.8c1,1.2,1.6,2.8,1.6,4.6v0.2
		c0,1.9-0.5,3.5-1.6,4.7c-1,1.2-2.4,1.8-4.3,1.8c-1.8,0-3.2-0.6-4.3-1.8c-1-1.2-1.5-2.8-1.5-4.7V61z M1156.1,61.2
		c0,1.2,0.2,2.2,0.7,3c0.5,0.8,1.2,1.2,2.3,1.2c1,0,1.7-0.4,2.2-1.2c0.5-0.8,0.8-1.8,0.8-3V61c0-1.2-0.3-2.2-0.8-3s-1.2-1.2-2.3-1.2
		c-1,0-1.7,0.4-2.2,1.2s-0.7,1.8-0.7,3V61.2z"/>
	<path class="st2" d="M1166.8,61.3c0-2,0.4-3.6,1.3-4.9s2.1-1.9,3.7-1.9c0.8,0,1.4,0.2,2,0.5c0.6,0.3,1.1,0.8,1.5,1.4l0.3-1.7h2.4
		v12.7c0,1.6-0.5,2.9-1.5,3.8s-2.4,1.3-4.3,1.3c-0.6,0-1.3-0.1-2-0.3c-0.7-0.2-1.4-0.4-1.9-0.7l0.6-2.2c0.5,0.2,1,0.4,1.6,0.6
		s1.2,0.2,1.8,0.2c1,0,1.8-0.2,2.3-0.7s0.7-1.1,0.7-2v-1.3c-0.4,0.5-0.9,0.9-1.4,1.2s-1.2,0.4-1.9,0.4c-1.6,0-2.8-0.6-3.7-1.7
		s-1.3-2.6-1.3-4.5v-0.2H1166.8z M1169.7,61.5c0,1.2,0.2,2.1,0.7,2.8s1.2,1,2.2,1c0.6,0,1.1-0.1,1.5-0.4s0.8-0.6,1-1.1v-5.6
		c-0.3-0.5-0.6-0.8-1-1.1s-0.9-0.4-1.5-0.4c-1,0-1.7,0.4-2.2,1.2s-0.7,1.9-0.7,3.2V61.5z"/>
	<path class="st2" d="M1187.2,57.3h-1.2c-0.6,0-1,0.1-1.4,0.4s-0.7,0.6-0.9,1v8.8h-2.8V54.7h2.6l0.2,1.8c0.3-0.6,0.7-1.2,1.2-1.5
		s1.1-0.6,1.7-0.6c0.2,0,0.3,0,0.5,0c0.2,0,0.3,0.1,0.4,0.1L1187.2,57.3z"/>
	<path class="st2" d="M1196.9,67.4c-0.1-0.3-0.2-0.6-0.3-0.9s-0.1-0.6-0.1-0.9c-0.4,0.6-0.9,1.1-1.5,1.5s-1.3,0.6-2.1,0.6
		c-1.3,0-2.3-0.3-3-1c-0.7-0.7-1.1-1.6-1.1-2.8s0.5-2.2,1.5-2.9s2.3-1,4.1-1h2.2v-1.1c0-0.7-0.2-1.2-0.6-1.6s-0.9-0.6-1.7-0.6
		c-0.6,0-1.2,0.2-1.5,0.5c-0.3,0.3-0.6,0.7-0.6,1.2h-2.7v-0.1c-0.1-1,0.4-1.9,1.3-2.7s2.2-1.2,3.7-1.2s2.7,0.4,3.6,1.1
		s1.4,1.8,1.4,3.2v5.6c0,0.5,0,1,0.1,1.5s0.2,1,0.3,1.4h-3V67.4z M1193.4,65.4c0.7,0,1.4-0.2,1.9-0.5s1-0.8,1.1-1.2v-1.9h-2.3
		c-0.8,0-1.5,0.2-1.9,0.6c-0.4,0.4-0.7,0.9-0.7,1.4c0,0.5,0.2,0.9,0.5,1.2S1192.8,65.4,1193.4,65.4z"/>
	<path class="st2" d="M1213.4,61.5c0,1.8-0.4,3.3-1.3,4.5s-2.1,1.7-3.6,1.7c-0.7,0-1.4-0.1-1.9-0.4s-1-0.6-1.4-1.1v6.2h-2.8V54.7
		h2.4l0.3,1.6c0.4-0.6,0.9-1,1.5-1.4s1.2-0.5,2-0.5c1.6,0,2.8,0.6,3.7,1.9c0.9,1.3,1.3,2.9,1.3,4.9v0.3H1213.4z M1210.6,61.2
		c0-1.3-0.2-2.4-0.7-3.2s-1.2-1.2-2.2-1.2c-0.6,0-1.1,0.1-1.5,0.4c-0.4,0.3-0.7,0.6-1,1.1V64c0.3,0.4,0.6,0.8,1,1
		c0.4,0.2,0.9,0.4,1.5,0.4c1,0,1.7-0.4,2.2-1.1s0.7-1.7,0.7-2.8V61.2z"/>
	<path class="st2" d="M1218.7,56.4c0.4-0.6,0.9-1.1,1.5-1.4c0.6-0.3,1.3-0.5,2-0.5c1.3,0,2.4,0.4,3.1,1.3c0.7,0.9,1.1,2.2,1.1,3.9
		v7.7h-2.8v-7.7c0-1-0.2-1.7-0.6-2.2s-1-0.7-1.8-0.7c-0.6,0-1.1,0.1-1.5,0.3c-0.4,0.2-0.8,0.5-1.1,1v9.3h-2.8V49.1h2.8L1218.7,56.4
		L1218.7,56.4z"/>
	<path class="st2" d="M1233.7,62.3l0.3,1.3h0.1l2.8-8.9h3.1l-5.3,14.6c-0.3,0.9-0.8,1.6-1.4,2.3c-0.6,0.7-1.5,0.9-2.6,0.9
		c-0.2,0-0.5,0-0.8-0.1s-0.5-0.1-0.8-0.2l0.3-2.2c0.1,0,0.2,0,0.4,0s0.3,0,0.4,0c0.5,0,0.9-0.2,1.2-0.5s0.6-0.8,0.8-1.2l0.5-1.1
		l-4.6-12.5h3.1L1233.7,62.3z"/>
</g>
<g>
	<path class="st2" d="M1439.1,63l0.3,1.2h0.1l0.3-1.2l4.1-12.6h3l-6.1,17.1h-2.7l-6.1-17.1h3L1439.1,63z"/>
	<path class="st2" d="M1451.6,51.6h-2.8v-2.5h2.8V51.6z M1451.6,67.4h-2.8V54.7h2.8V67.4z"/>
	<path class="st2" d="M1454.3,61.3c0-2,0.4-3.7,1.3-4.9s2.1-1.9,3.7-1.9c0.7,0,1.3,0.1,1.8,0.4s1,0.7,1.4,1.2v-7h2.8v18.3h-2.4
		l-0.3-1.6c-0.4,0.6-0.9,1-1.5,1.4s-1.2,0.5-2,0.5c-1.6,0-2.8-0.6-3.6-1.7s-1.3-2.6-1.3-4.5v-0.2H1454.3z M1457.1,61.5
		c0,1.2,0.2,2.1,0.7,2.8s1.2,1,2.1,1c0.6,0,1.1-0.1,1.5-0.4s0.8-0.6,1-1.1v-5.5c-0.3-0.5-0.6-0.8-1-1.1s-0.9-0.4-1.5-0.4
		c-1,0-1.7,0.4-2.1,1.2c-0.4,0.8-0.7,1.9-0.7,3.2V61.5z"/>
	<path class="st2" d="M1473.8,67.7c-1.8,0-3.2-0.6-4.3-1.8s-1.6-2.7-1.6-4.5v-0.5c0-1.8,0.5-3.4,1.6-4.6s2.4-1.8,4-1.8
		c1.7,0,3,0.5,3.9,1.6s1.4,2.4,1.4,4.2V62h-7.9v0.1c0,1,0.3,1.8,0.9,2.5c0.5,0.6,1.3,1,2.3,1c0.8,0,1.4-0.1,2-0.3s1.1-0.5,1.6-0.8
		l0.9,1.9c-0.5,0.4-1.1,0.8-1.9,1.1C1475.8,67.5,1474.9,67.7,1473.8,67.7z M1473.5,56.8c-0.7,0-1.3,0.3-1.7,0.8
		c-0.4,0.5-0.7,1.3-0.8,2.1v0.1h5v-0.3c0-0.8-0.2-1.5-0.6-2S1474.3,56.8,1473.5,56.8z"/>
	<path class="st2" d="M1480.6,61c0-1.9,0.5-3.4,1.5-4.6c1-1.2,2.5-1.8,4.3-1.8c1.8,0,3.2,0.6,4.3,1.8c1,1.2,1.6,2.8,1.6,4.6v0.2
		c0,1.9-0.5,3.5-1.6,4.7c-1,1.2-2.4,1.8-4.3,1.8c-1.8,0-3.2-0.6-4.3-1.8c-1-1.2-1.5-2.8-1.5-4.7V61L1480.6,61z M1483.4,61.2
		c0,1.2,0.2,2.2,0.7,3c0.5,0.8,1.2,1.2,2.3,1.2c1,0,1.7-0.4,2.2-1.2c0.5-0.8,0.8-1.8,0.8-3V61c0-1.2-0.3-2.2-0.8-3s-1.2-1.2-2.3-1.2
		c-1,0-1.7,0.4-2.2,1.2s-0.7,1.8-0.7,3V61.2z"/>
	<path class="st2" d="M1494.2,61.3c0-2,0.4-3.6,1.3-4.9s2.1-1.9,3.7-1.9c0.8,0,1.4,0.2,2,0.5c0.6,0.3,1.1,0.8,1.5,1.4l0.3-1.7h2.4
		v12.7c0,1.6-0.5,2.9-1.5,3.8s-2.4,1.3-4.3,1.3c-0.6,0-1.3-0.1-2-0.3c-0.7-0.2-1.4-0.4-1.9-0.7l0.6-2.2c0.5,0.2,1,0.4,1.6,0.6
		c0.6,0.2,1.2,0.2,1.8,0.2c1,0,1.8-0.2,2.3-0.7s0.7-1.1,0.7-2v-1.3c-0.4,0.5-0.9,0.9-1.4,1.2s-1.2,0.4-1.9,0.4
		c-1.6,0-2.8-0.6-3.7-1.7c-0.9-1.1-1.3-2.6-1.3-4.5v-0.2H1494.2z M1497,61.5c0,1.2,0.2,2.1,0.7,2.8s1.2,1,2.2,1
		c0.6,0,1.1-0.1,1.5-0.4s0.8-0.6,1-1.1v-5.6c-0.3-0.5-0.6-0.8-1-1.1s-0.9-0.4-1.5-0.4c-1,0-1.7,0.4-2.2,1.2s-0.7,1.9-0.7,3.2V61.5z"
		/>
	<path class="st2" d="M1514.6,57.3h-1.2c-0.6,0-1,0.1-1.4,0.4c-0.4,0.3-0.7,0.6-0.9,1v8.8h-2.8V54.7h2.6l0.2,1.8
		c0.3-0.6,0.7-1.2,1.2-1.5s1.1-0.6,1.7-0.6c0.2,0,0.3,0,0.5,0c0.2,0,0.3,0.1,0.4,0.1L1514.6,57.3z"/>
	<path class="st2" d="M1524.2,67.4c-0.1-0.3-0.2-0.6-0.3-0.9s-0.1-0.6-0.1-0.9c-0.4,0.6-0.9,1.1-1.5,1.5s-1.3,0.6-2.1,0.6
		c-1.3,0-2.3-0.3-3-1s-1.2-1.7-1.2-2.9s0.5-2.2,1.5-2.9s2.3-1,4.1-1h2.2v-1.1c0-0.7-0.2-1.2-0.6-1.6c-0.4-0.4-0.9-0.6-1.7-0.6
		c-0.6,0-1.2,0.2-1.5,0.5s-0.6,0.7-0.6,1.2h-2.7v-0.1c-0.1-1,0.4-1.9,1.3-2.7s2.2-1.2,3.7-1.2s2.7,0.4,3.6,1.1
		c0.9,0.7,1.4,1.8,1.4,3.2v5.6c0,0.5,0,1,0.1,1.5c0.1,0.5,0.2,1,0.3,1.4h-2.9V67.4z M1520.7,65.4c0.7,0,1.4-0.2,1.9-0.5
		s1-0.8,1.1-1.2v-1.9h-2.3c-0.8,0-1.5,0.2-1.9,0.6s-0.7,0.9-0.7,1.4c0,0.5,0.2,0.9,0.5,1.2C1519.6,65.3,1520.1,65.4,1520.7,65.4z"/>
	<path class="st2" d="M1540.8,61.5c0,1.8-0.4,3.3-1.3,4.5s-2.1,1.7-3.6,1.7c-0.7,0-1.4-0.1-1.9-0.4s-1-0.6-1.4-1.1v6.2h-2.8V54.7
		h2.4l0.3,1.6c0.4-0.6,0.9-1,1.5-1.4s1.2-0.5,2-0.5c1.6,0,2.8,0.6,3.7,1.9c0.9,1.3,1.3,2.9,1.3,4.9v0.3H1540.8z M1537.9,61.2
		c0-1.3-0.2-2.4-0.7-3.2s-1.2-1.2-2.2-1.2c-0.6,0-1.1,0.1-1.5,0.4s-0.7,0.6-1,1.1V64c0.3,0.4,0.6,0.8,1,1s0.9,0.4,1.5,0.4
		c1,0,1.7-0.4,2.2-1.1s0.7-1.7,0.7-2.8V61.2z"/>
	<path class="st2" d="M1546,56.4c0.4-0.6,0.9-1.1,1.5-1.4s1.3-0.5,2-0.5c1.3,0,2.4,0.4,3.1,1.3s1.1,2.2,1.1,3.9v7.7h-2.7v-7.7
		c0-1-0.2-1.7-0.6-2.2s-1-0.7-1.8-0.7c-0.6,0-1.1,0.1-1.5,0.3c-0.4,0.2-0.8,0.5-1.1,1v9.3h-2.8V49.1h2.8V56.4L1546,56.4z"/>
	<path class="st2" d="M1561,62.3l0.3,1.3h0.1l2.8-8.9h3.1l-5.3,14.6c-0.3,0.9-0.8,1.6-1.4,2.3s-1.5,0.9-2.6,0.9
		c-0.2,0-0.5,0-0.8-0.1c-0.3-0.1-0.5-0.1-0.8-0.2l0.3-2.2c0.1,0,0.2,0,0.4,0c0.2,0,0.3,0,0.4,0c0.5,0,0.9-0.2,1.2-0.5
		s0.6-0.8,0.8-1.2l0.5-1.1l-4.6-12.5h3.1L1561,62.3z"/>
</g>
<g>
	<path class="st2" d="M1109.2,135.6v6.5h-2.8V125h6.7c1.9,0,3.4,0.5,4.4,1.5s1.6,2.3,1.6,3.8c0,1.6-0.5,2.9-1.6,3.8
		s-2.5,1.4-4.4,1.4h-3.9V135.6z M1109.2,133.3h3.8c1.1,0,1.8-0.3,2.4-0.8s0.8-1.3,0.8-2.1s-0.3-1.6-0.8-2.2s-1.3-0.9-2.4-0.9h-3.8
		V133.3z"/>
	<path class="st2" d="M1127.8,132h-1.2c-0.6,0-1,0.1-1.4,0.4c-0.4,0.3-0.7,0.6-0.9,1v8.8h-2.8v-12.7h2.6l0.2,1.8
		c0.3-0.6,0.7-1.2,1.2-1.5s1.1-0.6,1.7-0.6c0.2,0,0.3,0,0.5,0c0.2,0,0.3,0.1,0.4,0.1L1127.8,132z"/>
	<path class="st2" d="M1132.9,126.3h-2.9v-2.5h2.8L1132.9,126.3L1132.9,126.3z M1132.9,142.1h-2.9v-12.7h2.8L1132.9,142.1
		L1132.9,142.1z"/>
	<path class="st2" d="M1138.6,129.4l0.2,1.8c0.4-0.6,0.9-1.2,1.6-1.5c0.7-0.3,1.3-0.5,2.1-0.5c1.3,0,2.3,0.4,3.1,1.2
		c0.8,0.8,1.1,2,1.1,3.7v8h-2.8v-7.9c0-1-0.2-1.6-0.6-2s-1-0.6-1.8-0.6c-0.6,0-1.1,0.1-1.5,0.4s-0.8,0.6-1.1,1v9.2h-2.9v-12.7
		L1138.6,129.4L1138.6,129.4z"/>
	<path class="st2" d="M1153.2,126.3v3.1h2.3v2.1h-2.3v7c0,0.5,0.1,0.9,0.3,1.1s0.5,0.3,0.9,0.3c0.2,0,0.3,0,0.5,0
		c0.2,0,0.3-0.1,0.4-0.1l0.3,2.1c-0.2,0.1-0.5,0.2-0.9,0.3c-0.4,0.1-0.7,0.1-1,0.1c-1,0-1.9-0.3-2.5-0.9c-0.6-0.6-0.9-1.6-0.9-2.9
		v-7h-1.9v-2.1h1.9v-3.1L1153.2,126.3L1153.2,126.3z"/>
	<path class="st2" d="M1164.3,142.1V125h5.5c2.2,0,3.9,0.7,5.3,2s2,3.1,2,5.2v2.6c0,2.1-0.7,3.9-2,5.2c-1.3,1.3-3.1,2-5.3,2h-5.5
		V142.1z M1167.2,127.3v12.5h2.6c1.4,0,2.5-0.5,3.3-1.4c0.8-0.9,1.2-2.1,1.2-3.6v-2.6c0-1.4-0.4-2.6-1.2-3.5
		c-0.8-0.9-1.9-1.4-3.3-1.4C1169.8,127.3,1167.2,127.3,1167.2,127.3z"/>
	<path class="st2" d="M1185.2,142.3c-1.8,0-3.2-0.6-4.3-1.8s-1.6-2.7-1.6-4.5v-0.5c0-1.8,0.5-3.4,1.6-4.6s2.4-1.8,4-1.8
		c1.7,0,3,0.5,3.9,1.6c0.9,1.1,1.4,2.4,1.4,4.2v1.7h-7.9v0.1c0,1,0.3,1.8,0.9,2.5c0.5,0.6,1.3,1,2.3,1c0.8,0,1.4-0.1,2-0.3
		s1.1-0.5,1.6-0.8l0.9,1.9c-0.5,0.4-1.1,0.8-1.9,1.1C1187.1,142.2,1186.2,142.3,1185.2,142.3z M1184.8,131.5c-0.7,0-1.3,0.3-1.7,0.8
		s-0.7,1.3-0.8,2.1v0.1h5v-0.3c0-0.8-0.2-1.5-0.6-2C1186.3,131.7,1185.7,131.5,1184.8,131.5z"/>
	<path class="st2" d="M1199.6,138.6c0-0.4-0.2-0.8-0.6-1.1s-1.1-0.5-2.1-0.8c-1.5-0.3-2.7-0.8-3.4-1.4s-1.2-1.4-1.2-2.4
		c0-1.1,0.4-2,1.3-2.7s2.1-1.1,3.6-1.1s2.8,0.4,3.7,1.1s1.3,1.7,1.3,2.8v0.1h-2.7c0-0.5-0.2-1-0.6-1.3s-0.9-0.6-1.6-0.6
		c-0.7,0-1.2,0.2-1.6,0.5c-0.4,0.3-0.5,0.7-0.5,1.1s0.2,0.8,0.5,1.1c0.3,0.3,1,0.5,2.1,0.7c1.6,0.3,2.8,0.8,3.5,1.4
		c0.7,0.6,1.2,1.4,1.2,2.4c0,1.1-0.5,2.1-1.4,2.8s-2.2,1.1-3.7,1.1c-1.6,0-2.9-0.4-3.9-1.3s-1.4-1.8-1.4-2.9V138h2.6
		c0,0.7,0.3,1.3,0.8,1.6s1.1,0.5,1.8,0.5s1.3-0.1,1.7-0.4C1199.4,139.4,1199.6,139.1,1199.6,138.6z"/>
	<path class="st2" d="M1207.9,126.3h-2.8v-2.5h2.8V126.3z M1207.9,142.1h-2.8v-12.7h2.8V142.1z"/>
	<path class="st2" d="M1210.6,135.9c0-2,0.4-3.6,1.3-4.9s2.1-1.9,3.7-1.9c0.8,0,1.4,0.2,2,0.5s1.1,0.8,1.5,1.4l0.3-1.7h2.4V142
		c0,1.6-0.5,2.9-1.5,3.8s-2.4,1.3-4.3,1.3c-0.6,0-1.3-0.1-2-0.3s-1.4-0.4-1.9-0.7l0.6-2.2c0.5,0.2,1,0.4,1.6,0.6
		c0.6,0.2,1.2,0.2,1.8,0.2c1,0,1.8-0.2,2.3-0.7s0.7-1.1,0.7-2v-1.3c-0.4,0.5-0.9,0.9-1.4,1.2s-1.2,0.4-1.9,0.4
		c-1.6,0-2.8-0.6-3.7-1.7c-0.9-1.1-1.3-2.6-1.3-4.5v-0.2H1210.6z M1213.5,136.2c0,1.2,0.2,2.1,0.7,2.8s1.2,1,2.2,1
		c0.6,0,1.1-0.1,1.5-0.4s0.8-0.6,1-1.1V133c-0.3-0.5-0.6-0.8-1-1.1s-0.9-0.4-1.5-0.4c-1,0-1.7,0.4-2.2,1.2s-0.7,1.9-0.7,3.2V136.2z"
		/>
	<path class="st2" d="M1227.3,129.4l0.2,1.8c0.4-0.6,0.9-1.2,1.6-1.5c0.7-0.3,1.3-0.5,2.1-0.5c1.3,0,2.3,0.4,3.1,1.2s1.1,2,1.1,3.7
		v8h-2.8v-7.9c0-1-0.2-1.6-0.6-2c-0.4-0.4-1-0.6-1.8-0.6c-0.6,0-1.1,0.1-1.5,0.4s-0.8,0.6-1.1,1v9.2h-2.8v-12.7L1227.3,129.4
		L1227.3,129.4z"/>
</g>
<g>
	<path class="st2" d="M1466.4,421.6v-17.1h5.7c1.9,0,3.4,0.4,4.4,1.2s1.6,1.9,1.6,3.5c0,0.8-0.2,1.5-0.7,2.1s-1.1,1.1-1.9,1.4
		c1,0.2,1.8,0.7,2.3,1.5s0.8,1.6,0.8,2.6c0,1.6-0.5,2.8-1.6,3.7s-2.5,1.2-4.3,1.2h-6.3V421.6z M1469.2,411.7h3.1
		c0.9,0,1.6-0.2,2.1-0.6s0.8-1,0.8-1.8s-0.3-1.5-0.8-1.9s-1.3-0.6-2.4-0.6h-2.8V411.7L1469.2,411.7z M1469.2,413.8v5.5h3.6
		c1,0,1.7-0.2,2.3-0.7s0.8-1.1,0.8-1.9c0-0.9-0.2-1.6-0.7-2.1c-0.4-0.5-1.1-0.7-2.1-0.7L1469.2,413.8L1469.2,413.8z"/>
	<path class="st2" d="M1487.7,411.4h-1.2c-0.6,0-1,0.1-1.4,0.4c-0.4,0.3-0.7,0.6-0.9,1v8.8h-2.8v-12.7h2.6l0.2,1.8
		c0.3-0.6,0.7-1.2,1.2-1.5s1.1-0.6,1.7-0.6c0.2,0,0.3,0,0.5,0c0.2,0,0.3,0.1,0.4,0.1L1487.7,411.4z"/>
	<path class="st2" d="M1497.3,421.6c-0.1-0.3-0.2-0.6-0.3-0.9s-0.1-0.6-0.1-0.9c-0.4,0.6-0.9,1.1-1.5,1.5s-1.3,0.6-2.1,0.6
		c-1.3,0-2.3-0.3-3-1c-0.7-0.7-1.1-1.6-1.1-2.8c0-1.2,0.5-2.2,1.5-2.9s2.3-1,4.1-1h2.2V413c0-0.7-0.2-1.2-0.6-1.6
		c-0.4-0.4-0.9-0.6-1.7-0.6c-0.6,0-1.2,0.2-1.5,0.5c-0.3,0.3-0.6,0.7-0.6,1.2h-2.7v-0.1c-0.1-1,0.4-1.9,1.3-2.7
		c0.9-0.8,2.2-1.2,3.7-1.2s2.7,0.4,3.6,1.1c0.9,0.7,1.4,1.8,1.4,3.2v5.6c0,0.5,0,1,0.1,1.5s0.2,1,0.3,1.4h-3V421.6z M1493.8,419.5
		c0.7,0,1.4-0.2,1.9-0.5s1-0.8,1.1-1.2v-1.9h-2.3c-0.8,0-1.5,0.2-1.9,0.6s-0.7,0.9-0.7,1.4s0.2,0.9,0.5,1.2
		C1492.7,419.4,1493.2,419.5,1493.8,419.5z"/>
	<path class="st2" d="M1505.3,408.9l0.2,1.8c0.4-0.6,0.9-1.2,1.6-1.5s1.3-0.5,2.1-0.5c1.3,0,2.3,0.4,3.1,1.2c0.8,0.8,1.1,2,1.1,3.7
		v8h-2.8v-7.9c0-1-0.2-1.6-0.6-2c-0.4-0.4-1-0.6-1.8-0.6c-0.6,0-1.1,0.1-1.5,0.4s-0.8,0.6-1.1,1v9.2h-2.8V409h2.5V408.9z"/>
	<path class="st2" d="M1515.8,415.4c0-2,0.4-3.7,1.3-4.9c0.9-1.2,2.1-1.9,3.7-1.9c0.7,0,1.3,0.1,1.8,0.4s1,0.7,1.4,1.2v-7h2.8v18.3
		h-2.4l-0.3-1.6c-0.4,0.6-0.9,1-1.5,1.4s-1.2,0.5-2,0.5c-1.6,0-2.8-0.6-3.6-1.7c-0.8-1.1-1.3-2.6-1.3-4.5L1515.8,415.4L1515.8,415.4
		z M1518.7,415.6c0,1.2,0.2,2.1,0.7,2.8s1.2,1,2.1,1c0.6,0,1.1-0.1,1.5-0.4s0.8-0.6,1-1.1v-5.5c-0.3-0.5-0.6-0.8-1-1.1
		s-0.9-0.4-1.5-0.4c-1,0-1.7,0.4-2.1,1.2c-0.4,0.8-0.7,1.9-0.7,3.2V415.6z"/>
	<path class="st2" d="M1533,405.8h-2.8v-2.5h2.8V405.8z M1533,421.6h-2.8v-12.7h2.8V421.6z"/>
	<path class="st2" d="M1538.7,408.9l0.2,1.8c0.4-0.6,0.9-1.2,1.6-1.5s1.3-0.5,2.1-0.5c1.3,0,2.3,0.4,3.1,1.2c0.8,0.8,1.1,2,1.1,3.7
		v8h-2.8v-7.9c0-1-0.2-1.6-0.6-2c-0.4-0.4-1-0.6-1.8-0.6c-0.6,0-1.1,0.1-1.5,0.4s-0.8,0.6-1.1,1v9.2h-2.8V409h2.5V408.9z"/>
	<path class="st2" d="M1549.2,415.4c0-2,0.4-3.6,1.3-4.9c0.9-1.3,2.1-1.9,3.7-1.9c0.8,0,1.4,0.2,2,0.5s1.1,0.8,1.5,1.4l0.3-1.7h2.4
		v12.7c0,1.6-0.5,2.9-1.5,3.8s-2.4,1.3-4.3,1.3c-0.6,0-1.3-0.1-2-0.3c-0.7-0.2-1.4-0.4-1.9-0.7l0.6-2.2c0.5,0.2,1,0.4,1.6,0.6
		s1.2,0.2,1.8,0.2c1,0,1.8-0.2,2.3-0.7s0.7-1.1,0.7-2v-1.3c-0.4,0.5-0.9,0.9-1.4,1.2s-1.2,0.4-1.9,0.4c-1.6,0-2.8-0.6-3.7-1.7
		s-1.3-2.6-1.3-4.5v-0.2H1549.2z M1552.1,415.6c0,1.2,0.2,2.1,0.7,2.8s1.2,1,2.2,1c0.6,0,1.1-0.1,1.5-0.4s0.8-0.6,1-1.1v-5.6
		c-0.3-0.5-0.6-0.8-1-1.1s-0.9-0.4-1.5-0.4c-1,0-1.7,0.4-2.2,1.2s-0.7,1.9-0.7,3.2V415.6z"/>
</g>
<g>
	<path class="st2" d="M1119.9,483.2v11.4c0,1.9-0.6,3.3-1.9,4.4s-2.8,1.5-4.8,1.5s-3.5-0.5-4.7-1.5s-1.8-2.5-1.8-4.3v-11.4h2.8v11.4
		c0,1.2,0.3,2.1,1,2.7s1.6,0.9,2.7,0.9c1.2,0,2.1-0.3,2.8-0.9s1-1.5,1-2.7v-11.4h2.9V483.2z"/>
	<path class="st2" d="M1126.3,500.2h-2.8v-17.1h2.8V500.2z"/>
	<path class="st2" d="M1136.1,500.2v-17.1h5.5c2.2,0,3.9,0.7,5.3,2s2,3.1,2,5.2v2.6c0,2.1-0.7,3.9-2,5.2c-1.3,1.3-3.1,2-5.3,2
		L1136.1,500.2L1136.1,500.2z M1139,485.4v12.5h2.6c1.4,0,2.5-0.5,3.3-1.4c0.8-0.9,1.2-2.1,1.2-3.6v-2.6c0-1.4-0.4-2.6-1.2-3.5
		c-0.8-0.9-1.9-1.4-3.3-1.4H1139z"/>
	<path class="st2" d="M1157,500.5c-1.8,0-3.2-0.6-4.3-1.8c-1.1-1.2-1.6-2.7-1.6-4.5v-0.5c0-1.8,0.5-3.4,1.6-4.6
		c1.1-1.2,2.4-1.8,4-1.8c1.7,0,3,0.5,3.9,1.6s1.4,2.4,1.4,4.2v1.7h-8v0.1c0,1,0.3,1.8,0.9,2.5s1.3,1,2.3,1c0.8,0,1.4-0.1,2-0.3
		c0.6-0.2,1.1-0.5,1.6-0.8l0.9,1.9c-0.5,0.4-1.1,0.8-1.9,1.1C1158.9,500.3,1158,500.5,1157,500.5z M1156.7,489.6
		c-0.7,0-1.3,0.3-1.7,0.8s-0.7,1.3-0.8,2.1v0.1h5v-0.3c0-0.8-0.2-1.5-0.6-2S1157.5,489.6,1156.7,489.6z"/>
	<path class="st2" d="M1171.4,496.8c0-0.4-0.2-0.8-0.6-1.1c-0.4-0.3-1.1-0.5-2.1-0.8c-1.5-0.3-2.7-0.8-3.4-1.4
		c-0.7-0.6-1.2-1.4-1.2-2.4c0-1.1,0.4-2,1.3-2.7s2.1-1.1,3.6-1.1s2.8,0.4,3.7,1.1c0.9,0.7,1.3,1.7,1.3,2.8v0.1h-2.7
		c0-0.5-0.2-1-0.6-1.3c-0.4-0.3-0.9-0.6-1.6-0.6c-0.7,0-1.2,0.2-1.6,0.5s-0.5,0.7-0.5,1.1s0.2,0.8,0.5,1.1s1,0.5,2.1,0.7
		c1.6,0.3,2.8,0.8,3.5,1.4c0.7,0.6,1.2,1.4,1.2,2.4c0,1.1-0.5,2.1-1.4,2.8s-2.2,1.1-3.7,1.1c-1.6,0-2.9-0.4-3.9-1.3
		s-1.4-1.8-1.4-2.9v-0.1h2.6c0,0.7,0.3,1.3,0.8,1.6s1.1,0.5,1.8,0.5c0.7,0,1.3-0.1,1.7-0.4C1171.2,497.6,1171.4,497.3,1171.4,496.8z
		"/>
	<path class="st2" d="M1179.8,484.4h-2.8v-2.5h2.8V484.4z M1179.8,500.2h-2.8v-12.7h2.8V500.2z"/>
	<path class="st2" d="M1182.4,494.1c0-2,0.4-3.6,1.3-4.9c0.9-1.3,2.1-1.9,3.7-1.9c0.8,0,1.4,0.2,2,0.5s1.1,0.8,1.5,1.4l0.3-1.7h2.4
		v12.7c0,1.6-0.5,2.9-1.5,3.8s-2.4,1.3-4.3,1.3c-0.6,0-1.3-0.1-2-0.3c-0.7-0.2-1.4-0.4-1.9-0.7l0.6-2.2c0.5,0.2,1,0.4,1.6,0.6
		s1.2,0.2,1.8,0.2c1,0,1.8-0.2,2.3-0.7s0.7-1.1,0.7-2v-1.3c-0.4,0.5-0.9,0.9-1.4,1.2s-1.2,0.4-1.9,0.4c-1.6,0-2.8-0.6-3.7-1.7
		s-1.3-2.6-1.3-4.5v-0.2H1182.4z M1185.3,494.3c0,1.2,0.2,2.1,0.7,2.8s1.2,1,2.2,1c0.6,0,1.1-0.1,1.5-0.4c0.4-0.3,0.8-0.6,1-1.1V491
		c-0.3-0.5-0.6-0.8-1-1.1c-0.4-0.3-0.9-0.4-1.5-0.4c-1,0-1.7,0.4-2.2,1.2s-0.7,1.9-0.7,3.2V494.3z"/>
	<path class="st2" d="M1199.1,487.5l0.2,1.8c0.4-0.6,0.9-1.2,1.6-1.5c0.7-0.3,1.3-0.5,2.1-0.5c1.3,0,2.3,0.4,3.1,1.2
		c0.8,0.8,1.1,2,1.1,3.7v8h-2.8v-7.9c0-1-0.2-1.6-0.6-2s-1-0.6-1.8-0.6c-0.6,0-1.1,0.1-1.5,0.4s-0.8,0.6-1.1,1v9.2h-2.8v-12.7h2.5
		V487.5z"/>
</g>
<g>
	<path class="st2" d="M1065.3,341.7L1065.3,341.7L1065.3,341.7l3.4-12.5h2.3l3.4,12.5v0.1v-0.1l2.7-12.5h2.8l-4.1,17.1h-2.6
		l-3.4-12.2h-0.1l-3.4,12.2h-2.6l-4-17.1h2.8L1065.3,341.7z"/>
	<path class="st2" d="M1087.1,346.5c-1.8,0-3.2-0.6-4.3-1.8c-1.1-1.2-1.6-2.7-1.6-4.5v-0.5c0-1.8,0.5-3.4,1.6-4.6
		c1.1-1.2,2.4-1.8,4-1.8c1.7,0,3,0.5,3.9,1.6c0.9,1.1,1.4,2.4,1.4,4.2v1.7h-7.9v0.1c0,1,0.3,1.8,0.9,2.5s1.3,1,2.3,1
		c0.8,0,1.4-0.1,2-0.3s1.1-0.5,1.6-0.8l0.9,1.9c-0.5,0.4-1.1,0.8-1.9,1.1C1089,346.3,1088.1,346.5,1087.1,346.5z M1086.8,335.6
		c-0.7,0-1.3,0.3-1.7,0.8s-0.7,1.3-0.8,2.1v0.1h5v-0.3c0-0.8-0.2-1.5-0.6-2C1088.3,335.8,1087.6,335.6,1086.8,335.6z"/>
	<path class="st2" d="M1105.5,340.3c0,1.9-0.4,3.3-1.3,4.5c-0.9,1.2-2.1,1.7-3.7,1.7c-0.8,0-1.5-0.2-2.1-0.5s-1.1-0.8-1.5-1.4
		l-0.3,1.6h-2.4v-18.3h2.8v7c0.4-0.5,0.9-1,1.4-1.2s1.2-0.4,1.9-0.4c1.6,0,2.8,0.6,3.7,1.9s1.3,2.9,1.3,4.9v0.2H1105.5z
		 M1102.6,340.1c0-1.3-0.2-2.4-0.7-3.2s-1.2-1.2-2.2-1.2c-0.6,0-1.2,0.1-1.6,0.4s-0.8,0.7-1,1.2v5.3c0.2,0.5,0.6,0.9,1,1.2
		s1,0.4,1.6,0.4c1,0,1.7-0.3,2.1-1s0.7-1.6,0.7-2.8L1102.6,340.1L1102.6,340.1z"/>
	<path class="st2" d="M1114.3,346.2v-17.1h5.5c2.2,0,3.9,0.7,5.3,2s2,3.1,2,5.2v2.6c0,2.1-0.7,3.9-2,5.2c-1.3,1.3-3.1,2-5.3,2
		L1114.3,346.2L1114.3,346.2z M1117.1,331.4v12.5h2.6c1.4,0,2.5-0.5,3.3-1.4s1.2-2.1,1.2-3.6v-2.6c0-1.4-0.4-2.6-1.2-3.5
		s-1.9-1.4-3.3-1.4H1117.1z"/>
	<path class="st2" d="M1135.1,346.5c-1.8,0-3.2-0.6-4.3-1.8c-1.1-1.2-1.6-2.7-1.6-4.5v-0.5c0-1.8,0.5-3.4,1.6-4.6
		c1.1-1.2,2.4-1.8,4-1.8c1.7,0,3,0.5,3.9,1.6c0.9,1.1,1.4,2.4,1.4,4.2v1.7h-7.9v0.1c0,1,0.3,1.8,0.9,2.5s1.3,1,2.3,1
		c0.8,0,1.4-0.1,2-0.3s1.1-0.5,1.6-0.8l0.9,1.9c-0.5,0.4-1.1,0.8-1.9,1.1C1137.1,346.3,1136.2,346.5,1135.1,346.5z M1134.8,335.6
		c-0.7,0-1.3,0.3-1.7,0.8s-0.7,1.3-0.8,2.1v0.1h5v-0.3c0-0.8-0.2-1.5-0.6-2C1136.3,335.8,1135.6,335.6,1134.8,335.6z"/>
	<path class="st2" d="M1146.6,341.9l0.2,1h0.1l0.2-1l2.5-8.4h2.9l-4.5,12.7h-2.5l-4.5-12.7h2.9L1146.6,341.9z"/>
	<path class="st2" d="M1159.7,346.5c-1.8,0-3.2-0.6-4.3-1.8s-1.6-2.7-1.6-4.5v-0.5c0-1.8,0.5-3.4,1.6-4.6s2.4-1.8,4-1.8
		c1.7,0,3,0.5,3.9,1.6c0.9,1.1,1.4,2.4,1.4,4.2v1.7h-7.9v0.1c0,1,0.3,1.8,0.9,2.5s1.3,1,2.3,1c0.8,0,1.4-0.1,2-0.3s1.1-0.5,1.6-0.8
		l0.9,1.9c-0.5,0.4-1.1,0.8-1.9,1.1C1161.6,346.3,1160.7,346.5,1159.7,346.5z M1159.3,335.6c-0.7,0-1.3,0.3-1.7,0.8
		s-0.7,1.3-0.8,2.1v0.1h5v-0.3c0-0.8-0.2-1.5-0.6-2C1160.8,335.8,1160.2,335.6,1159.3,335.6z"/>
	<path class="st2" d="M1170,346.2h-2.8v-18.3h2.8V346.2z"/>
	<path class="st2" d="M1172.6,339.8c0-1.9,0.5-3.4,1.5-4.6s2.5-1.8,4.3-1.8c1.8,0,3.2,0.6,4.3,1.8c1,1.2,1.6,2.8,1.6,4.6v0.2
		c0,1.9-0.5,3.5-1.6,4.7c-1,1.2-2.4,1.8-4.3,1.8c-1.8,0-3.2-0.6-4.3-1.8c-1-1.2-1.5-2.8-1.5-4.7V339.8z M1175.5,340
		c0,1.2,0.2,2.2,0.7,3s1.2,1.2,2.3,1.2c1,0,1.7-0.4,2.2-1.2c0.5-0.8,0.8-1.8,0.8-3v-0.2c0-1.2-0.3-2.2-0.8-3s-1.2-1.2-2.3-1.2
		c-1,0-1.7,0.4-2.2,1.2c-0.5,0.8-0.7,1.8-0.7,3V340z"/>
	<path class="st2" d="M1197.9,340.3c0,1.8-0.4,3.3-1.3,4.5s-2.1,1.7-3.6,1.7c-0.7,0-1.4-0.1-1.9-0.4s-1-0.6-1.4-1.1v6.2h-2.8v-17.6
		h2.4l0.3,1.6c0.4-0.6,0.9-1,1.5-1.4s1.2-0.5,2-0.5c1.6,0,2.8,0.6,3.7,1.9c0.9,1.3,1.3,2.9,1.3,4.9v0.2H1197.9z M1195,340.1
		c0-1.3-0.2-2.4-0.7-3.2s-1.2-1.2-2.2-1.2c-0.6,0-1.1,0.1-1.5,0.4s-0.7,0.6-1,1.1v5.7c0.3,0.4,0.6,0.8,1,1s0.9,0.4,1.5,0.4
		c1,0,1.7-0.4,2.2-1.1s0.7-1.7,0.7-2.8V340.1z"/>
	<path class="st2" d="M1203,333.5l0.2,1.7c0.4-0.6,0.9-1.1,1.6-1.4c0.7-0.3,1.3-0.5,2.2-0.5c0.8,0,1.5,0.2,2.1,0.6s1,0.9,1.3,1.7
		c0.4-0.7,0.9-1.3,1.5-1.7s1.4-0.6,2.3-0.6c1.3,0,2.3,0.4,3,1.3c0.7,0.9,1.1,2.2,1.1,4v7.6h-2.8v-7.7c0-1.1-0.2-1.8-0.6-2.3
		s-0.9-0.7-1.7-0.7c-0.6,0-1.1,0.2-1.5,0.5c-0.4,0.3-0.7,0.8-0.9,1.3c0,0.1,0,0.2,0,0.3s0,0.2,0,0.2v8.2h-2.8v-7.7
		c0-1-0.2-1.8-0.6-2.2s-0.9-0.7-1.7-0.7c-0.6,0-1.1,0.1-1.5,0.3c-0.4,0.2-0.7,0.5-1,0.9v9.3h-2.8v-12.7h2.6V333.5z"/>
	<path class="st2" d="M1226.7,346.5c-1.8,0-3.2-0.6-4.3-1.8s-1.6-2.7-1.6-4.5v-0.5c0-1.8,0.5-3.4,1.6-4.6s2.4-1.8,4-1.8
		c1.7,0,3,0.5,3.9,1.6c0.9,1.1,1.4,2.4,1.4,4.2v1.7h-7.9v0.1c0,1,0.3,1.8,0.9,2.5c0.6,0.7,1.3,1,2.3,1c0.8,0,1.4-0.1,2-0.3
		s1.1-0.5,1.6-0.8l0.9,1.9c-0.5,0.4-1.1,0.8-1.9,1.1C1228.6,346.3,1227.7,346.5,1226.7,346.5z M1226.3,335.6c-0.7,0-1.3,0.3-1.7,0.8
		s-0.7,1.3-0.8,2.1v0.1h5v-0.3c0-0.8-0.2-1.5-0.6-2C1227.8,335.8,1227.2,335.6,1226.3,335.6z"/>
	<path class="st2" d="M1236.5,333.5l0.2,1.8c0.4-0.6,0.9-1.2,1.6-1.5c0.7-0.3,1.3-0.5,2.1-0.5c1.3,0,2.3,0.4,3.1,1.2s1.1,2,1.1,3.7
		v8h-2.8v-7.9c0-1-0.2-1.6-0.6-2s-1-0.6-1.8-0.6c-0.6,0-1.1,0.1-1.5,0.4s-0.8,0.6-1.1,1v9.2h-2.8v-12.7h2.5V333.5z"/>
	<path class="st2" d="M1251.1,330.5v3.1h2.3v2.1h-2.3v7c0,0.5,0.1,0.9,0.3,1.1c0.2,0.2,0.5,0.3,0.9,0.3c0.2,0,0.3,0,0.5,0
		c0.2,0,0.3-0.1,0.4-0.1l0.3,2.1c-0.2,0.1-0.5,0.2-0.9,0.3s-0.7,0.1-1,0.1c-1,0-1.9-0.3-2.5-0.9s-0.9-1.6-0.9-2.9v-7h-1.9v-2.1h1.9
		v-3.1H1251.1z"/>
</g>
<g>
	<path class="st2" d="M1456.1,138.1h-6.7l-1.4,4h-2.9l6.3-17.1h2.7l6.2,17.1h-2.9L1456.1,138.1z M1450.2,135.7h5.1l-2.5-7.3h-0.1
		L1450.2,135.7z"/>
	<path class="st2" d="M1461.4,135.9c0-2,0.4-3.7,1.3-4.9c0.9-1.2,2.1-1.9,3.7-1.9c0.7,0,1.3,0.1,1.8,0.4s1,0.7,1.4,1.2v-7h2.8V142
		h-2.4l-0.3-1.6c-0.4,0.6-0.9,1-1.5,1.4c-0.6,0.4-1.2,0.5-2,0.5c-1.6,0-2.8-0.6-3.6-1.7c-0.9-1.1-1.3-2.6-1.3-4.5L1461.4,135.9
		L1461.4,135.9z M1464.3,136.2c0,1.2,0.2,2.1,0.7,2.8s1.2,1,2.1,1c0.6,0,1.1-0.1,1.5-0.4s0.8-0.6,1-1.1V133c-0.3-0.5-0.6-0.8-1-1.1
		s-0.9-0.4-1.5-0.4c-1,0-1.7,0.4-2.1,1.2s-0.7,1.9-0.7,3.2V136.2z"/>
	<path class="st2" d="M1481.9,142.1V125h5.5c2.2,0,3.9,0.7,5.3,2c1.4,1.3,2,3.1,2,5.2v2.6c0,2.1-0.7,3.9-2,5.2c-1.3,1.3-3.1,2-5.3,2
		h-5.5V142.1z M1484.7,127.3v12.5h2.6c1.4,0,2.5-0.5,3.3-1.4s1.2-2.1,1.2-3.6v-2.6c0-1.4-0.4-2.6-1.2-3.5c-0.8-0.9-1.9-1.4-3.3-1.4
		C1487.3,127.3,1484.7,127.3,1484.7,127.3z"/>
	<path class="st2" d="M1502.7,142.3c-1.8,0-3.2-0.6-4.3-1.8s-1.6-2.7-1.6-4.5v-0.5c0-1.8,0.5-3.4,1.6-4.6s2.4-1.8,4-1.8
		c1.7,0,3,0.5,3.9,1.6s1.4,2.4,1.4,4.2v1.7h-7.9v0.1c0,1,0.3,1.8,0.9,2.5c0.5,0.6,1.3,1,2.3,1c0.8,0,1.4-0.1,2-0.3
		c0.6-0.2,1.1-0.5,1.6-0.8l0.9,1.9c-0.5,0.4-1.1,0.8-1.9,1.1C1504.7,142.2,1503.8,142.3,1502.7,142.3z M1502.4,131.5
		c-0.7,0-1.3,0.3-1.7,0.8c-0.4,0.5-0.7,1.3-0.8,2.1v0.1h5v-0.3c0-0.8-0.2-1.5-0.6-2S1503.2,131.5,1502.4,131.5z"/>
	<path class="st2" d="M1517.1,138.6c0-0.4-0.2-0.8-0.6-1.1s-1.1-0.5-2.1-0.8c-1.5-0.3-2.7-0.8-3.4-1.4s-1.2-1.4-1.2-2.4
		c0-1.1,0.4-2,1.3-2.7s2.1-1.1,3.6-1.1s2.8,0.4,3.7,1.1c0.9,0.7,1.3,1.7,1.3,2.8v0.1h-2.7c0-0.5-0.2-1-0.6-1.3s-0.9-0.6-1.6-0.6
		s-1.2,0.2-1.6,0.5s-0.5,0.7-0.5,1.1s0.2,0.8,0.5,1.1s1,0.5,2.1,0.7c1.6,0.3,2.8,0.8,3.5,1.4s1.2,1.4,1.2,2.4c0,1.1-0.5,2.1-1.4,2.8
		c-0.9,0.7-2.2,1.1-3.7,1.1c-1.6,0-2.9-0.4-3.9-1.3s-1.4-1.8-1.4-2.9V138h2.6c0,0.7,0.3,1.3,0.8,1.6s1.1,0.5,1.8,0.5
		s1.3-0.1,1.7-0.4C1516.9,139.4,1517.1,139.1,1517.1,138.6z"/>
	<path class="st2" d="M1525.5,126.3h-2.8v-2.5h2.8V126.3z M1525.5,142.1h-2.8v-12.7h2.8V142.1z"/>
	<path class="st2" d="M1528.2,135.9c0-2,0.4-3.6,1.3-4.9s2.1-1.9,3.7-1.9c0.8,0,1.4,0.2,2,0.5c0.6,0.3,1.1,0.8,1.5,1.4l0.3-1.7h2.4
		V142c0,1.6-0.5,2.9-1.5,3.8s-2.4,1.3-4.3,1.3c-0.6,0-1.3-0.1-2-0.3c-0.7-0.2-1.4-0.4-1.9-0.7l0.6-2.2c0.5,0.2,1,0.4,1.6,0.6
		c0.6,0.2,1.2,0.2,1.8,0.2c1,0,1.8-0.2,2.3-0.7s0.7-1.1,0.7-2v-1.3c-0.4,0.5-0.9,0.9-1.4,1.2s-1.2,0.4-1.9,0.4
		c-1.6,0-2.8-0.6-3.7-1.7c-0.9-1.1-1.3-2.6-1.3-4.5v-0.2H1528.2z M1531,136.2c0,1.2,0.2,2.1,0.7,2.8s1.2,1,2.2,1
		c0.6,0,1.1-0.1,1.5-0.4s0.8-0.6,1-1.1V133c-0.3-0.5-0.6-0.8-1-1.1s-0.9-0.4-1.5-0.4c-1,0-1.7,0.4-2.2,1.2s-0.7,1.9-0.7,3.2V136.2z"
		/>
	<path class="st2" d="M1544.9,129.4l0.2,1.8c0.4-0.6,0.9-1.2,1.6-1.5s1.3-0.5,2.1-0.5c1.3,0,2.3,0.4,3.1,1.2c0.8,0.8,1.1,2,1.1,3.7
		v8h-2.8v-7.9c0-1-0.2-1.6-0.6-2s-1-0.6-1.8-0.6c-0.6,0-1.1,0.1-1.5,0.4c-0.4,0.3-0.8,0.6-1.1,1v9.2h-2.8v-12.7L1544.9,129.4
		L1544.9,129.4z"/>
</g>
<text transform="matrix(1 0 0 1 795.6002 31.0002)" style="fill:#6184D8; font-family:'Roboto-Medium'; font-size:16px;">Lorem ipsum</text>
</svg>
