<?xml version="1.0" encoding="utf-8"?>
<!-- Generator: Adobe Illustrator 21.0.0, SVG Export Plug-In . SVG Version: 6.00 Build 0)  -->
<svg version="1.1" id="Layer_1" xmlns="http://www.w3.org/2000/svg" xmlns:xlink="http://www.w3.org/1999/xlink" x="0px" y="0px"
	 viewBox="0 0 741 632" style="enable-background:new 0 0 741 632;" xml:space="preserve">
<style type="text/css">
	.st0{fill:#E6E7E8;}
	.st1{fill:#6184D8;}
	.st2{fill:#FFFFFF;}
</style>
<text transform="matrix(1 0 0 1 874 140)"><tspan x="0" y="0" style="font-family:'MyriadPro-Regular'; font-size:12px;">$white: #ffffff;</tspan><tspan x="0" y="14.4" style="font-family:'MyriadPro-Regular'; font-size:12px;">$light-gray: #f8f8fb;</tspan><tspan x="0" y="28.8" style="font-family:'MyriadPro-Regular'; font-size:12px;">$blue-gray: #383a49;</tspan><tspan x="0" y="43.2" style="font-family:'MyriadPro-Regular'; font-size:12px;">$gray: #8f9098;</tspan><tspan x="0" y="57.6" style="font-family:'MyriadPro-Regular'; font-size:12px;">$blue: #6184d8;</tspan><tspan x="0" y="72" style="font-family:'MyriadPro-Regular'; font-size:12px;">$dark-blue: #2D2F3E;</tspan></text>
<g>
	<path d="M703,180.3v60.8h-21l-1.8-40.6H378.4V587l32.3,2.6V607h-88.4v-17.4l32.3-2.6V200.5H57.8l-1.6,40.6H35v-60.8H703z"/>
</g>
<path class="st0" d="M350.6,163H69.3c-5,0-9.1-4.1-9.1-9.1v-38.7c0-5,4.1-9.1,9.1-9.1h281.3c5,0,9.1,4.1,9.1,9.1v38.7
	C359.8,158.9,355.7,163,350.6,163z"/>
<path class="st0" d="M668.7,163H387.4c-5,0-9.1-4.1-9.1-9.1v-38.7c0-5,4.1-9.1,9.1-9.1h281.3c5,0,9.1,4.1,9.1,9.1v38.7
	C677.8,158.9,673.7,163,668.7,163z"/>
<path class="st0" d="M350.6,86.9H69.3c-5,0-9.1-4.1-9.1-9.1V39.1c0-5,4.1-9.1,9.1-9.1h281.3c5,0,9.1,4.1,9.1,9.1v38.7
	C359.8,82.8,355.7,86.9,350.6,86.9z"/>
<path class="st0" d="M668.7,86.9H387.4c-5,0-9.1-4.1-9.1-9.1V39.1c0-5,4.1-9.1,9.1-9.1h281.3c5,0,9.1,4.1,9.1,9.1v38.7
	C677.8,82.8,673.7,86.9,668.7,86.9z"/>
<g>
	<path d="M136.9,60.9v6.5h-2.8V50.4h6.7c1.9,0,3.4,0.5,4.4,1.5s1.6,2.3,1.6,3.8c0,1.6-0.5,2.9-1.6,3.8s-2.5,1.4-4.4,1.4H136.9z
		 M136.9,58.7h3.8c1.1,0,1.8-0.3,2.4-0.8s0.8-1.3,0.8-2.1s-0.3-1.6-0.8-2.2s-1.3-0.9-2.4-0.9h-3.8V58.7z"/>
	<path d="M152,56.4c0.4-0.6,0.9-1.1,1.5-1.4s1.3-0.5,2-0.5c1.3,0,2.4,0.4,3.1,1.3s1.1,2.2,1.1,3.9v7.7H157v-7.7c0-1-0.2-1.7-0.6-2.2
		s-1-0.7-1.8-0.7c-0.6,0-1.1,0.1-1.5,0.3s-0.8,0.5-1.1,1v9.3h-2.8V49.1h2.8V56.4z"/>
	<path d="M162.3,61c0-1.9,0.5-3.4,1.5-4.6c1-1.2,2.5-1.8,4.3-1.8c1.8,0,3.2,0.6,4.3,1.8c1,1.2,1.6,2.8,1.6,4.6v0.2
		c0,1.9-0.5,3.5-1.6,4.7c-1,1.2-2.4,1.8-4.3,1.8c-1.8,0-3.2-0.6-4.3-1.8c-1-1.2-1.5-2.8-1.5-4.7V61z M165.1,61.2
		c0,1.2,0.2,2.2,0.7,3c0.5,0.8,1.2,1.2,2.3,1.2c1,0,1.7-0.4,2.2-1.2c0.5-0.8,0.8-1.8,0.8-3V61c0-1.2-0.3-2.2-0.8-3
		c-0.5-0.8-1.2-1.2-2.3-1.2c-1,0-1.7,0.4-2.2,1.2c-0.5,0.8-0.7,1.8-0.7,3V61.2z"/>
	<path d="M179.9,51.7v3.1h2.3v2.1h-2.3v7c0,0.5,0.1,0.9,0.3,1.1s0.5,0.3,0.9,0.3c0.2,0,0.3,0,0.5,0s0.3-0.1,0.4-0.1l0.3,2.1
		c-0.2,0.1-0.5,0.2-0.9,0.3s-0.7,0.1-1,0.1c-1,0-1.9-0.3-2.5-0.9s-0.9-1.6-0.9-2.9v-7h-1.9v-2.1h1.9v-3.1H179.9z"/>
	<path d="M184.2,61c0-1.9,0.5-3.4,1.5-4.6c1-1.2,2.5-1.8,4.3-1.8c1.8,0,3.2,0.6,4.3,1.8c1,1.2,1.6,2.8,1.6,4.6v0.2
		c0,1.9-0.5,3.5-1.6,4.7c-1,1.2-2.4,1.8-4.3,1.8c-1.8,0-3.2-0.6-4.3-1.8c-1-1.2-1.5-2.8-1.5-4.7V61z M187.1,61.2
		c0,1.2,0.2,2.2,0.7,3c0.5,0.8,1.2,1.2,2.3,1.2c1,0,1.7-0.4,2.2-1.2c0.5-0.8,0.8-1.8,0.8-3V61c0-1.2-0.3-2.2-0.8-3
		c-0.5-0.8-1.2-1.2-2.3-1.2c-1,0-1.7,0.4-2.2,1.2c-0.5,0.8-0.7,1.8-0.7,3V61.2z"/>
	<path d="M197.8,61.3c0-2,0.4-3.6,1.3-4.9s2.1-1.9,3.7-1.9c0.8,0,1.4,0.2,2,0.5s1.1,0.8,1.5,1.4l0.3-1.7h2.4v12.7
		c0,1.6-0.5,2.9-1.5,3.8s-2.4,1.3-4.3,1.3c-0.6,0-1.3-0.1-2-0.3s-1.4-0.4-1.9-0.7l0.6-2.2c0.5,0.2,1,0.4,1.6,0.6s1.2,0.2,1.8,0.2
		c1,0,1.8-0.2,2.3-0.7s0.7-1.1,0.7-2v-1.3c-0.4,0.5-0.9,0.9-1.4,1.2s-1.2,0.4-1.9,0.4c-1.6,0-2.8-0.6-3.7-1.7s-1.3-2.6-1.3-4.5V61.3
		z M200.7,61.5c0,1.2,0.2,2.1,0.7,2.8s1.2,1,2.2,1c0.6,0,1.1-0.1,1.5-0.4s0.8-0.6,1-1.1v-5.6c-0.3-0.5-0.6-0.8-1-1.1
		s-0.9-0.4-1.5-0.4c-1,0-1.7,0.4-2.2,1.2s-0.7,1.9-0.7,3.2V61.5z"/>
	<path d="M218.2,57.3l-1.2,0c-0.6,0-1,0.1-1.4,0.4s-0.7,0.6-0.9,1v8.8h-2.8V54.7h2.6l0.2,1.8c0.3-0.6,0.7-1.2,1.2-1.5
		s1.1-0.6,1.7-0.6c0.2,0,0.3,0,0.5,0s0.3,0.1,0.4,0.1L218.2,57.3z"/>
	<path d="M227.9,67.4c-0.1-0.3-0.2-0.6-0.3-0.9s-0.1-0.6-0.1-0.9c-0.4,0.6-0.9,1.1-1.5,1.5s-1.3,0.6-2.1,0.6c-1.3,0-2.3-0.3-3-1
		s-1.1-1.6-1.1-2.8c0-1.2,0.5-2.2,1.5-2.9s2.3-1,4.1-1h2.2v-1.1c0-0.7-0.2-1.2-0.6-1.6s-0.9-0.6-1.7-0.6c-0.6,0-1.2,0.2-1.5,0.5
		s-0.6,0.7-0.6,1.2h-2.7l0-0.1c-0.1-1,0.4-1.9,1.3-2.7s2.2-1.2,3.7-1.2c1.5,0,2.7,0.4,3.6,1.1s1.4,1.8,1.4,3.2v5.6
		c0,0.5,0,1,0.1,1.5s0.2,1,0.3,1.4H227.9z M224.4,65.4c0.7,0,1.4-0.2,1.9-0.5s1-0.8,1.1-1.2v-1.9h-2.3c-0.8,0-1.5,0.2-1.9,0.6
		s-0.7,0.9-0.7,1.4c0,0.5,0.2,0.9,0.5,1.2S223.8,65.4,224.4,65.4z"/>
	<path d="M244.4,61.5c0,1.8-0.4,3.3-1.3,4.5s-2.1,1.7-3.6,1.7c-0.7,0-1.4-0.1-1.9-0.4s-1-0.6-1.4-1.1v6.2h-2.8V54.7h2.4l0.3,1.6
		c0.4-0.6,0.9-1,1.5-1.4s1.2-0.5,2-0.5c1.6,0,2.8,0.6,3.7,1.9s1.3,2.9,1.3,4.9V61.5z M241.6,61.2c0-1.3-0.2-2.4-0.7-3.2
		s-1.2-1.2-2.2-1.2c-0.6,0-1.1,0.1-1.5,0.4s-0.7,0.6-1,1.1V64c0.3,0.4,0.6,0.8,1,1c0.4,0.2,0.9,0.4,1.5,0.4c1,0,1.7-0.4,2.2-1.1
		s0.7-1.7,0.7-2.8V61.2z"/>
	<path d="M249.7,56.4c0.4-0.6,0.9-1.1,1.5-1.4s1.3-0.5,2-0.5c1.3,0,2.4,0.4,3.1,1.3s1.1,2.2,1.1,3.9v7.7h-2.8v-7.7
		c0-1-0.2-1.7-0.6-2.2s-1-0.7-1.8-0.7c-0.6,0-1.1,0.1-1.5,0.3s-0.8,0.5-1.1,1v9.3h-2.8V49.1h2.8V56.4z"/>
	<path d="M264.7,62.3l0.3,1.3h0.1l2.8-8.9h3.1l-5.3,14.6c-0.3,0.9-0.8,1.6-1.4,2.3s-1.5,0.9-2.6,0.9c-0.2,0-0.5,0-0.8-0.1
		s-0.5-0.1-0.8-0.2l0.3-2.2c0.1,0,0.2,0,0.4,0s0.3,0,0.4,0c0.5,0,0.9-0.2,1.2-0.5s0.6-0.8,0.8-1.2l0.5-1.1l-4.6-12.5h3.1L264.7,62.3
		z"/>
</g>
<g>
	<path d="M470.1,63l0.3,1.2h0.1l0.3-1.2l4.1-12.6h3l-6.1,17.1h-2.7L463,50.4h3L470.1,63z"/>
	<path d="M482.6,51.6h-2.8v-2.5h2.8V51.6z M482.6,67.4h-2.8V54.7h2.8V67.4z"/>
	<path d="M485.3,61.3c0-2,0.4-3.7,1.3-4.9s2.1-1.9,3.7-1.9c0.7,0,1.3,0.1,1.8,0.4s1,0.7,1.4,1.2v-7h2.8v18.3h-2.4l-0.3-1.6
		c-0.4,0.6-0.9,1-1.5,1.4s-1.2,0.5-2,0.5c-1.6,0-2.8-0.6-3.6-1.7s-1.3-2.6-1.3-4.5V61.3z M488.1,61.5c0,1.2,0.2,2.1,0.7,2.8
		s1.2,1,2.1,1c0.6,0,1.1-0.1,1.5-0.4s0.8-0.6,1-1.1v-5.5c-0.3-0.5-0.6-0.8-1-1.1s-0.9-0.4-1.5-0.4c-1,0-1.7,0.4-2.1,1.2
		s-0.7,1.9-0.7,3.2V61.5z"/>
	<path d="M504.8,67.7c-1.8,0-3.2-0.6-4.3-1.8s-1.6-2.7-1.6-4.5v-0.5c0-1.8,0.5-3.4,1.6-4.6s2.4-1.8,4-1.8c1.7,0,3,0.5,3.9,1.6
		s1.4,2.4,1.4,4.2v1.7h-7.9l0,0.1c0,1,0.3,1.8,0.9,2.5c0.5,0.6,1.3,1,2.3,1c0.8,0,1.4-0.1,2-0.3s1.1-0.5,1.6-0.8l0.9,1.9
		c-0.5,0.4-1.1,0.8-1.9,1.1C506.8,67.5,505.9,67.7,504.8,67.7z M504.5,56.8c-0.7,0-1.3,0.3-1.7,0.8s-0.7,1.3-0.8,2.1l0,0.1h5v-0.3
		c0-0.8-0.2-1.5-0.6-2S505.3,56.8,504.5,56.8z"/>
	<path d="M511.6,61c0-1.9,0.5-3.4,1.5-4.6c1-1.2,2.5-1.8,4.3-1.8c1.8,0,3.2,0.6,4.3,1.8c1,1.2,1.6,2.8,1.6,4.6v0.2
		c0,1.9-0.5,3.5-1.6,4.7c-1,1.2-2.4,1.8-4.3,1.8c-1.8,0-3.2-0.6-4.3-1.8c-1-1.2-1.5-2.8-1.5-4.7V61z M514.4,61.2
		c0,1.2,0.2,2.2,0.7,3c0.5,0.8,1.2,1.2,2.3,1.2c1,0,1.7-0.4,2.2-1.2c0.5-0.8,0.8-1.8,0.8-3V61c0-1.2-0.3-2.2-0.8-3
		c-0.5-0.8-1.2-1.2-2.3-1.2c-1,0-1.7,0.4-2.2,1.2c-0.5,0.8-0.7,1.8-0.7,3V61.2z"/>
	<path d="M525.2,61.3c0-2,0.4-3.6,1.3-4.9s2.1-1.9,3.7-1.9c0.8,0,1.4,0.2,2,0.5s1.1,0.8,1.5,1.4l0.3-1.7h2.4v12.7
		c0,1.6-0.5,2.9-1.5,3.8s-2.4,1.3-4.3,1.3c-0.6,0-1.3-0.1-2-0.3s-1.4-0.4-1.9-0.7l0.6-2.2c0.5,0.2,1,0.4,1.6,0.6s1.2,0.2,1.8,0.2
		c1,0,1.8-0.2,2.3-0.7s0.7-1.1,0.7-2v-1.3c-0.4,0.5-0.9,0.9-1.4,1.2s-1.2,0.4-1.9,0.4c-1.6,0-2.8-0.6-3.7-1.7s-1.3-2.6-1.3-4.5V61.3
		z M528,61.5c0,1.2,0.2,2.1,0.7,2.8s1.2,1,2.2,1c0.6,0,1.1-0.1,1.5-0.4s0.8-0.6,1-1.1v-5.6c-0.3-0.5-0.6-0.8-1-1.1s-0.9-0.4-1.5-0.4
		c-1,0-1.7,0.4-2.2,1.2s-0.7,1.9-0.7,3.2V61.5z"/>
	<path d="M545.6,57.3l-1.2,0c-0.6,0-1,0.1-1.4,0.4s-0.7,0.6-0.9,1v8.8h-2.8V54.7h2.6l0.2,1.8c0.3-0.6,0.7-1.2,1.2-1.5
		s1.1-0.6,1.7-0.6c0.2,0,0.3,0,0.5,0s0.3,0.1,0.4,0.1L545.6,57.3z"/>
	<path d="M555.2,67.4c-0.1-0.3-0.2-0.6-0.3-0.9s-0.1-0.6-0.1-0.9c-0.4,0.6-0.9,1.1-1.5,1.5s-1.3,0.6-2.1,0.6c-1.3,0-2.3-0.3-3-1
		S547,65,547,63.8c0-1.2,0.5-2.2,1.5-2.9s2.3-1,4.1-1h2.2v-1.1c0-0.7-0.2-1.2-0.6-1.6s-0.9-0.6-1.7-0.6c-0.6,0-1.2,0.2-1.5,0.5
		s-0.6,0.7-0.6,1.2h-2.7l0-0.1c-0.1-1,0.4-1.9,1.3-2.7s2.2-1.2,3.7-1.2c1.5,0,2.7,0.4,3.6,1.1s1.4,1.8,1.4,3.2v5.6
		c0,0.5,0,1,0.1,1.5s0.2,1,0.3,1.4H555.2z M551.7,65.4c0.7,0,1.4-0.2,1.9-0.5s1-0.8,1.1-1.2v-1.9h-2.3c-0.8,0-1.5,0.2-1.9,0.6
		s-0.7,0.9-0.7,1.4c0,0.5,0.2,0.9,0.5,1.2S551.1,65.4,551.7,65.4z"/>
	<path d="M571.8,61.5c0,1.8-0.4,3.3-1.3,4.5s-2.1,1.7-3.6,1.7c-0.7,0-1.4-0.1-1.9-0.4s-1-0.6-1.4-1.1v6.2h-2.8V54.7h2.4l0.3,1.6
		c0.4-0.6,0.9-1,1.5-1.4s1.2-0.5,2-0.5c1.6,0,2.8,0.6,3.7,1.9s1.3,2.9,1.3,4.9V61.5z M568.9,61.2c0-1.3-0.2-2.4-0.7-3.2
		s-1.2-1.2-2.2-1.2c-0.6,0-1.1,0.1-1.5,0.4s-0.7,0.6-1,1.1V64c0.3,0.4,0.6,0.8,1,1c0.4,0.2,0.9,0.4,1.5,0.4c1,0,1.7-0.4,2.2-1.1
		s0.7-1.7,0.7-2.8V61.2z"/>
	<path d="M577,56.4c0.4-0.6,0.9-1.1,1.5-1.4s1.3-0.5,2-0.5c1.3,0,2.4,0.4,3.1,1.3s1.1,2.2,1.1,3.9v7.7H582v-7.7c0-1-0.2-1.7-0.6-2.2
		s-1-0.7-1.8-0.7c-0.6,0-1.1,0.1-1.5,0.3s-0.8,0.5-1.1,1v9.3h-2.8V49.1h2.8V56.4z"/>
	<path d="M592,62.3l0.3,1.3h0.1l2.8-8.9h3.1L593,69.3c-0.3,0.9-0.8,1.6-1.4,2.3s-1.5,0.9-2.6,0.9c-0.2,0-0.5,0-0.8-0.1
		s-0.5-0.1-0.8-0.2l0.3-2.2c0.1,0,0.2,0,0.4,0s0.3,0,0.4,0c0.5,0,0.9-0.2,1.2-0.5s0.6-0.8,0.8-1.2l0.5-1.1l-4.6-12.5h3.1L592,62.3z"
		/>
</g>
<g>
	<path d="M140.2,135.6v6.5h-2.8V125h6.7c1.9,0,3.4,0.5,4.4,1.5s1.6,2.3,1.6,3.8c0,1.6-0.5,2.9-1.6,3.8s-2.5,1.4-4.4,1.4H140.2z
		 M140.2,133.3h3.8c1.1,0,1.8-0.3,2.4-0.8s0.8-1.3,0.8-2.1s-0.3-1.6-0.8-2.2s-1.3-0.9-2.4-0.9h-3.8V133.3z"/>
	<path d="M158.8,132l-1.2,0c-0.6,0-1,0.1-1.4,0.4s-0.7,0.6-0.9,1v8.8h-2.8v-12.7h2.6l0.2,1.8c0.3-0.6,0.7-1.2,1.2-1.5
		s1.1-0.6,1.7-0.6c0.2,0,0.3,0,0.5,0s0.3,0.1,0.4,0.1L158.8,132z"/>
	<path d="M163.9,126.3H161v-2.5h2.8V126.3z M163.9,142.1H161v-12.7h2.8V142.1z"/>
	<path d="M169.6,129.4l0.2,1.8c0.4-0.6,0.9-1.2,1.6-1.5s1.3-0.5,2.1-0.5c1.3,0,2.3,0.4,3.1,1.2s1.1,2,1.1,3.7v8h-2.8v-7.9
		c0-1-0.2-1.6-0.6-2s-1-0.6-1.8-0.6c-0.6,0-1.1,0.1-1.5,0.4s-0.8,0.6-1.1,1v9.2H167v-12.7H169.6z"/>
	<path d="M184.2,126.3v3.1h2.3v2.1h-2.3v7c0,0.5,0.1,0.9,0.3,1.1s0.5,0.3,0.9,0.3c0.2,0,0.3,0,0.5,0s0.3-0.1,0.4-0.1l0.3,2.1
		c-0.2,0.1-0.5,0.2-0.9,0.3s-0.7,0.1-1,0.1c-1,0-1.9-0.3-2.5-0.9s-0.9-1.6-0.9-2.9v-7h-1.9v-2.1h1.9v-3.1H184.2z"/>
	<path d="M195.3,142.1V125h5.5c2.2,0,3.9,0.7,5.3,2s2,3.1,2,5.2v2.6c0,2.1-0.7,3.9-2,5.2s-3.1,2-5.3,2H195.3z M198.2,127.3v12.5h2.6
		c1.4,0,2.5-0.5,3.3-1.4c0.8-0.9,1.2-2.1,1.2-3.6v-2.6c0-1.4-0.4-2.6-1.2-3.5c-0.8-0.9-1.9-1.4-3.3-1.4H198.2z"/>
	<path d="M216.2,142.3c-1.8,0-3.2-0.6-4.3-1.8s-1.6-2.7-1.6-4.5v-0.5c0-1.8,0.5-3.4,1.6-4.6s2.4-1.8,4-1.8c1.7,0,3,0.5,3.9,1.6
		s1.4,2.4,1.4,4.2v1.7h-7.9l0,0.1c0,1,0.3,1.8,0.9,2.5c0.5,0.6,1.3,1,2.3,1c0.8,0,1.4-0.1,2-0.3s1.1-0.5,1.6-0.8l0.9,1.9
		c-0.5,0.4-1.1,0.8-1.9,1.1C218.1,142.2,217.2,142.3,216.2,142.3z M215.8,131.5c-0.7,0-1.3,0.3-1.7,0.8s-0.7,1.3-0.8,2.1l0,0.1h5
		v-0.3c0-0.8-0.2-1.5-0.6-2S216.7,131.5,215.8,131.5z"/>
	<path d="M230.6,138.6c0-0.4-0.2-0.8-0.6-1.1s-1.1-0.5-2.1-0.8c-1.5-0.3-2.7-0.8-3.4-1.4s-1.2-1.4-1.2-2.4c0-1.1,0.4-2,1.3-2.7
		s2.1-1.1,3.6-1.1c1.5,0,2.8,0.4,3.7,1.1s1.3,1.7,1.3,2.8l0,0.1h-2.7c0-0.5-0.2-1-0.6-1.3s-0.9-0.6-1.6-0.6c-0.7,0-1.2,0.2-1.6,0.5
		s-0.5,0.7-0.5,1.1s0.2,0.8,0.5,1.1s1,0.5,2.1,0.7c1.6,0.3,2.8,0.8,3.5,1.4s1.2,1.4,1.2,2.4c0,1.1-0.5,2.1-1.4,2.8s-2.2,1.1-3.7,1.1
		c-1.6,0-2.9-0.4-3.9-1.3s-1.4-1.8-1.4-2.9l0-0.1h2.6c0,0.7,0.3,1.3,0.8,1.6s1.1,0.5,1.8,0.5c0.7,0,1.3-0.1,1.7-0.4
		S230.6,139.1,230.6,138.6z"/>
	<path d="M238.9,126.3h-2.8v-2.5h2.8V126.3z M238.9,142.1h-2.8v-12.7h2.8V142.1z"/>
	<path d="M241.6,135.9c0-2,0.4-3.6,1.3-4.9s2.1-1.9,3.7-1.9c0.8,0,1.4,0.2,2,0.5s1.1,0.8,1.5,1.4l0.3-1.7h2.4v12.7
		c0,1.6-0.5,2.9-1.5,3.8s-2.4,1.3-4.3,1.3c-0.6,0-1.3-0.1-2-0.3s-1.4-0.4-1.9-0.7l0.6-2.2c0.5,0.2,1,0.4,1.6,0.6s1.2,0.2,1.8,0.2
		c1,0,1.8-0.2,2.3-0.7s0.7-1.1,0.7-2v-1.3c-0.4,0.5-0.9,0.9-1.4,1.2s-1.2,0.4-1.9,0.4c-1.6,0-2.8-0.6-3.7-1.7s-1.3-2.6-1.3-4.5
		V135.9z M244.5,136.2c0,1.2,0.2,2.1,0.7,2.8s1.2,1,2.2,1c0.6,0,1.1-0.1,1.5-0.4s0.8-0.6,1-1.1V133c-0.3-0.5-0.6-0.8-1-1.1
		s-0.9-0.4-1.5-0.4c-1,0-1.7,0.4-2.2,1.2s-0.7,1.9-0.7,3.2V136.2z"/>
	<path d="M258.3,129.4l0.2,1.8c0.4-0.6,0.9-1.2,1.6-1.5s1.3-0.5,2.1-0.5c1.3,0,2.3,0.4,3.1,1.2s1.1,2,1.1,3.7v8h-2.8v-7.9
		c0-1-0.2-1.6-0.6-2s-1-0.6-1.8-0.6c-0.6,0-1.1,0.1-1.5,0.4s-0.8,0.6-1.1,1v9.2h-2.8v-12.7H258.3z"/>
</g>
<path class="st1" d="M683.9,352.2H411c-7.3,0-13.3,6-13.3,13.3v15.3c0,0.4,0,0.9,0,1.3c-0.4,6.9-4.1,13.1-9.7,17.1l-18.7,13.5
	l18.7,13.5c5.6,4,9.3,10.3,9.7,17.1c0,0.4,0,0.9,0,1.3V460c0,7.3,6,13.3,13.3,13.3h272.9c7.3,0,13.3-6,13.3-13.3v-94.5
	C697.3,358.2,691.3,352.2,683.9,352.2z"/>
<g>
	<path class="st2" d="M492.4,421.6v-17.1h5.7c1.9,0,3.4,0.4,4.4,1.2s1.6,1.9,1.6,3.5c0,0.8-0.2,1.5-0.7,2.1s-1.1,1.1-1.9,1.4
		c1,0.2,1.8,0.7,2.3,1.5s0.8,1.6,0.8,2.6c0,1.6-0.5,2.8-1.6,3.7s-2.5,1.2-4.3,1.2H492.4z M495.2,411.7h3.1c0.9,0,1.6-0.2,2.1-0.6
		s0.8-1,0.8-1.8c0-0.8-0.3-1.5-0.8-1.9s-1.3-0.6-2.4-0.6h-2.8V411.7z M495.2,413.8v5.5h3.6c1,0,1.7-0.2,2.3-0.7s0.8-1.1,0.8-1.9
		c0-0.9-0.2-1.6-0.7-2.1c-0.4-0.5-1.1-0.7-2.1-0.7H495.2z"/>
	<path class="st2" d="M513.7,411.4l-1.2,0c-0.6,0-1,0.1-1.4,0.4s-0.7,0.6-0.9,1v8.8h-2.8v-12.7h2.6l0.2,1.8c0.3-0.6,0.7-1.2,1.2-1.5
		s1.1-0.6,1.7-0.6c0.2,0,0.3,0,0.5,0s0.3,0.1,0.4,0.1L513.7,411.4z"/>
	<path class="st2" d="M523.3,421.6c-0.1-0.3-0.2-0.6-0.3-0.9s-0.1-0.6-0.1-0.9c-0.4,0.6-0.9,1.1-1.5,1.5s-1.3,0.6-2.1,0.6
		c-1.3,0-2.3-0.3-3-1s-1.1-1.6-1.1-2.8c0-1.2,0.5-2.2,1.5-2.9s2.3-1,4.1-1h2.2V413c0-0.7-0.2-1.2-0.6-1.6s-0.9-0.6-1.7-0.6
		c-0.6,0-1.2,0.2-1.5,0.5s-0.6,0.7-0.6,1.2h-2.7l0-0.1c-0.1-1,0.4-1.9,1.3-2.7s2.2-1.2,3.7-1.2c1.5,0,2.7,0.4,3.6,1.1
		s1.4,1.8,1.4,3.2v5.6c0,0.5,0,1,0.1,1.5s0.2,1,0.3,1.4H523.3z M519.8,419.5c0.7,0,1.4-0.2,1.9-0.5s1-0.8,1.1-1.2v-1.9h-2.3
		c-0.8,0-1.5,0.2-1.9,0.6s-0.7,0.9-0.7,1.4c0,0.5,0.2,0.9,0.5,1.2S519.2,419.5,519.8,419.5z"/>
	<path class="st2" d="M531.3,408.9l0.2,1.8c0.4-0.6,0.9-1.2,1.6-1.5s1.3-0.5,2.1-0.5c1.3,0,2.3,0.4,3.1,1.2s1.1,2,1.1,3.7v8h-2.8
		v-7.9c0-1-0.2-1.6-0.6-2s-1-0.6-1.8-0.6c-0.6,0-1.1,0.1-1.5,0.4s-0.8,0.6-1.1,1v9.2h-2.8v-12.7H531.3z"/>
	<path class="st2" d="M541.8,415.4c0-2,0.4-3.7,1.3-4.9s2.1-1.9,3.7-1.9c0.7,0,1.3,0.1,1.8,0.4s1,0.7,1.4,1.2v-7h2.8v18.3h-2.4
		l-0.3-1.6c-0.4,0.6-0.9,1-1.5,1.4s-1.2,0.5-2,0.5c-1.6,0-2.8-0.6-3.6-1.7s-1.3-2.6-1.3-4.5V415.4z M544.7,415.6
		c0,1.2,0.2,2.1,0.7,2.8s1.2,1,2.1,1c0.6,0,1.1-0.1,1.5-0.4s0.8-0.6,1-1.1v-5.5c-0.3-0.5-0.6-0.8-1-1.1s-0.9-0.4-1.5-0.4
		c-1,0-1.7,0.4-2.1,1.2s-0.7,1.9-0.7,3.2V415.6z"/>
	<path class="st2" d="M559,405.8h-2.8v-2.5h2.8V405.8z M559,421.6h-2.8v-12.7h2.8V421.6z"/>
	<path class="st2" d="M564.7,408.9l0.2,1.8c0.4-0.6,0.9-1.2,1.6-1.5s1.3-0.5,2.1-0.5c1.3,0,2.3,0.4,3.1,1.2s1.1,2,1.1,3.7v8h-2.8
		v-7.9c0-1-0.2-1.6-0.6-2s-1-0.6-1.8-0.6c-0.6,0-1.1,0.1-1.5,0.4s-0.8,0.6-1.1,1v9.2h-2.8v-12.7H564.7z"/>
	<path class="st2" d="M575.2,415.4c0-2,0.4-3.6,1.3-4.9s2.1-1.9,3.7-1.9c0.8,0,1.4,0.2,2,0.5s1.1,0.8,1.5,1.4l0.3-1.7h2.4v12.7
		c0,1.6-0.5,2.9-1.5,3.8s-2.4,1.3-4.3,1.3c-0.6,0-1.3-0.1-2-0.3s-1.4-0.4-1.9-0.7l0.6-2.2c0.5,0.2,1,0.4,1.6,0.6s1.2,0.2,1.8,0.2
		c1,0,1.8-0.2,2.3-0.7s0.7-1.1,0.7-2v-1.3c-0.4,0.5-0.9,0.9-1.4,1.2s-1.2,0.4-1.9,0.4c-1.6,0-2.8-0.6-3.7-1.7s-1.3-2.6-1.3-4.5
		V415.4z M578.1,415.6c0,1.2,0.2,2.1,0.7,2.8s1.2,1,2.2,1c0.6,0,1.1-0.1,1.5-0.4s0.8-0.6,1-1.1v-5.6c-0.3-0.5-0.6-0.8-1-1.1
		s-0.9-0.4-1.5-0.4c-1,0-1.7,0.4-2.2,1.2s-0.7,1.9-0.7,3.2V415.6z"/>
</g>
<path class="st1" d="M53,430.8h272.9c7.3,0,13.3,6,13.3,13.3v15.3c0,0.4,0,0.9,0,1.3c0.4,6.9,4.1,13.1,9.7,17.1l18.7,13.5L349,504.9
	c-5.6,4-9.3,10.3-9.7,17.1c0,0.4,0,0.9,0,1.3v15.3c0,7.3-6,13.3-13.3,13.3H53c-7.3,0-13.3-6-13.3-13.3v-94.5
	C39.7,436.8,45.7,430.8,53,430.8z"/>
<g>
	<path class="st2" d="M150.9,483.2v11.4c0,1.9-0.6,3.3-1.9,4.4s-2.8,1.5-4.8,1.5c-2,0-3.5-0.5-4.7-1.5s-1.8-2.5-1.8-4.3v-11.4h2.8
		v11.4c0,1.2,0.3,2.1,1,2.7c0.7,0.6,1.6,0.9,2.7,0.9c1.2,0,2.1-0.3,2.8-0.9c0.7-0.6,1-1.5,1-2.7v-11.4H150.9z"/>
	<path class="st2" d="M157.3,500.2h-2.8v-17.1h2.8V500.2z"/>
	<path class="st2" d="M167.1,500.2v-17.1h5.5c2.2,0,3.9,0.7,5.3,2s2,3.1,2,5.2v2.6c0,2.1-0.7,3.9-2,5.2s-3.1,2-5.3,2H167.1z
		 M170,485.4v12.5h2.6c1.4,0,2.5-0.5,3.3-1.4s1.2-2.1,1.2-3.6v-2.6c0-1.4-0.4-2.6-1.2-3.5c-0.8-0.9-1.9-1.4-3.3-1.4H170z"/>
	<path class="st2" d="M188,500.5c-1.8,0-3.2-0.6-4.3-1.8s-1.6-2.7-1.6-4.5v-0.5c0-1.8,0.5-3.4,1.6-4.6s2.4-1.8,4-1.8
		c1.7,0,3,0.5,3.9,1.6s1.4,2.4,1.4,4.2v1.7H185l0,0.1c0,1,0.3,1.8,0.9,2.5s1.3,1,2.3,1c0.8,0,1.4-0.1,2-0.3s1.1-0.5,1.6-0.8l0.9,1.9
		c-0.5,0.4-1.1,0.8-1.9,1.1C189.9,500.3,189,500.5,188,500.5z M187.7,489.6c-0.7,0-1.3,0.3-1.7,0.8s-0.7,1.3-0.8,2.1l0,0.1h5v-0.3
		c0-0.8-0.2-1.5-0.6-2S188.5,489.6,187.7,489.6z"/>
	<path class="st2" d="M202.4,496.8c0-0.4-0.2-0.8-0.6-1.1s-1.1-0.5-2.1-0.8c-1.5-0.3-2.7-0.8-3.4-1.4s-1.2-1.4-1.2-2.4
		c0-1.1,0.4-2,1.3-2.7s2.1-1.1,3.6-1.1c1.5,0,2.8,0.4,3.7,1.1s1.3,1.7,1.3,2.8l0,0.1h-2.7c0-0.5-0.2-1-0.6-1.3s-0.9-0.6-1.6-0.6
		c-0.7,0-1.2,0.2-1.6,0.5s-0.5,0.7-0.5,1.1s0.2,0.8,0.5,1.1s1,0.5,2.1,0.7c1.6,0.3,2.8,0.8,3.5,1.4s1.2,1.4,1.2,2.4
		c0,1.1-0.5,2.1-1.4,2.8s-2.2,1.1-3.7,1.1c-1.6,0-2.9-0.4-3.9-1.3s-1.4-1.8-1.4-2.9l0-0.1h2.6c0,0.7,0.3,1.3,0.8,1.6
		s1.1,0.5,1.8,0.5c0.7,0,1.3-0.1,1.7-0.4S202.4,497.3,202.4,496.8z"/>
	<path class="st2" d="M210.8,484.4h-2.8v-2.5h2.8V484.4z M210.8,500.2h-2.8v-12.7h2.8V500.2z"/>
	<path class="st2" d="M213.4,494.1c0-2,0.4-3.6,1.3-4.9s2.1-1.9,3.7-1.9c0.8,0,1.4,0.2,2,0.5s1.1,0.8,1.5,1.4l0.3-1.7h2.4v12.7
		c0,1.6-0.5,2.9-1.5,3.8s-2.4,1.3-4.3,1.3c-0.6,0-1.3-0.1-2-0.3s-1.4-0.4-1.9-0.7l0.6-2.2c0.5,0.2,1,0.4,1.6,0.6s1.2,0.2,1.8,0.2
		c1,0,1.8-0.2,2.3-0.7s0.7-1.1,0.7-2v-1.3c-0.4,0.5-0.9,0.9-1.4,1.2s-1.2,0.4-1.9,0.4c-1.6,0-2.8-0.6-3.7-1.7s-1.3-2.6-1.3-4.5
		V494.1z M216.3,494.3c0,1.2,0.2,2.1,0.7,2.8s1.2,1,2.2,1c0.6,0,1.1-0.1,1.5-0.4s0.8-0.6,1-1.1v-5.6c-0.3-0.5-0.6-0.8-1-1.1
		s-0.9-0.4-1.5-0.4c-1,0-1.7,0.4-2.2,1.2s-0.7,1.9-0.7,3.2V494.3z"/>
	<path class="st2" d="M230.1,487.5l0.2,1.8c0.4-0.6,0.9-1.2,1.6-1.5s1.3-0.5,2.1-0.5c1.3,0,2.3,0.4,3.1,1.2s1.1,2,1.1,3.7v8h-2.8
		v-7.9c0-1-0.2-1.6-0.6-2s-1-0.6-1.8-0.6c-0.6,0-1.1,0.1-1.5,0.4s-0.8,0.6-1.1,1v9.2h-2.8v-12.7H230.1z"/>
</g>
<path class="st1" d="M53,276.8h272.9c7.3,0,13.3,6,13.3,13.3v15.3c0,0.4,0,0.9,0,1.3c0.4,6.9,4.1,13.1,9.7,17.1l18.7,13.5L349,350.9
	c-5.6,4-9.3,10.3-9.7,17.1c0,0.4,0,0.9,0,1.3v15.3c0,7.3-6,13.3-13.3,13.3H53c-7.3,0-13.3-6-13.3-13.3v-94.5
	C39.7,282.8,45.7,276.8,53,276.8z"/>
<g>
	<path class="st2" d="M96.3,341.7L96.3,341.7L96.3,341.7l3.4-12.5h2.3l3.4,12.5l0,0.1l0-0.1l2.7-12.5h2.8l-4.1,17.1h-2.6l-3.4-12.2
		h-0.1l-3.4,12.2h-2.6l-4-17.1h2.8L96.3,341.7z"/>
	<path class="st2" d="M118.1,346.5c-1.8,0-3.2-0.6-4.3-1.8s-1.6-2.7-1.6-4.5v-0.5c0-1.8,0.5-3.4,1.6-4.6s2.4-1.8,4-1.8
		c1.7,0,3,0.5,3.9,1.6s1.4,2.4,1.4,4.2v1.7h-7.9l0,0.1c0,1,0.3,1.8,0.9,2.5s1.3,1,2.3,1c0.8,0,1.4-0.1,2-0.3s1.1-0.5,1.6-0.8
		l0.9,1.9c-0.5,0.4-1.1,0.8-1.9,1.1C120,346.3,119.1,346.5,118.1,346.5z M117.8,335.6c-0.7,0-1.3,0.3-1.7,0.8s-0.7,1.3-0.8,2.1
		l0,0.1h5v-0.3c0-0.8-0.2-1.5-0.6-2S118.6,335.6,117.8,335.6z"/>
	<path class="st2" d="M136.5,340.3c0,1.9-0.4,3.3-1.3,4.5s-2.1,1.7-3.7,1.7c-0.8,0-1.5-0.2-2.1-0.5s-1.1-0.8-1.5-1.4l-0.3,1.6h-2.4
		v-18.3h2.8v7c0.4-0.5,0.9-1,1.4-1.2s1.2-0.4,1.9-0.4c1.6,0,2.8,0.6,3.7,1.9s1.3,2.9,1.3,4.9V340.3z M133.6,340.1
		c0-1.3-0.2-2.4-0.7-3.2s-1.2-1.2-2.2-1.2c-0.6,0-1.2,0.1-1.6,0.4s-0.8,0.7-1,1.2v5.3c0.2,0.5,0.6,0.9,1,1.2s1,0.4,1.6,0.4
		c1,0,1.7-0.3,2.1-1s0.7-1.6,0.7-2.8V340.1z"/>
	<path class="st2" d="M145.3,346.2v-17.1h5.5c2.2,0,3.9,0.7,5.3,2s2,3.1,2,5.2v2.6c0,2.1-0.7,3.9-2,5.2s-3.1,2-5.3,2H145.3z
		 M148.1,331.4v12.5h2.6c1.4,0,2.5-0.5,3.3-1.4s1.2-2.1,1.2-3.6v-2.6c0-1.4-0.4-2.6-1.2-3.5c-0.8-0.9-1.9-1.4-3.3-1.4H148.1z"/>
	<path class="st2" d="M166.1,346.5c-1.8,0-3.2-0.6-4.3-1.8s-1.6-2.7-1.6-4.5v-0.5c0-1.8,0.5-3.4,1.6-4.6s2.4-1.8,4-1.8
		c1.7,0,3,0.5,3.9,1.6s1.4,2.4,1.4,4.2v1.7h-7.9l0,0.1c0,1,0.3,1.8,0.9,2.5s1.3,1,2.3,1c0.8,0,1.4-0.1,2-0.3s1.1-0.5,1.6-0.8
		l0.9,1.9c-0.5,0.4-1.1,0.8-1.9,1.1C168.1,346.3,167.2,346.5,166.1,346.5z M165.8,335.6c-0.7,0-1.3,0.3-1.7,0.8s-0.7,1.3-0.8,2.1
		l0,0.1h5v-0.3c0-0.8-0.2-1.5-0.6-2S166.6,335.6,165.8,335.6z"/>
	<path class="st2" d="M177.6,341.9l0.2,1h0.1l0.2-1l2.5-8.4h2.9l-4.5,12.7h-2.5l-4.5-12.7h2.9L177.6,341.9z"/>
	<path class="st2" d="M190.7,346.5c-1.8,0-3.2-0.6-4.3-1.8s-1.6-2.7-1.6-4.5v-0.5c0-1.8,0.5-3.4,1.6-4.6s2.4-1.8,4-1.8
		c1.7,0,3,0.5,3.9,1.6s1.4,2.4,1.4,4.2v1.7h-7.9l0,0.1c0,1,0.3,1.8,0.9,2.5s1.3,1,2.3,1c0.8,0,1.4-0.1,2-0.3s1.1-0.5,1.6-0.8
		l0.9,1.9c-0.5,0.4-1.1,0.8-1.9,1.1C192.6,346.3,191.7,346.5,190.7,346.5z M190.3,335.6c-0.7,0-1.3,0.3-1.7,0.8s-0.7,1.3-0.8,2.1
		l0,0.1h5v-0.3c0-0.8-0.2-1.5-0.6-2S191.2,335.6,190.3,335.6z"/>
	<path class="st2" d="M201,346.2h-2.8v-18.3h2.8V346.2z"/>
	<path class="st2" d="M203.6,339.8c0-1.9,0.5-3.4,1.5-4.6c1-1.2,2.5-1.8,4.3-1.8c1.8,0,3.2,0.6,4.3,1.8c1,1.2,1.6,2.8,1.6,4.6v0.2
		c0,1.9-0.5,3.5-1.6,4.7c-1,1.2-2.4,1.8-4.3,1.8c-1.8,0-3.2-0.6-4.3-1.8c-1-1.2-1.5-2.8-1.5-4.7V339.8z M206.5,340
		c0,1.2,0.2,2.2,0.7,3c0.5,0.8,1.2,1.2,2.3,1.2c1,0,1.7-0.4,2.2-1.2c0.5-0.8,0.8-1.8,0.8-3v-0.2c0-1.2-0.3-2.2-0.8-3
		c-0.5-0.8-1.2-1.2-2.3-1.2c-1,0-1.7,0.4-2.2,1.2c-0.5,0.8-0.7,1.8-0.7,3V340z"/>
	<path class="st2" d="M228.9,340.3c0,1.8-0.4,3.3-1.3,4.5s-2.1,1.7-3.6,1.7c-0.7,0-1.4-0.1-1.9-0.4s-1-0.6-1.4-1.1v6.2h-2.8v-17.6
		h2.4l0.3,1.6c0.4-0.6,0.9-1,1.5-1.4s1.2-0.5,2-0.5c1.6,0,2.8,0.6,3.7,1.9s1.3,2.9,1.3,4.9V340.3z M226,340.1c0-1.3-0.2-2.4-0.7-3.2
		s-1.2-1.2-2.2-1.2c-0.6,0-1.1,0.1-1.5,0.4c-0.4,0.3-0.7,0.6-1,1.1v5.7c0.3,0.4,0.6,0.8,1,1c0.4,0.2,0.9,0.4,1.5,0.4
		c1,0,1.7-0.4,2.2-1.1s0.7-1.7,0.7-2.8V340.1z"/>
	<path class="st2" d="M234,333.5l0.2,1.7c0.4-0.6,0.9-1.1,1.6-1.4s1.3-0.5,2.2-0.5c0.8,0,1.5,0.2,2.1,0.6s1,0.9,1.3,1.7
		c0.4-0.7,0.9-1.3,1.5-1.7s1.4-0.6,2.3-0.6c1.3,0,2.3,0.4,3,1.3s1.1,2.2,1.1,4v7.6h-2.8v-7.7c0-1.1-0.2-1.8-0.6-2.3
		s-0.9-0.7-1.7-0.7c-0.6,0-1.1,0.2-1.5,0.5s-0.7,0.8-0.9,1.3c0,0.1,0,0.2,0,0.3s0,0.2,0,0.2v8.2h-2.8v-7.7c0-1-0.2-1.8-0.6-2.2
		s-0.9-0.7-1.7-0.7c-0.6,0-1.1,0.1-1.5,0.3s-0.7,0.5-1,0.9v9.3h-2.8v-12.7H234z"/>
	<path class="st2" d="M257.7,346.5c-1.8,0-3.2-0.6-4.3-1.8s-1.6-2.7-1.6-4.5v-0.5c0-1.8,0.5-3.4,1.6-4.6s2.4-1.8,4-1.8
		c1.7,0,3,0.5,3.9,1.6s1.4,2.4,1.4,4.2v1.7h-7.9l0,0.1c0,1,0.3,1.8,0.9,2.5s1.3,1,2.3,1c0.8,0,1.4-0.1,2-0.3s1.1-0.5,1.6-0.8
		l0.9,1.9c-0.5,0.4-1.1,0.8-1.9,1.1C259.6,346.3,258.7,346.5,257.7,346.5z M257.3,335.6c-0.7,0-1.3,0.3-1.7,0.8s-0.7,1.3-0.8,2.1
		l0,0.1h5v-0.3c0-0.8-0.2-1.5-0.6-2S258.2,335.6,257.3,335.6z"/>
	<path class="st2" d="M267.5,333.5l0.2,1.8c0.4-0.6,0.9-1.2,1.6-1.5s1.3-0.5,2.1-0.5c1.3,0,2.3,0.4,3.1,1.2s1.1,2,1.1,3.7v8h-2.8
		v-7.9c0-1-0.2-1.6-0.6-2s-1-0.6-1.8-0.6c-0.6,0-1.1,0.1-1.5,0.4s-0.8,0.6-1.1,1v9.2h-2.8v-12.7H267.5z"/>
	<path class="st2" d="M282.1,330.5v3.1h2.3v2.1h-2.3v7c0,0.5,0.1,0.9,0.3,1.1s0.5,0.3,0.9,0.3c0.2,0,0.3,0,0.5,0s0.3-0.1,0.4-0.1
		l0.3,2.1c-0.2,0.1-0.5,0.2-0.9,0.3s-0.7,0.1-1,0.1c-1,0-1.9-0.3-2.5-0.9s-0.9-1.6-0.9-2.9v-7h-1.9v-2.1h1.9v-3.1H282.1z"/>
</g>
<g>
	<path d="M487.1,138.1h-6.7l-1.4,4h-2.9l6.3-17.1h2.7l6.2,17.1h-2.9L487.1,138.1z M481.2,135.7h5.1l-2.5-7.3h-0.1L481.2,135.7z"/>
	<path d="M492.4,135.9c0-2,0.4-3.7,1.3-4.9c0.9-1.2,2.1-1.9,3.7-1.9c0.7,0,1.3,0.1,1.8,0.4s1,0.7,1.4,1.2v-7h2.8v18.3h-2.4l-0.3-1.6
		c-0.4,0.6-0.9,1-1.5,1.4s-1.2,0.5-2,0.5c-1.6,0-2.8-0.6-3.6-1.7c-0.9-1.1-1.3-2.6-1.3-4.5V135.9z M495.3,136.2
		c0,1.2,0.2,2.1,0.7,2.8s1.2,1,2.1,1c0.6,0,1.1-0.1,1.5-0.4s0.8-0.6,1-1.1V133c-0.3-0.5-0.6-0.8-1-1.1s-0.9-0.4-1.5-0.4
		c-1,0-1.7,0.4-2.1,1.2s-0.7,1.9-0.7,3.2V136.2z"/>
	<path d="M512.9,142.1V125h5.5c2.2,0,3.9,0.7,5.3,2s2,3.1,2,5.2v2.6c0,2.1-0.7,3.9-2,5.2s-3.1,2-5.3,2H512.9z M515.7,127.3v12.5h2.6
		c1.4,0,2.5-0.5,3.3-1.4c0.8-0.9,1.2-2.1,1.2-3.6v-2.6c0-1.4-0.4-2.6-1.2-3.5c-0.8-0.9-1.9-1.4-3.3-1.4H515.7z"/>
	<path d="M533.7,142.3c-1.8,0-3.2-0.6-4.3-1.8s-1.6-2.7-1.6-4.5v-0.5c0-1.8,0.5-3.4,1.6-4.6s2.4-1.8,4-1.8c1.7,0,3,0.5,3.9,1.6
		s1.4,2.4,1.4,4.2v1.7h-7.9l0,0.1c0,1,0.3,1.8,0.9,2.5c0.5,0.6,1.3,1,2.3,1c0.8,0,1.4-0.1,2-0.3s1.1-0.5,1.6-0.8l0.9,1.9
		c-0.5,0.4-1.1,0.8-1.9,1.1C535.7,142.2,534.8,142.3,533.7,142.3z M533.4,131.5c-0.7,0-1.3,0.3-1.7,0.8s-0.7,1.3-0.8,2.1l0,0.1h5
		v-0.3c0-0.8-0.2-1.5-0.6-2S534.2,131.5,533.4,131.5z"/>
	<path d="M548.1,138.6c0-0.4-0.2-0.8-0.6-1.1s-1.1-0.5-2.1-0.8c-1.5-0.3-2.7-0.8-3.4-1.4s-1.2-1.4-1.2-2.4c0-1.1,0.4-2,1.3-2.7
		s2.1-1.1,3.6-1.1c1.5,0,2.8,0.4,3.7,1.1s1.3,1.7,1.3,2.8l0,0.1H548c0-0.5-0.2-1-0.6-1.3s-0.9-0.6-1.6-0.6c-0.7,0-1.2,0.2-1.6,0.5
		s-0.5,0.7-0.5,1.1s0.2,0.8,0.5,1.1s1,0.5,2.1,0.7c1.6,0.3,2.8,0.8,3.5,1.4s1.2,1.4,1.2,2.4c0,1.1-0.5,2.1-1.4,2.8s-2.2,1.1-3.7,1.1
		c-1.6,0-2.9-0.4-3.9-1.3s-1.4-1.8-1.4-2.9l0-0.1h2.6c0,0.7,0.3,1.3,0.8,1.6s1.1,0.5,1.8,0.5c0.7,0,1.3-0.1,1.7-0.4
		S548.1,139.1,548.1,138.6z"/>
	<path d="M556.5,126.3h-2.8v-2.5h2.8V126.3z M556.5,142.1h-2.8v-12.7h2.8V142.1z"/>
	<path d="M559.2,135.9c0-2,0.4-3.6,1.3-4.9s2.1-1.9,3.7-1.9c0.8,0,1.4,0.2,2,0.5s1.1,0.8,1.5,1.4l0.3-1.7h2.4v12.7
		c0,1.6-0.5,2.9-1.5,3.8s-2.4,1.3-4.3,1.3c-0.6,0-1.3-0.1-2-0.3s-1.4-0.4-1.9-0.7l0.6-2.2c0.5,0.2,1,0.4,1.6,0.6s1.2,0.2,1.8,0.2
		c1,0,1.8-0.2,2.3-0.7s0.7-1.1,0.7-2v-1.3c-0.4,0.5-0.9,0.9-1.4,1.2s-1.2,0.4-1.9,0.4c-1.6,0-2.8-0.6-3.7-1.7s-1.3-2.6-1.3-4.5
		V135.9z M562,136.2c0,1.2,0.2,2.1,0.7,2.8s1.2,1,2.2,1c0.6,0,1.1-0.1,1.5-0.4s0.8-0.6,1-1.1V133c-0.3-0.5-0.6-0.8-1-1.1
		s-0.9-0.4-1.5-0.4c-1,0-1.7,0.4-2.2,1.2s-0.7,1.9-0.7,3.2V136.2z"/>
	<path d="M575.9,129.4l0.2,1.8c0.4-0.6,0.9-1.2,1.6-1.5s1.3-0.5,2.1-0.5c1.3,0,2.3,0.4,3.1,1.2s1.1,2,1.1,3.7v8h-2.8v-7.9
		c0-1-0.2-1.6-0.6-2s-1-0.6-1.8-0.6c-0.6,0-1.1,0.1-1.5,0.4s-0.8,0.6-1.1,1v9.2h-2.8v-12.7H575.9z"/>
</g>
<text transform="matrix(1 0 0 1 795.6002 31.0002)" class="st1" style="font-family:'Roboto-Medium'; font-size:16px;">Lorem ipsum</text>
</svg>
